{"glyphs":{"0":{"ha":1058,"x_min":41,"x_max":1017,"o":"m 529 163 q 759 258 664 163 q 854 488 854 353 q 759 719 854 623 q 529 814 664 814 q 299 719 394 814 q 203 488 203 623 q 299 258 203 353 q 529 163 394 163 m 529 0 q 184 143 327 0 q 41 488 41 286 q 184 833 41 690 q 529 977 327 977 q 874 833 731 977 q 1017 488 1017 690 q 874 143 1017 286 q 529 0 731 0 z "},"1":{"ha":407,"x_min":41,"x_max":366,"o":"m 366 977 l 366 0 l 203 0 l 203 814 l 41 814 l 41 977 l 366 977 z "},"2":{"ha":651,"x_min":41,"x_max":610,"o":"m 326 814 q 239 778 275 814 q 203 692 203 743 l 41 692 q 124 893 41 810 q 326 977 208 977 q 527 893 444 977 q 610 692 610 810 l 610 610 q 527 409 610 492 q 326 326 444 326 q 239 290 275 326 q 203 203 203 254 l 203 163 l 570 163 l 570 0 l 41 0 l 41 203 q 124 405 41 321 q 326 488 208 488 q 412 524 376 488 q 448 610 448 559 l 448 692 q 412 778 448 743 q 326 814 376 814 z "},"3":{"ha":732,"x_min":41,"x_max":692,"o":"m 407 0 l 41 0 l 41 163 l 407 163 q 493 198 458 163 q 529 285 529 234 q 493 371 529 336 q 407 407 458 407 l 203 407 l 203 570 l 244 570 q 331 605 295 570 q 366 692 366 641 q 331 778 366 743 q 244 814 295 814 l 81 814 l 81 977 l 244 977 q 446 893 362 977 q 529 692 529 810 q 496 556 529 617 q 608 486 558 536 q 692 285 692 403 q 608 83 692 167 q 407 0 525 0 z "},"4":{"ha":1058,"x_min":41,"x_max":1017,"o":"m 854 326 l 1017 326 l 1017 163 l 854 163 l 854 0 l 692 0 l 692 163 l 41 163 l 682 977 l 889 977 l 376 326 l 692 326 l 692 488 l 854 488 l 854 326 z "},"5":{"ha":651,"x_min":41,"x_max":610,"o":"m 610 285 q 527 83 610 167 q 326 0 444 0 q 124 83 208 0 q 41 285 41 167 l 203 285 q 239 198 203 234 q 326 163 275 163 q 412 198 376 163 q 448 285 448 234 l 448 366 q 412 453 448 417 q 326 488 376 488 l 41 488 l 199 977 l 610 977 l 610 814 l 318 814 l 265 651 l 326 651 q 527 568 444 651 q 610 366 610 484 l 610 285 z "},"6":{"ha":732,"x_min":41,"x_max":692,"o":"m 366 488 q 251 440 299 488 q 203 326 203 393 q 251 211 203 258 q 366 163 299 163 q 481 211 433 163 q 529 326 529 258 q 481 440 529 393 q 366 488 433 488 m 412 648 q 597 556 518 634 q 692 326 692 460 q 596 95 692 191 q 366 0 501 0 q 136 95 231 0 q 41 326 41 191 q 117 536 41 447 l 465 977 l 671 977 l 412 648 z "},"7":{"ha":1058,"x_min":41,"x_max":1017,"o":"m 682 814 l 41 814 l 41 977 l 1017 977 l 248 0 l 41 0 l 682 814 z "},"8":{"ha":651,"x_min":41,"x_max":610,"o":"m 326 163 q 412 198 376 163 q 448 285 448 234 q 412 371 448 336 q 326 407 376 407 q 239 371 275 407 q 203 285 203 336 q 239 198 203 234 q 326 163 275 163 m 326 570 q 412 605 376 570 q 448 692 448 641 q 412 778 448 743 q 326 814 376 814 q 239 778 275 814 q 203 692 203 743 q 239 605 203 641 q 326 570 275 570 m 525 488 l 527 486 q 610 285 610 403 q 527 83 610 167 q 326 0 444 0 q 124 83 208 0 q 41 285 41 167 q 124 486 41 403 l 126 488 l 124 490 q 41 692 41 574 q 124 893 41 810 q 326 977 208 977 q 527 893 444 977 q 610 692 610 810 q 527 490 610 574 l 525 488 z "},"9":{"ha":732,"x_min":41,"x_max":692,"o":"m 366 488 q 481 536 433 488 q 529 651 529 584 q 481 766 529 718 q 366 814 433 814 q 251 766 299 814 q 203 651 203 718 q 251 536 203 584 q 366 488 299 488 m 320 328 q 136 421 214 342 q 41 651 41 516 q 136 881 41 786 q 366 977 231 977 q 596 881 501 977 q 692 651 692 786 q 615 441 692 530 l 268 0 l 61 0 l 320 328 z "},"\u0000":{"ha":570,"x_min":41,"x_max":529,"o":"m 529 0 l 41 0 l 41 977 l 529 977 l 529 0 z "},"\u001d":{"ha":570,"x_min":41,"x_max":529,"o":"m 529 0 l 41 0 l 41 977 l 529 977 l 529 0 z "}," ":{"ha":407,"x_min":0,"x_max":0,"o":""}," ":{"ha":407,"x_min":0,"x_max":0,"o":""},"a":{"ha":1058,"x_min":41,"x_max":1017,"o":"m 41 488 q 184 833 41 690 q 529 977 327 977 q 874 833 731 977 q 1017 488 1017 690 l 1017 0 l 854 0 l 854 163 l 203 163 l 203 0 l 41 0 l 41 488 m 854 326 l 854 488 q 759 719 854 623 q 529 814 664 814 q 299 719 394 814 q 203 488 203 623 l 203 326 l 854 326 z "},"b":{"ha":732,"x_min":41,"x_max":692,"o":"m 203 570 l 244 570 q 331 605 295 570 q 366 692 366 641 q 331 778 366 743 q 244 814 295 814 l 203 814 l 203 570 m 407 163 q 493 198 458 163 q 529 285 529 234 q 493 371 529 336 q 407 407 458 407 l 203 407 l 203 163 l 407 163 m 496 556 q 608 486 558 536 q 692 285 692 403 q 608 83 692 167 q 407 0 525 0 l 41 0 l 41 977 l 244 977 q 446 893 362 977 q 529 692 529 810 q 496 556 529 617 z "},"c":{"ha":570,"x_min":41,"x_max":529,"o":"m 529 163 l 529 0 q 184 143 327 0 q 41 488 41 286 q 184 833 41 690 q 529 977 327 977 l 529 814 q 299 719 394 814 q 203 488 203 623 q 299 258 203 353 q 529 163 394 163 z "},"d":{"ha":732,"x_min":41,"x_max":692,"o":"m 203 977 q 549 833 406 977 q 692 488 692 690 q 549 143 692 286 q 203 0 406 0 l 41 0 l 41 977 l 203 977 m 203 163 q 434 258 338 163 q 529 488 529 353 q 434 719 529 623 q 203 814 338 814 l 203 163 z "},"e":{"ha":1058,"x_min":41,"x_max":1017,"o":"m 1017 977 l 1017 814 l 203 814 l 203 570 l 854 570 l 854 407 l 203 407 l 203 163 l 1017 163 l 1017 0 l 41 0 l 41 977 l 1017 977 z "},"f":{"ha":1058,"x_min":41,"x_max":1017,"o":"m 1017 977 l 1017 814 l 203 814 l 203 570 l 854 570 l 854 407 l 203 407 l 203 0 l 41 0 l 41 977 l 1017 977 z "},"g":{"ha":732,"x_min":41,"x_max":692,"o":"m 529 0 q 184 143 327 0 q 41 488 41 286 q 184 833 41 690 q 529 977 327 977 l 529 814 q 299 719 394 814 q 203 488 203 623 q 299 258 203 353 q 529 163 394 163 l 529 488 l 692 488 l 692 0 l 529 0 z "},"h":{"ha":1058,"x_min":41,"x_max":1017,"o":"m 203 407 l 203 0 l 41 0 l 41 977 l 203 977 l 203 570 l 854 570 l 854 977 l 1017 977 l 1017 0 l 854 0 l 854 407 l 203 407 z "},"i":{"ha":244,"x_min":41,"x_max":203,"o":"m 203 0 l 41 0 l 41 977 l 203 977 l 203 0 z "},"j":{"ha":570,"x_min":41,"x_max":529,"o":"m 529 488 q 386 143 529 286 q 41 0 243 0 l 41 163 q 271 258 176 163 q 366 488 366 353 l 366 977 l 529 977 l 529 488 z "},"k":{"ha":732,"x_min":41,"x_max":692,"o":"m 203 357 l 203 0 l 41 0 l 41 977 l 203 977 l 203 619 l 485 977 l 692 977 l 307 488 l 692 0 l 485 0 l 203 357 z "},"l":{"ha":1058,"x_min":41,"x_max":1017,"o":"m 41 977 l 203 977 l 203 163 l 1017 163 l 1017 0 l 41 0 l 41 977 z "},"m":{"ha":1058,"x_min":41,"x_max":1017,"o":"m 203 770 l 203 0 l 41 0 l 41 977 l 248 977 l 529 619 l 810 977 l 1017 977 l 1017 0 l 854 0 l 854 770 l 633 488 l 529 357 l 426 488 l 203 770 z "},"n":{"ha":1058,"x_min":41,"x_max":1017,"o":"m 203 770 l 203 0 l 41 0 l 41 977 l 248 977 l 854 206 l 854 977 l 1017 977 l 1017 0 l 810 0 l 203 770 z "},"o":{"ha":1058,"x_min":41,"x_max":1017,"o":"m 529 0 q 184 143 327 0 q 41 488 41 286 q 184 833 41 690 q 529 977 327 977 q 874 833 731 977 q 1017 488 1017 690 q 874 143 1017 286 q 529 0 731 0 m 529 163 q 759 258 664 163 q 854 488 854 353 q 759 719 854 623 q 529 814 664 814 q 299 719 394 814 q 203 488 203 623 q 299 258 203 353 q 529 163 394 163 z "},"p":{"ha":732,"x_min":41,"x_max":692,"o":"m 407 977 q 608 893 525 977 q 692 692 692 810 l 692 610 q 608 409 692 492 q 407 326 525 326 l 203 326 l 203 0 l 41 0 l 41 977 l 407 977 m 529 692 q 493 778 529 743 q 407 814 458 814 l 203 814 l 203 488 l 407 488 q 493 524 458 488 q 529 610 529 559 l 529 692 z "},"q":{"ha":1058,"x_min":41,"x_max":1017,"o":"m 709 216 q 760 258 736 235 q 854 488 854 353 q 759 719 854 623 q 529 814 664 814 q 299 719 394 814 q 203 488 203 623 q 299 258 203 353 q 529 163 394 163 q 555 163 543 163 q 529 326 529 239 l 692 326 q 709 216 692 267 m 642 12 q 529 0 588 0 q 184 143 327 0 q 41 488 41 286 q 184 833 41 690 q 529 977 327 977 q 874 833 731 977 q 1017 488 1017 690 q 874 143 1017 286 q 801 82 840 109 q 1017 0 892 0 l 1017 -163 q 672 -20 815 -163 q 642 12 656 -4 z "},"r":{"ha":732,"x_min":41,"x_max":692,"o":"m 407 977 q 608 893 525 977 q 692 692 692 810 l 692 610 q 608 409 692 492 q 434 327 534 335 l 692 0 l 485 0 l 228 326 l 203 326 l 203 0 l 41 0 l 41 977 l 407 977 m 529 692 q 493 778 529 743 q 407 814 458 814 l 203 814 l 203 488 l 407 488 q 493 524 458 488 q 529 610 529 559 l 529 692 z "},"s":{"ha":651,"x_min":41,"x_max":610,"o":"m 326 977 l 488 977 l 488 814 l 326 814 q 239 778 275 814 q 203 692 203 743 q 239 605 203 641 q 326 570 275 570 q 527 486 444 570 q 610 285 610 403 q 527 83 610 167 q 326 0 444 0 l 41 0 l 41 163 l 326 163 q 412 198 376 163 q 448 285 448 234 q 412 371 448 336 q 326 407 376 407 q 124 490 208 407 q 41 692 41 574 q 124 893 41 810 q 326 977 208 977 z "},"t":{"ha":1058,"x_min":41,"x_max":1017,"o":"m 1017 977 l 1017 814 l 610 814 l 610 0 l 448 0 l 448 814 l 41 814 l 41 977 l 1017 977 z "},"u":{"ha":1058,"x_min":41,"x_max":1017,"o":"m 41 488 l 41 977 l 203 977 l 203 488 q 299 258 203 353 q 529 163 394 163 q 759 258 664 163 q 854 488 854 353 l 854 977 l 1017 977 l 1017 488 q 874 143 1017 286 q 529 0 731 0 q 184 143 327 0 q 41 488 41 286 z "},"v":{"ha":895,"x_min":41,"x_max":854,"o":"m 357 0 l 41 977 l 212 977 l 448 251 l 683 977 l 854 977 l 538 0 l 357 0 z "},"w":{"ha":1221,"x_min":41,"x_max":1180,"o":"m 357 0 l 41 977 l 212 977 l 444 264 l 525 515 l 375 977 l 547 977 l 610 780 l 674 977 l 846 977 l 696 515 l 778 264 l 1008 977 l 1180 977 l 863 0 l 692 0 l 610 251 l 529 0 l 357 0 z "},"x":{"ha":1058,"x_min":41,"x_max":1017,"o":"m 633 488 l 1017 0 l 810 0 l 529 357 l 248 0 l 41 0 l 426 488 l 41 977 l 248 977 l 529 619 l 810 977 l 1017 977 l 633 488 z "},"y":{"ha":732,"x_min":41,"x_max":692,"o":"m 366 503 l 520 977 l 692 977 l 375 0 l 203 0 l 281 238 l 199 488 l 41 977 l 212 977 l 366 503 z "},"z":{"ha":1058,"x_min":41,"x_max":1017,"o":"m 682 814 l 41 814 l 41 977 l 1017 977 l 376 163 l 1017 163 l 1017 0 l 41 0 l 682 814 z "},"A":{"ha":1058,"x_min":41,"x_max":1017,"o":"m 41 488 q 184 833 41 690 q 529 977 327 977 q 874 833 731 977 q 1017 488 1017 690 l 1017 0 l 854 0 l 854 163 l 203 163 l 203 0 l 41 0 l 41 488 m 854 326 l 854 488 q 759 719 854 623 q 529 814 664 814 q 299 719 394 814 q 203 488 203 623 l 203 326 l 854 326 z "},"B":{"ha":732,"x_min":41,"x_max":692,"o":"m 203 570 l 244 570 q 331 605 295 570 q 366 692 366 641 q 331 778 366 743 q 244 814 295 814 l 203 814 l 203 570 m 407 163 q 493 198 458 163 q 529 285 529 234 q 493 371 529 336 q 407 407 458 407 l 203 407 l 203 163 l 407 163 m 496 556 q 608 486 558 536 q 692 285 692 403 q 608 83 692 167 q 407 0 525 0 l 41 0 l 41 977 l 244 977 q 446 893 362 977 q 529 692 529 810 q 496 556 529 617 z "},"C":{"ha":570,"x_min":41,"x_max":529,"o":"m 529 163 l 529 0 q 184 143 327 0 q 41 488 41 286 q 184 833 41 690 q 529 977 327 977 l 529 814 q 299 719 394 814 q 203 488 203 623 q 299 258 203 353 q 529 163 394 163 z "},"D":{"ha":732,"x_min":41,"x_max":692,"o":"m 203 977 q 549 833 406 977 q 692 488 692 690 q 549 143 692 286 q 203 0 406 0 l 41 0 l 41 977 l 203 977 m 203 163 q 434 258 338 163 q 529 488 529 353 q 434 719 529 623 q 203 814 338 814 l 203 163 z "},"E":{"ha":1058,"x_min":41,"x_max":1017,"o":"m 1017 977 l 1017 814 l 203 814 l 203 570 l 854 570 l 854 407 l 203 407 l 203 163 l 1017 163 l 1017 0 l 41 0 l 41 977 l 1017 977 z "},"F":{"ha":1058,"x_min":41,"x_max":1017,"o":"m 1017 977 l 1017 814 l 203 814 l 203 570 l 854 570 l 854 407 l 203 407 l 203 0 l 41 0 l 41 977 l 1017 977 z "},"G":{"ha":732,"x_min":41,"x_max":692,"o":"m 529 0 q 184 143 327 0 q 41 488 41 286 q 184 833 41 690 q 529 977 327 977 l 529 814 q 299 719 394 814 q 203 488 203 623 q 299 258 203 353 q 529 163 394 163 l 529 488 l 692 488 l 692 0 l 529 0 z "},"H":{"ha":1058,"x_min":41,"x_max":1017,"o":"m 203 407 l 203 0 l 41 0 l 41 977 l 203 977 l 203 570 l 854 570 l 854 977 l 1017 977 l 1017 0 l 854 0 l 854 407 l 203 407 z "},"I":{"ha":244,"x_min":41,"x_max":203,"o":"m 203 0 l 41 0 l 41 977 l 203 977 l 203 0 z "},"J":{"ha":570,"x_min":41,"x_max":529,"o":"m 529 488 q 386 143 529 286 q 41 0 243 0 l 41 163 q 271 258 176 163 q 366 488 366 353 l 366 977 l 529 977 l 529 488 z "},"K":{"ha":732,"x_min":41,"x_max":692,"o":"m 203 357 l 203 0 l 41 0 l 41 977 l 203 977 l 203 619 l 485 977 l 692 977 l 307 488 l 692 0 l 485 0 l 203 357 z "},"L":{"ha":1058,"x_min":41,"x_max":1017,"o":"m 41 977 l 203 977 l 203 163 l 1017 163 l 1017 0 l 41 0 l 41 977 z "},"M":{"ha":1058,"x_min":41,"x_max":1017,"o":"m 203 770 l 203 0 l 41 0 l 41 977 l 248 977 l 529 619 l 810 977 l 1017 977 l 1017 0 l 854 0 l 854 770 l 633 488 l 529 357 l 426 488 l 203 770 z "},"N":{"ha":1058,"x_min":41,"x_max":1017,"o":"m 203 770 l 203 0 l 41 0 l 41 977 l 248 977 l 854 206 l 854 977 l 1017 977 l 1017 0 l 810 0 l 203 770 z "},"O":{"ha":1058,"x_min":41,"x_max":1017,"o":"m 529 0 q 184 143 327 0 q 41 488 41 286 q 184 833 41 690 q 529 977 327 977 q 874 833 731 977 q 1017 488 1017 690 q 874 143 1017 286 q 529 0 731 0 m 529 163 q 759 258 664 163 q 854 488 854 353 q 759 719 854 623 q 529 814 664 814 q 299 719 394 814 q 203 488 203 623 q 299 258 203 353 q 529 163 394 163 z "},"P":{"ha":732,"x_min":41,"x_max":692,"o":"m 407 977 q 608 893 525 977 q 692 692 692 810 l 692 610 q 608 409 692 492 q 407 326 525 326 l 203 326 l 203 0 l 41 0 l 41 977 l 407 977 m 529 692 q 493 778 529 743 q 407 814 458 814 l 203 814 l 203 488 l 407 488 q 493 524 458 488 q 529 610 529 559 l 529 692 z "},"Q":{"ha":1058,"x_min":41,"x_max":1017,"o":"m 709 216 q 760 258 736 235 q 854 488 854 353 q 759 719 854 623 q 529 814 664 814 q 299 719 394 814 q 203 488 203 623 q 299 258 203 353 q 529 163 394 163 q 555 163 543 163 q 529 326 529 239 l 692 326 q 709 216 692 267 m 642 12 q 529 0 588 0 q 184 143 327 0 q 41 488 41 286 q 184 833 41 690 q 529 977 327 977 q 874 833 731 977 q 1017 488 1017 690 q 874 143 1017 286 q 801 82 840 109 q 1017 0 892 0 l 1017 -163 q 672 -20 815 -163 q 642 12 656 -4 z "},"R":{"ha":732,"x_min":41,"x_max":692,"o":"m 407 977 q 608 893 525 977 q 692 692 692 810 l 692 610 q 608 409 692 492 q 434 327 534 335 l 692 0 l 485 0 l 228 326 l 203 326 l 203 0 l 41 0 l 41 977 l 407 977 m 529 692 q 493 778 529 743 q 407 814 458 814 l 203 814 l 203 488 l 407 488 q 493 524 458 488 q 529 610 529 559 l 529 692 z "},"S":{"ha":651,"x_min":41,"x_max":610,"o":"m 326 977 l 488 977 l 488 814 l 326 814 q 239 778 275 814 q 203 692 203 743 q 239 605 203 641 q 326 570 275 570 q 527 486 444 570 q 610 285 610 403 q 527 83 610 167 q 326 0 444 0 l 41 0 l 41 163 l 326 163 q 412 198 376 163 q 448 285 448 234 q 412 371 448 336 q 326 407 376 407 q 124 490 208 407 q 41 692 41 574 q 124 893 41 810 q 326 977 208 977 z "},"T":{"ha":1058,"x_min":41,"x_max":1017,"o":"m 1017 977 l 1017 814 l 610 814 l 610 0 l 448 0 l 448 814 l 41 814 l 41 977 l 1017 977 z "},"U":{"ha":1058,"x_min":41,"x_max":1017,"o":"m 41 488 l 41 977 l 203 977 l 203 488 q 299 258 203 353 q 529 163 394 163 q 759 258 664 163 q 854 488 854 353 l 854 977 l 1017 977 l 1017 488 q 874 143 1017 286 q 529 0 731 0 q 184 143 327 0 q 41 488 41 286 z "},"V":{"ha":895,"x_min":41,"x_max":854,"o":"m 357 0 l 41 977 l 212 977 l 448 251 l 683 977 l 854 977 l 538 0 l 357 0 z "},"W":{"ha":1221,"x_min":41,"x_max":1180,"o":"m 357 0 l 41 977 l 212 977 l 444 264 l 525 515 l 375 977 l 547 977 l 610 780 l 674 977 l 846 977 l 696 515 l 778 264 l 1008 977 l 1180 977 l 863 0 l 692 0 l 610 251 l 529 0 l 357 0 z "},"X":{"ha":1058,"x_min":41,"x_max":1017,"o":"m 633 488 l 1017 0 l 810 0 l 529 357 l 248 0 l 41 0 l 426 488 l 41 977 l 248 977 l 529 619 l 810 977 l 1017 977 l 633 488 z "},"Y":{"ha":732,"x_min":41,"x_max":692,"o":"m 366 503 l 520 977 l 692 977 l 375 0 l 203 0 l 281 238 l 199 488 l 41 977 l 212 977 l 366 503 z "},"Z":{"ha":1058,"x_min":41,"x_max":1017,"o":"m 682 814 l 41 814 l 41 977 l 1017 977 l 376 163 l 1017 163 l 1017 0 l 41 0 l 682 814 z "},".":{"ha":326,"x_min":41,"x_max":285,"o":"m 285 0 l 41 0 l 41 244 l 285 244 l 285 0 z "},":":{"ha":326,"x_min":41,"x_max":285,"o":"m 285 0 l 41 0 l 41 244 l 285 244 l 285 0 m 285 488 l 41 488 l 41 732 l 285 732 l 285 488 z "},",":{"ha":326,"x_min":41,"x_max":285,"o":"m 122 0 l 41 0 l 41 244 l 285 244 l 285 81 l 163 -163 l 41 -163 l 122 0 z "},";":{"ha":326,"x_min":41,"x_max":285,"o":"m 285 488 l 41 488 l 41 732 l 285 732 l 285 488 m 122 0 l 41 0 l 41 244 l 285 244 l 285 81 l 163 -163 l 41 -163 l 122 0 z "},"'":{"ha":326,"x_min":41,"x_max":285,"o":"m 122 732 l 41 732 l 41 977 l 285 977 l 285 814 l 163 570 l 41 570 l 122 732 z "},"\"":{"ha":651,"x_min":41,"x_max":610,"o":"m 122 732 l 41 732 l 41 977 l 285 977 l 285 814 l 163 570 l 41 570 l 122 732 m 448 732 l 366 732 l 366 977 l 610 977 l 610 814 l 488 570 l 366 570 l 448 732 z "},"(":{"ha":529,"x_min":41,"x_max":326,"o":"m 203 122 q 239 36 203 71 q 326 0 275 0 l 326 -163 q 124 -79 208 -163 q 41 122 41 4 l 41 854 q 124 1056 41 972 q 326 1139 208 1139 l 326 977 q 239 941 275 977 q 203 854 203 905 l 203 122 z "},"!":{"ha":244,"x_min":41,"x_max":203,"o":"m 203 0 l 41 0 l 41 163 l 203 163 l 203 0 m 203 285 l 41 285 l 41 977 l 203 977 l 203 285 z "},"?":{"ha":651,"x_min":41,"x_max":610,"o":"m 326 407 q 239 371 275 407 q 203 285 203 336 l 41 285 q 124 486 41 403 q 326 570 208 570 q 412 605 376 570 q 448 692 448 641 q 412 778 448 743 q 326 814 376 814 q 239 778 275 814 q 203 692 203 743 l 41 692 q 124 893 41 810 q 326 977 208 977 q 527 893 444 977 q 610 692 610 810 q 527 490 610 574 q 326 407 444 407 m 203 0 l 41 0 l 41 163 l 203 163 l 203 0 z "},")":{"ha":529,"x_min":203,"x_max":488,"o":"m 488 122 q 405 -79 488 4 q 203 -163 321 -163 l 203 0 q 290 36 254 0 q 326 122 326 71 l 326 854 q 290 941 326 905 q 203 977 254 977 l 203 1139 q 405 1056 321 1139 q 488 854 488 972 l 488 122 z "},"+":{"ha":570,"x_min":41,"x_max":529,"o":"m 366 570 l 529 570 l 529 407 l 366 407 l 366 244 l 203 244 l 203 407 l 41 407 l 41 570 l 203 570 l 203 732 l 366 732 l 366 570 z "},"-":{"ha":570,"x_min":41,"x_max":529,"o":"m 529 407 l 41 407 l 41 570 l 529 570 l 529 407 z "},"*":{"ha":570,"x_min":41,"x_max":529,"o":"m 383 692 l 486 589 l 429 531 l 326 634 l 326 488 l 244 488 l 244 634 l 141 531 l 83 589 l 186 692 l 41 692 l 41 773 l 186 773 l 83 876 l 141 934 l 244 831 l 244 977 l 326 977 l 326 831 l 429 934 l 486 876 l 383 773 l 529 773 l 529 692 l 383 692 z "},"/":{"ha":1058,"x_min":41,"x_max":1017,"o":"m 248 0 l 41 0 l 810 977 l 1017 977 l 248 0 z "},"=":{"ha":570,"x_min":41,"x_max":529,"o":"m 529 570 l 41 570 l 41 732 l 529 732 l 529 570 m 529 244 l 41 244 l 41 407 l 529 407 l 529 244 z "},"\\":{"ha":1058,"x_min":41,"x_max":1017,"o":"m 810 0 l 41 977 l 248 977 l 1017 0 l 810 0 z "},"�":{"ha":570,"x_min":41,"x_max":529,"o":"m 529 0 l 41 0 l 41 977 l 529 977 l 529 0 z "},"☡":{"ha":1058,"x_min":41,"x_max":1017,"o":"m 448 804 q 299 719 364 784 q 203 488 203 623 l 203 0 l 41 0 l 41 488 q 184 833 41 690 q 529 977 327 977 l 610 977 l 610 163 l 1017 163 l 1017 0 l 448 0 l 448 804 z "},"|":{"ha":570,"x_min":203,"x_max":366,"o":"m 366 -163 l 203 -163 l 203 1139 l 366 1139 l 366 -163 z "},"[":{"ha":529,"x_min":41,"x_max":366,"o":"m 203 0 l 366 0 l 366 -163 l 41 -163 l 41 1139 l 366 1139 l 366 977 l 203 977 l 203 0 z "},"]":{"ha":529,"x_min":163,"x_max":488,"o":"m 163 -163 l 163 0 l 326 0 l 326 977 l 163 977 l 163 1139 l 488 1139 l 488 -163 l 163 -163 z "},"_":{"ha":570,"x_min":41,"x_max":529,"o":"m 529 -163 l 41 -163 l 41 0 l 529 0 l 529 -163 z "},"‾":{"ha":570,"x_min":41,"x_max":529,"o":"m 529 977 l 41 977 l 41 1139 l 529 1139 l 529 977 z "},"…":{"ha":977,"x_min":41,"x_max":936,"o":"m 285 0 l 41 0 l 41 244 l 285 244 l 285 0 m 610 0 l 366 0 l 366 244 l 610 244 l 610 0 m 936 0 l 692 0 l 692 244 l 936 244 l 936 0 z "},"­":{"ha":570,"x_min":41,"x_max":529,"o":"m 529 407 l 41 407 l 41 570 l 529 570 l 529 407 z "},"−":{"ha":570,"x_min":41,"x_max":529,"o":"m 529 407 l 41 407 l 41 570 l 529 570 l 529 407 z "},"‒":{"ha":570,"x_min":41,"x_max":529,"o":"m 529 407 l 41 407 l 41 570 l 529 570 l 529 407 z "},"–":{"ha":570,"x_min":41,"x_max":529,"o":"m 529 407 l 41 407 l 41 570 l 529 570 l 529 407 z "},"—":{"ha":895,"x_min":41,"x_max":854,"o":"m 854 407 l 41 407 l 41 570 l 854 570 l 854 407 z "},"―":{"ha":1058,"x_min":41,"x_max":1017,"o":"m 1017 407 l 41 407 l 41 570 l 1017 570 l 1017 407 z "},"ʹ":{"ha":326,"x_min":41,"x_max":285,"o":"m 122 732 l 41 732 l 41 977 l 285 977 l 285 814 l 163 570 l 41 570 l 122 732 z "},"ʺ":{"ha":651,"x_min":41,"x_max":610,"o":"m 122 732 l 41 732 l 41 977 l 285 977 l 285 814 l 163 570 l 41 570 l 122 732 m 448 732 l 366 732 l 366 977 l 610 977 l 610 814 l 488 570 l 366 570 l 448 732 z "},"ʻ":{"ha":326,"x_min":41,"x_max":285,"o":"m 203 814 l 285 814 l 285 570 l 41 570 l 41 732 l 163 977 l 285 977 l 203 814 z "},"ʼ":{"ha":326,"x_min":41,"x_max":285,"o":"m 122 732 l 41 732 l 41 977 l 285 977 l 285 814 l 163 570 l 41 570 l 122 732 z "},"ʽ":{"ha":326,"x_min":41,"x_max":285,"o":"m 203 732 l 285 570 l 163 570 l 41 814 l 41 977 l 285 977 l 285 732 l 203 732 z "},"‘":{"ha":326,"x_min":41,"x_max":285,"o":"m 203 814 l 285 814 l 285 570 l 41 570 l 41 732 l 163 977 l 285 977 l 203 814 z "},"’":{"ha":326,"x_min":41,"x_max":285,"o":"m 122 732 l 41 732 l 41 977 l 285 977 l 285 814 l 163 570 l 41 570 l 122 732 z "},"‚":{"ha":326,"x_min":41,"x_max":285,"o":"m 122 0 l 41 0 l 41 244 l 285 244 l 285 81 l 163 -163 l 41 -163 l 122 0 z "},"‛":{"ha":326,"x_min":41,"x_max":285,"o":"m 203 732 l 285 570 l 163 570 l 41 814 l 41 977 l 285 977 l 285 732 l 203 732 z "},"“":{"ha":651,"x_min":41,"x_max":610,"o":"m 203 814 l 285 814 l 285 570 l 41 570 l 41 732 l 163 977 l 285 977 l 203 814 m 529 814 l 610 814 l 610 570 l 366 570 l 366 732 l 488 977 l 610 977 l 529 814 z "},"”":{"ha":651,"x_min":41,"x_max":610,"o":"m 122 732 l 41 732 l 41 977 l 285 977 l 285 814 l 163 570 l 41 570 l 122 732 m 448 732 l 366 732 l 366 977 l 610 977 l 610 814 l 488 570 l 366 570 l 448 732 z "},"„":{"ha":651,"x_min":41,"x_max":610,"o":"m 122 0 l 41 0 l 41 244 l 285 244 l 285 81 l 163 -163 l 41 -163 l 122 0 m 448 0 l 366 0 l 366 244 l 610 244 l 610 81 l 488 -163 l 366 -163 l 448 0 z "},"‟":{"ha":651,"x_min":41,"x_max":610,"o":"m 203 732 l 285 570 l 163 570 l 41 814 l 41 977 l 285 977 l 285 732 l 203 732 m 529 732 l 610 570 l 488 570 l 366 814 l 366 977 l 610 977 l 610 732 l 529 732 z "},"⁄":{"ha":1058,"x_min":41,"x_max":1017,"o":"m 248 0 l 41 0 l 810 977 l 1017 977 l 248 0 z "},"∕":{"ha":1058,"x_min":41,"x_max":1017,"o":"m 248 0 l 41 0 l 810 977 l 1017 977 l 248 0 z "},"·":{"ha":326,"x_min":41,"x_max":285,"o":"m 285 366 l 41 366 l 41 610 l 285 610 l 285 366 z "},"∙":{"ha":326,"x_min":41,"x_max":285,"o":"m 285 366 l 41 366 l 41 610 l 285 610 l 285 366 z "},"%":{"ha":1058,"x_min":41,"x_max":1017,"o":"m 248 0 l 41 0 l 810 977 l 1017 977 l 248 0 m 285 488 q 112 560 184 488 q 41 732 41 631 q 112 905 41 833 q 285 977 184 977 q 457 905 386 977 q 529 732 529 833 q 457 560 529 631 q 285 488 386 488 m 285 651 q 342 675 319 651 q 366 732 366 699 q 342 790 366 766 q 285 814 319 814 q 227 790 251 814 q 203 732 203 766 q 227 675 203 699 q 285 651 251 651 m 773 0 q 601 72 672 0 q 529 244 529 143 q 601 417 529 345 q 773 488 672 488 q 946 417 874 488 q 1017 244 1017 345 q 946 72 1017 143 q 773 0 874 0 m 773 163 q 831 186 807 163 q 854 244 854 210 q 831 302 854 278 q 773 326 807 326 q 715 302 739 326 q 692 244 692 278 q 715 186 692 210 q 773 163 739 163 z "},"$":{"ha":651,"x_min":41,"x_max":610,"o":"m 285 576 l 285 807 q 239 779 260 799 q 203 692 203 743 q 239 606 203 641 q 285 576 260 585 m 366 170 q 412 199 391 178 q 448 285 448 234 q 412 372 448 336 q 366 400 391 392 l 366 170 m 285 410 q 124 490 193 422 q 41 692 41 574 q 124 893 41 810 q 285 974 193 962 l 285 1139 l 366 1139 l 366 977 l 488 977 l 488 814 l 366 814 l 366 567 q 527 486 458 555 q 610 285 610 403 q 527 83 610 167 q 366 3 458 15 l 366 -163 l 285 -163 l 285 0 l 41 0 l 41 163 l 285 163 l 285 410 z "},"¢":{"ha":570,"x_min":41,"x_max":529,"o":"m 407 163 l 529 163 l 529 0 l 407 0 l 407 -163 l 326 -163 l 326 0 q 124 83 208 0 q 41 285 41 167 l 41 529 q 124 730 41 647 q 326 814 208 814 l 326 977 l 407 977 l 407 814 l 529 814 l 529 651 l 407 651 l 407 163 m 326 163 l 326 651 q 239 615 275 651 q 203 529 203 580 l 203 285 q 239 198 203 234 q 326 163 275 163 z "},"₵":{"ha":570,"x_min":41,"x_max":529,"o":"m 326 234 l 326 743 q 299 719 312 732 q 203 488 203 623 q 299 258 203 353 q 326 234 312 245 m 407 185 q 529 163 463 163 l 529 0 q 407 14 465 0 l 407 -163 l 326 -163 l 326 43 q 184 143 249 78 q 41 488 41 286 q 184 833 41 690 q 326 934 249 899 l 326 1139 l 407 1139 l 407 962 q 529 977 465 977 l 529 814 q 407 791 463 814 l 407 185 z "},"₸":{"ha":570,"x_min":41,"x_max":529,"o":"m 529 814 l 41 814 l 41 977 l 529 977 l 529 814 m 366 488 l 366 0 l 203 0 l 203 488 l 41 488 l 41 651 l 529 651 l 529 488 l 366 488 z "},"€":{"ha":732,"x_min":41,"x_max":692,"o":"m 218 610 q 347 833 249 736 q 692 977 490 977 l 692 814 q 462 719 557 814 q 389 610 412 669 l 570 610 l 570 529 l 368 529 q 366 488 366 509 q 368 448 366 467 l 570 448 l 570 366 l 389 366 q 462 258 412 307 q 692 163 557 163 l 692 0 q 347 143 490 0 q 218 366 249 241 l 41 366 l 41 448 l 205 448 q 203 488 203 468 q 205 529 203 509 l 41 529 l 41 610 l 218 610 z "},"₽":{"ha":732,"x_min":41,"x_max":692,"o":"m 407 977 q 608 893 525 977 q 692 692 692 810 l 692 610 q 608 409 692 492 q 407 326 525 326 l 285 326 l 285 244 l 570 244 l 570 163 l 285 163 l 285 0 l 122 0 l 122 163 l 41 163 l 41 244 l 122 244 l 122 326 l 41 326 l 41 488 l 122 488 l 122 977 l 407 977 m 529 692 q 493 778 529 743 q 407 814 458 814 l 285 814 l 285 488 l 407 488 q 493 524 458 488 q 529 610 529 559 l 529 692 z "},"•":{"ha":407,"x_min":41,"x_max":366,"o":"m 203 326 q 89 373 136 326 q 41 488 41 421 q 89 603 41 555 q 203 651 136 651 q 318 603 271 651 q 366 488 366 555 q 318 373 366 421 q 203 326 271 326 z "},"†":{"ha":570,"x_min":41,"x_max":529,"o":"m 366 651 l 366 -163 l 203 -163 l 203 651 l 41 651 l 41 814 l 203 814 l 203 977 l 366 977 l 366 814 l 529 814 l 529 651 l 366 651 z "},"‡":{"ha":570,"x_min":41,"x_max":529,"o":"m 203 814 l 203 977 l 366 977 l 366 814 l 529 814 l 529 651 l 366 651 l 366 163 l 529 163 l 529 0 l 366 0 l 366 -163 l 203 -163 l 203 0 l 41 0 l 41 163 l 203 163 l 203 651 l 41 651 l 41 814 l 203 814 z "},"¦":{"ha":570,"x_min":203,"x_max":366,"o":"m 366 326 l 366 -163 l 203 -163 l 203 326 l 366 326 m 203 651 l 203 1139 l 366 1139 l 366 651 l 203 651 z "},"¡":{"ha":244,"x_min":41,"x_max":203,"o":"m 41 814 l 203 814 l 203 651 l 41 651 l 41 814 m 41 529 l 203 529 l 203 -163 l 41 -163 l 41 529 z "},"¿":{"ha":651,"x_min":41,"x_max":610,"o":"m 326 407 q 412 443 376 407 q 448 529 448 478 l 610 529 q 527 328 610 411 q 326 244 444 244 q 239 209 275 244 q 203 122 203 173 q 239 36 203 71 q 326 0 275 0 q 412 36 376 0 q 448 122 448 71 l 610 122 q 527 -79 610 4 q 326 -163 444 -163 q 124 -79 208 -163 q 41 122 41 4 q 124 323 41 240 q 326 407 208 407 m 448 814 l 610 814 l 610 651 l 448 651 l 448 814 z "},"#":{"ha":854,"x_min":41,"x_max":814,"o":"m 682 570 l 629 407 l 814 407 l 814 244 l 576 244 l 497 0 l 326 0 l 405 244 l 292 244 l 212 0 l 41 0 l 120 244 l 41 244 l 41 407 l 173 407 l 225 570 l 41 570 l 41 732 l 278 732 l 357 977 l 529 977 l 450 732 l 563 732 l 642 977 l 814 977 l 734 732 l 814 732 l 814 570 l 682 570 m 458 407 l 510 570 l 397 570 l 345 407 l 458 407 z "},"±":{"ha":570,"x_min":41,"x_max":529,"o":"m 366 570 l 529 570 l 529 407 l 366 407 l 366 244 l 203 244 l 203 407 l 41 407 l 41 570 l 203 570 l 203 732 l 366 732 l 366 570 m 529 0 l 41 0 l 41 163 l 529 163 l 529 0 z "},"×":{"ha":570,"x_min":55,"x_max":515,"o":"m 285 603 l 400 718 l 515 604 l 399 488 l 515 373 l 400 258 l 285 374 l 170 258 l 55 373 l 170 488 l 55 604 l 170 718 l 285 603 z "},"÷":{"ha":570,"x_min":41,"x_max":529,"o":"m 366 326 l 366 163 l 203 163 l 203 326 l 366 326 m 41 570 l 529 570 l 529 407 l 41 407 l 41 570 m 203 651 l 203 814 l 366 814 l 366 651 l 203 651 z "},"°":{"ha":651,"x_min":41,"x_max":610,"o":"m 326 407 q 124 490 208 407 q 41 692 41 574 q 124 893 41 810 q 326 977 208 977 q 527 893 444 977 q 610 692 610 810 q 527 490 610 574 q 326 407 444 407 m 326 570 q 412 605 376 570 q 448 692 448 641 q 412 778 448 743 q 326 814 376 814 q 239 778 275 814 q 203 692 203 743 q 239 605 203 641 q 326 570 275 570 z "},"µ":{"ha":1058,"x_min":41,"x_max":1017,"o":"m 203 488 q 299 258 203 353 q 529 163 394 163 q 759 258 664 163 q 854 488 854 353 l 854 814 l 1017 814 l 1017 488 q 874 143 1017 286 q 529 0 731 0 q 203 124 340 0 l 203 -163 l 41 -163 l 41 814 l 203 814 l 203 488 z "},"©":{"ha":1058,"x_min":41,"x_max":1017,"o":"m 549 732 q 650 691 608 732 q 692 590 692 649 l 610 590 q 593 633 610 616 q 549 651 575 651 l 509 651 q 466 633 484 651 q 448 590 448 616 l 448 387 q 466 343 448 361 q 509 326 484 326 l 549 326 q 593 343 575 326 q 610 387 610 361 l 692 387 q 650 286 692 328 q 549 244 608 244 l 509 244 q 408 286 450 244 q 366 387 366 328 l 366 590 q 408 691 366 649 q 509 732 450 732 l 549 732 m 529 81 q 817 200 698 81 q 936 488 936 319 q 817 776 936 657 q 529 895 698 895 q 241 776 360 895 q 122 488 122 657 q 241 200 122 319 q 529 81 360 81 m 529 0 q 184 143 327 0 q 41 488 41 286 q 184 833 41 690 q 529 977 327 977 q 874 833 731 977 q 1017 488 1017 690 q 874 143 1017 286 q 529 0 731 0 z "},"®":{"ha":1058,"x_min":41,"x_max":1017,"o":"m 570 732 q 670 691 629 732 q 712 590 712 649 l 712 549 q 671 449 712 490 q 583 408 633 412 l 712 244 l 609 244 l 480 407 l 468 407 l 468 244 l 387 244 l 387 732 l 570 732 m 631 590 q 613 633 631 616 q 570 651 595 651 l 468 651 l 468 488 l 570 488 q 613 506 595 488 q 631 549 631 524 l 631 590 m 529 81 q 817 200 698 81 q 936 488 936 319 q 817 776 936 657 q 529 895 698 895 q 241 776 360 895 q 122 488 122 657 q 241 200 122 319 q 529 81 360 81 m 529 0 q 184 143 327 0 q 41 488 41 286 q 184 833 41 690 q 529 977 327 977 q 874 833 731 977 q 1017 488 1017 690 q 874 143 1017 286 q 529 0 731 0 z "},"℗":{"ha":1058,"x_min":41,"x_max":1017,"o":"m 570 732 q 670 691 629 732 q 712 590 712 649 l 712 549 q 670 449 712 490 q 570 407 629 407 l 468 407 l 468 244 l 387 244 l 387 732 l 570 732 m 631 590 q 613 633 631 616 q 570 651 595 651 l 468 651 l 468 488 l 570 488 q 613 506 595 488 q 631 549 631 524 l 631 590 m 529 81 q 817 200 698 81 q 936 488 936 319 q 817 776 936 657 q 529 895 698 895 q 241 776 360 895 q 122 488 122 657 q 241 200 122 319 q 529 81 360 81 m 529 0 q 184 143 327 0 q 41 488 41 286 q 184 833 41 690 q 529 977 327 977 q 874 833 731 977 q 1017 488 1017 690 q 874 143 1017 286 q 529 0 731 0 z "},"@":{"ha":854,"x_min":41,"x_max":814,"o":"m 326 163 q 412 198 376 163 q 448 285 448 234 q 412 371 448 336 q 326 407 376 407 q 239 371 275 407 q 203 285 203 336 q 239 198 203 234 q 326 163 275 163 m 203 854 l 203 651 l 41 651 l 41 854 q 124 1056 41 972 q 326 1139 208 1139 l 529 1139 q 730 1056 647 1139 q 814 854 814 972 l 814 285 q 730 83 814 167 q 529 0 647 0 l 326 0 q 124 83 208 0 q 41 285 41 167 q 124 486 41 403 q 326 570 208 570 q 527 486 444 570 q 610 285 610 403 q 591 179 610 228 q 616 199 604 187 q 651 285 651 234 l 651 854 q 615 941 651 905 q 529 977 580 977 l 326 977 q 239 941 275 977 q 203 854 203 905 z "},"Ø":{"ha":1058,"x_min":41,"x_max":1017,"o":"m 397 190 q 529 163 457 163 q 759 258 664 163 q 854 488 854 353 q 788 686 854 601 l 397 190 m 270 291 l 661 787 q 529 814 601 814 q 299 719 394 814 q 203 488 203 623 q 270 291 203 376 m 891 816 q 1017 488 1017 678 q 874 143 1017 286 q 529 0 731 0 q 294 59 399 0 l 248 0 l 41 0 l 167 161 q 41 488 41 298 q 184 833 41 690 q 529 977 327 977 q 764 918 659 977 l 810 977 l 1017 977 l 891 816 z "},"ø":{"ha":1058,"x_min":41,"x_max":1017,"o":"m 397 190 q 529 163 457 163 q 759 258 664 163 q 854 488 854 353 q 788 686 854 601 l 397 190 m 270 291 l 661 787 q 529 814 601 814 q 299 719 394 814 q 203 488 203 623 q 270 291 203 376 m 891 816 q 1017 488 1017 678 q 874 143 1017 286 q 529 0 731 0 q 294 59 399 0 l 248 0 l 41 0 l 167 161 q 41 488 41 298 q 184 833 41 690 q 529 977 327 977 q 764 918 659 977 l 810 977 l 1017 977 l 891 816 z "},"Æ":{"ha":1058,"x_min":41,"x_max":1017,"o":"m 1017 977 l 1017 814 l 610 814 l 610 570 l 854 570 l 854 407 l 610 407 l 610 163 l 1017 163 l 1017 0 l 448 0 l 448 163 l 203 163 l 203 0 l 41 0 l 41 488 q 184 833 41 690 q 515 977 322 972 l 1017 977 m 448 326 l 448 804 q 299 719 364 784 q 203 488 203 623 l 203 326 l 448 326 z "},"æ":{"ha":1058,"x_min":41,"x_max":1017,"o":"m 1017 977 l 1017 814 l 610 814 l 610 570 l 854 570 l 854 407 l 610 407 l 610 163 l 1017 163 l 1017 0 l 448 0 l 448 163 l 203 163 l 203 0 l 41 0 l 41 488 q 184 833 41 690 q 515 977 322 972 l 1017 977 m 448 326 l 448 804 q 299 719 364 784 q 203 488 203 623 l 203 326 l 448 326 z "},"Œ":{"ha":1058,"x_min":41,"x_max":1017,"o":"m 1017 977 l 1017 814 l 610 814 l 610 570 l 854 570 l 854 407 l 610 407 l 610 163 l 1017 163 l 1017 0 l 515 0 q 184 143 322 5 q 41 488 41 286 q 184 833 41 690 q 515 977 322 972 l 1017 977 m 448 172 l 448 804 q 299 719 364 784 q 203 488 203 623 q 299 258 203 353 q 448 172 364 193 z "},"œ":{"ha":1058,"x_min":41,"x_max":1017,"o":"m 1017 977 l 1017 814 l 610 814 l 610 570 l 854 570 l 854 407 l 610 407 l 610 163 l 1017 163 l 1017 0 l 515 0 q 184 143 322 5 q 41 488 41 286 q 184 833 41 690 q 515 977 322 972 l 1017 977 m 448 172 l 448 804 q 299 719 364 784 q 203 488 203 623 q 299 258 203 353 q 448 172 364 193 z "},"<":{"ha":732,"x_min":41,"x_max":692,"o":"m 692 191 l 41 402 l 41 574 l 692 785 l 692 614 l 305 488 l 692 363 l 692 191 z "},">":{"ha":732,"x_min":41,"x_max":692,"o":"m 41 191 l 41 363 l 427 488 l 41 614 l 41 785 l 692 574 l 692 402 l 41 191 z "},"^":{"ha":570,"x_min":41,"x_max":529,"o":"m 41 488 l 199 977 l 371 977 l 529 488 l 357 488 l 285 712 l 212 488 l 41 488 z "},"¬":{"ha":570,"x_min":41,"x_max":529,"o":"m 366 407 l 41 407 l 41 570 l 529 570 l 529 244 l 366 244 l 366 407 z "},"⌐":{"ha":570,"x_min":41,"x_max":529,"o":"m 41 570 l 529 570 l 529 407 l 203 407 l 203 244 l 41 244 l 41 570 z "},"«":{"ha":651,"x_min":41,"x_max":610,"o":"m 285 0 l 41 159 l 41 330 l 285 488 l 285 317 l 173 244 l 285 172 l 285 0 m 610 0 l 366 159 l 366 330 l 610 488 l 610 317 l 498 244 l 610 172 l 610 0 z "},"»":{"ha":651,"x_min":41,"x_max":610,"o":"m 366 0 l 366 172 l 478 244 l 366 317 l 366 488 l 610 330 l 610 159 l 366 0 m 41 0 l 41 172 l 153 244 l 41 317 l 41 488 l 285 330 l 285 159 l 41 0 z "},"‹":{"ha":326,"x_min":41,"x_max":285,"o":"m 285 0 l 41 159 l 41 330 l 285 488 l 285 317 l 173 244 l 285 172 l 285 0 z "},"›":{"ha":326,"x_min":41,"x_max":285,"o":"m 41 0 l 41 172 l 153 244 l 41 317 l 41 488 l 285 330 l 285 159 l 41 0 z "},"™":{"ha":1058,"x_min":41,"x_max":1017,"o":"m 448 977 l 448 895 l 285 895 l 285 488 l 203 488 l 203 895 l 41 895 l 41 977 l 448 977 m 610 873 l 610 488 l 529 488 l 529 977 l 633 977 l 773 798 l 914 977 l 1017 977 l 1017 488 l 936 488 l 936 873 l 825 732 l 773 667 l 722 732 l 610 873 z "},"¯":{"ha":570,"x_min":41,"x_max":529,"o":"m 529 1058 l 41 1058 l 41 1139 l 529 1139 l 529 1058 z "},"Ā":{"ha":1058,"x_min":41,"x_max":1017,"o":"m 41 488 q 184 833 41 690 q 529 977 327 977 q 874 833 731 977 q 1017 488 1017 690 l 1017 0 l 854 0 l 854 163 l 203 163 l 203 0 l 41 0 l 41 488 m 773 1058 l 285 1058 l 285 1139 l 773 1139 l 773 1058 m 854 326 l 854 488 q 759 719 854 623 q 529 814 664 814 q 299 719 394 814 q 203 488 203 623 l 203 326 l 854 326 z "},"ā":{"ha":1058,"x_min":41,"x_max":1017,"o":"m 41 488 q 184 833 41 690 q 529 977 327 977 q 874 833 731 977 q 1017 488 1017 690 l 1017 0 l 854 0 l 854 163 l 203 163 l 203 0 l 41 0 l 41 488 m 773 1058 l 285 1058 l 285 1139 l 773 1139 l 773 1058 m 854 326 l 854 488 q 759 719 854 623 q 529 814 664 814 q 299 719 394 814 q 203 488 203 623 l 203 326 l 854 326 z "},"Ē":{"ha":1058,"x_min":41,"x_max":1017,"o":"m 1017 977 l 1017 814 l 203 814 l 203 570 l 854 570 l 854 407 l 203 407 l 203 163 l 1017 163 l 1017 0 l 41 0 l 41 977 l 1017 977 m 773 1058 l 285 1058 l 285 1139 l 773 1139 l 773 1058 z "},"ē":{"ha":1058,"x_min":41,"x_max":1017,"o":"m 1017 977 l 1017 814 l 203 814 l 203 570 l 854 570 l 854 407 l 203 407 l 203 163 l 1017 163 l 1017 0 l 41 0 l 41 977 l 1017 977 m 773 1058 l 285 1058 l 285 1139 l 773 1139 l 773 1058 z "},"Ī":{"ha":244,"x_min":-41,"x_max":285,"o":"m 203 0 l 41 0 l 41 977 l 203 977 l 203 0 m 285 1058 l -41 1058 l -41 1139 l 285 1139 l 285 1058 z "},"ī":{"ha":244,"x_min":-41,"x_max":285,"o":"m 203 0 l 41 0 l 41 977 l 203 977 l 203 0 m 285 1058 l -41 1058 l -41 1139 l 285 1139 l 285 1058 z "},"Ō":{"ha":1058,"x_min":41,"x_max":1017,"o":"m 529 0 q 184 143 327 0 q 41 488 41 286 q 184 833 41 690 q 529 977 327 977 q 874 833 731 977 q 1017 488 1017 690 q 874 143 1017 286 q 529 0 731 0 m 529 163 q 759 258 664 163 q 854 488 854 353 q 759 719 854 623 q 529 814 664 814 q 299 719 394 814 q 203 488 203 623 q 299 258 203 353 q 529 163 394 163 m 773 1058 l 285 1058 l 285 1139 l 773 1139 l 773 1058 z "},"ō":{"ha":1058,"x_min":41,"x_max":1017,"o":"m 529 0 q 184 143 327 0 q 41 488 41 286 q 184 833 41 690 q 529 977 327 977 q 874 833 731 977 q 1017 488 1017 690 q 874 143 1017 286 q 529 0 731 0 m 529 163 q 759 258 664 163 q 854 488 854 353 q 759 719 854 623 q 529 814 664 814 q 299 719 394 814 q 203 488 203 623 q 299 258 203 353 q 529 163 394 163 m 773 1058 l 285 1058 l 285 1139 l 773 1139 l 773 1058 z "},"Ū":{"ha":1058,"x_min":41,"x_max":1017,"o":"m 41 488 l 41 977 l 203 977 l 203 488 q 299 258 203 353 q 529 163 394 163 q 759 258 664 163 q 854 488 854 353 l 854 977 l 1017 977 l 1017 488 q 874 143 1017 286 q 529 0 731 0 q 184 143 327 0 q 41 488 41 286 m 773 1058 l 285 1058 l 285 1139 l 773 1139 l 773 1058 z "},"ū":{"ha":1058,"x_min":41,"x_max":1017,"o":"m 41 488 l 41 977 l 203 977 l 203 488 q 299 258 203 353 q 529 163 394 163 q 759 258 664 163 q 854 488 854 353 l 854 977 l 1017 977 l 1017 488 q 874 143 1017 286 q 529 0 731 0 q 184 143 327 0 q 41 488 41 286 m 773 1058 l 285 1058 l 285 1139 l 773 1139 l 773 1058 z "},"¨":{"ha":570,"x_min":41,"x_max":529,"o":"m 529 1058 l 366 1058 l 366 1139 l 529 1139 l 529 1058 m 203 1058 l 41 1058 l 41 1139 l 203 1139 l 203 1058 z "},"Ä":{"ha":1058,"x_min":41,"x_max":1017,"o":"m 41 488 q 184 833 41 690 q 529 977 327 977 q 874 833 731 977 q 1017 488 1017 690 l 1017 0 l 854 0 l 854 163 l 203 163 l 203 0 l 41 0 l 41 488 m 448 1058 l 285 1058 l 285 1139 l 448 1139 l 448 1058 m 773 1058 l 610 1058 l 610 1139 l 773 1139 l 773 1058 m 854 326 l 854 488 q 759 719 854 623 q 529 814 664 814 q 299 719 394 814 q 203 488 203 623 l 203 326 l 854 326 z "},"ä":{"ha":1058,"x_min":41,"x_max":1017,"o":"m 41 488 q 184 833 41 690 q 529 977 327 977 q 874 833 731 977 q 1017 488 1017 690 l 1017 0 l 854 0 l 854 163 l 203 163 l 203 0 l 41 0 l 41 488 m 448 1058 l 285 1058 l 285 1139 l 448 1139 l 448 1058 m 773 1058 l 610 1058 l 610 1139 l 773 1139 l 773 1058 m 854 326 l 854 488 q 759 719 854 623 q 529 814 664 814 q 299 719 394 814 q 203 488 203 623 l 203 326 l 854 326 z "},"Ë":{"ha":1058,"x_min":41,"x_max":1017,"o":"m 1017 977 l 1017 814 l 203 814 l 203 570 l 854 570 l 854 407 l 203 407 l 203 163 l 1017 163 l 1017 0 l 41 0 l 41 977 l 1017 977 m 448 1058 l 285 1058 l 285 1139 l 448 1139 l 448 1058 m 773 1058 l 610 1058 l 610 1139 l 773 1139 l 773 1058 z "},"ë":{"ha":1058,"x_min":41,"x_max":1017,"o":"m 1017 977 l 1017 814 l 203 814 l 203 570 l 854 570 l 854 407 l 203 407 l 203 163 l 1017 163 l 1017 0 l 41 0 l 41 977 l 1017 977 m 448 1058 l 285 1058 l 285 1139 l 448 1139 l 448 1058 m 773 1058 l 610 1058 l 610 1139 l 773 1139 l 773 1058 z "},"Ï":{"ha":244,"x_min":-81,"x_max":326,"o":"m 203 0 l 41 0 l 41 977 l 203 977 l 203 0 m 326 1058 l 163 1058 l 163 1139 l 326 1139 l 326 1058 m 81 1058 l -81 1058 l -81 1139 l 81 1139 l 81 1058 z "},"ï":{"ha":244,"x_min":-81,"x_max":326,"o":"m 203 0 l 41 0 l 41 977 l 203 977 l 203 0 m 326 1058 l 163 1058 l 163 1139 l 326 1139 l 326 1058 m 81 1058 l -81 1058 l -81 1139 l 81 1139 l 81 1058 z "},"Ö":{"ha":1058,"x_min":41,"x_max":1017,"o":"m 529 0 q 184 143 327 0 q 41 488 41 286 q 184 833 41 690 q 529 977 327 977 q 874 833 731 977 q 1017 488 1017 690 q 874 143 1017 286 q 529 0 731 0 m 529 163 q 759 258 664 163 q 854 488 854 353 q 759 719 854 623 q 529 814 664 814 q 299 719 394 814 q 203 488 203 623 q 299 258 203 353 q 529 163 394 163 m 773 1058 l 610 1058 l 610 1139 l 773 1139 l 773 1058 m 448 1058 l 285 1058 l 285 1139 l 448 1139 l 448 1058 z "},"ö":{"ha":1058,"x_min":41,"x_max":1017,"o":"m 529 0 q 184 143 327 0 q 41 488 41 286 q 184 833 41 690 q 529 977 327 977 q 874 833 731 977 q 1017 488 1017 690 q 874 143 1017 286 q 529 0 731 0 m 529 163 q 759 258 664 163 q 854 488 854 353 q 759 719 854 623 q 529 814 664 814 q 299 719 394 814 q 203 488 203 623 q 299 258 203 353 q 529 163 394 163 m 773 1058 l 610 1058 l 610 1139 l 773 1139 l 773 1058 m 448 1058 l 285 1058 l 285 1139 l 448 1139 l 448 1058 z "},"Ü":{"ha":1058,"x_min":41,"x_max":1017,"o":"m 41 488 l 41 977 l 203 977 l 203 488 q 299 258 203 353 q 529 163 394 163 q 759 258 664 163 q 854 488 854 353 l 854 977 l 1017 977 l 1017 488 q 874 143 1017 286 q 529 0 731 0 q 184 143 327 0 q 41 488 41 286 m 773 1058 l 610 1058 l 610 1139 l 773 1139 l 773 1058 m 448 1058 l 285 1058 l 285 1139 l 448 1139 l 448 1058 z "},"ü":{"ha":1058,"x_min":41,"x_max":1017,"o":"m 41 488 l 41 977 l 203 977 l 203 488 q 299 258 203 353 q 529 163 394 163 q 759 258 664 163 q 854 488 854 353 l 854 977 l 1017 977 l 1017 488 q 874 143 1017 286 q 529 0 731 0 q 184 143 327 0 q 41 488 41 286 m 773 1058 l 610 1058 l 610 1139 l 773 1139 l 773 1058 m 448 1058 l 285 1058 l 285 1139 l 448 1139 l 448 1058 z "},"¸":{"ha":244,"x_min":41,"x_max":203,"o":"m 95 -41 l 203 -41 l 122 -203 l 41 -203 l 95 -41 z "},"Ç":{"ha":570,"x_min":41,"x_max":529,"o":"m 529 163 l 529 0 q 184 143 327 0 q 41 488 41 286 q 184 833 41 690 q 529 977 327 977 l 529 814 q 299 719 394 814 q 203 488 203 623 q 299 258 203 353 q 529 163 394 163 m 339 -41 l 448 -41 l 366 -203 l 285 -203 l 339 -41 z "},"ç":{"ha":570,"x_min":41,"x_max":529,"o":"m 529 163 l 529 0 q 184 143 327 0 q 41 488 41 286 q 184 833 41 690 q 529 977 327 977 l 529 814 q 299 719 394 814 q 203 488 203 623 q 299 258 203 353 q 529 163 394 163 m 339 -41 l 448 -41 l 366 -203 l 285 -203 l 339 -41 z "},"Ģ":{"ha":732,"x_min":41,"x_max":692,"o":"m 529 0 q 184 143 327 0 q 41 488 41 286 q 184 833 41 690 q 529 977 327 977 l 529 814 q 299 719 394 814 q 203 488 203 623 q 299 258 203 353 q 529 163 394 163 l 529 488 l 692 488 l 692 0 l 529 0 m 420 -41 l 529 -41 l 448 -203 l 366 -203 l 420 -41 z "},"ģ":{"ha":732,"x_min":41,"x_max":692,"o":"m 529 0 q 184 143 327 0 q 41 488 41 286 q 184 833 41 690 q 529 977 327 977 l 529 814 q 299 719 394 814 q 203 488 203 623 q 299 258 203 353 q 529 163 394 163 l 529 488 l 692 488 l 692 0 l 529 0 m 420 -41 l 529 -41 l 448 -203 l 366 -203 l 420 -41 z "},"Ķ":{"ha":732,"x_min":41,"x_max":692,"o":"m 203 357 l 203 0 l 41 0 l 41 977 l 203 977 l 203 619 l 485 977 l 692 977 l 307 488 l 692 0 l 485 0 l 203 357 m 298 -41 l 407 -41 l 326 -203 l 244 -203 l 298 -41 z "},"ķ":{"ha":732,"x_min":41,"x_max":692,"o":"m 203 357 l 203 0 l 41 0 l 41 977 l 203 977 l 203 619 l 485 977 l 692 977 l 307 488 l 692 0 l 485 0 l 203 357 m 298 -41 l 407 -41 l 326 -203 l 244 -203 l 298 -41 z "},"Ļ":{"ha":1058,"x_min":41,"x_max":1017,"o":"m 41 977 l 203 977 l 203 163 l 1017 163 l 1017 0 l 41 0 l 41 977 m 502 -41 l 610 -41 l 529 -203 l 448 -203 l 502 -41 z "},"ļ":{"ha":1058,"x_min":41,"x_max":1017,"o":"m 41 977 l 203 977 l 203 163 l 1017 163 l 1017 0 l 41 0 l 41 977 m 502 -41 l 610 -41 l 529 -203 l 448 -203 l 502 -41 z "},"Ņ":{"ha":1058,"x_min":41,"x_max":1017,"o":"m 203 770 l 203 0 l 41 0 l 41 977 l 248 977 l 854 206 l 854 977 l 1017 977 l 1017 0 l 810 0 l 203 770 m 461 -41 l 570 -41 l 488 -203 l 407 -203 l 461 -41 z "},"ņ":{"ha":1058,"x_min":41,"x_max":1017,"o":"m 203 770 l 203 0 l 41 0 l 41 977 l 248 977 l 854 206 l 854 977 l 1017 977 l 1017 0 l 810 0 l 203 770 m 461 -41 l 570 -41 l 488 -203 l 407 -203 l 461 -41 z "},"Ŗ":{"ha":732,"x_min":41,"x_max":692,"o":"m 407 977 q 608 893 525 977 q 692 692 692 810 l 692 610 q 608 409 692 492 q 434 327 534 335 l 692 0 l 485 0 l 228 326 l 203 326 l 203 0 l 41 0 l 41 977 l 407 977 m 298 -41 l 407 -41 l 326 -203 l 244 -203 l 298 -41 m 529 692 q 493 778 529 743 q 407 814 458 814 l 203 814 l 203 488 l 407 488 q 493 524 458 488 q 529 610 529 559 l 529 692 z "},"ŗ":{"ha":732,"x_min":41,"x_max":692,"o":"m 407 977 q 608 893 525 977 q 692 692 692 810 l 692 610 q 608 409 692 492 q 434 327 534 335 l 692 0 l 485 0 l 228 326 l 203 326 l 203 0 l 41 0 l 41 977 l 407 977 m 298 -41 l 407 -41 l 326 -203 l 244 -203 l 298 -41 m 529 692 q 493 778 529 743 q 407 814 458 814 l 203 814 l 203 488 l 407 488 q 493 524 458 488 q 529 610 529 559 l 529 692 z "},"Ş":{"ha":651,"x_min":41,"x_max":610,"o":"m 326 977 l 488 977 l 488 814 l 326 814 q 239 778 275 814 q 203 692 203 743 q 239 605 203 641 q 326 570 275 570 q 527 486 444 570 q 610 285 610 403 q 527 83 610 167 q 326 0 444 0 l 41 0 l 41 163 l 326 163 q 412 198 376 163 q 448 285 448 234 q 412 371 448 336 q 326 407 376 407 q 124 490 208 407 q 41 692 41 574 q 124 893 41 810 q 326 977 208 977 m 217 -41 l 326 -41 l 244 -203 l 163 -203 l 217 -41 z "},"ş":{"ha":651,"x_min":41,"x_max":610,"o":"m 326 977 l 488 977 l 488 814 l 326 814 q 239 778 275 814 q 203 692 203 743 q 239 605 203 641 q 326 570 275 570 q 527 486 444 570 q 610 285 610 403 q 527 83 610 167 q 326 0 444 0 l 41 0 l 41 163 l 326 163 q 412 198 376 163 q 448 285 448 234 q 412 371 448 336 q 326 407 376 407 q 124 490 208 407 q 41 692 41 574 q 124 893 41 810 q 326 977 208 977 m 217 -41 l 326 -41 l 244 -203 l 163 -203 l 217 -41 z "},"Ţ":{"ha":1058,"x_min":41,"x_max":1017,"o":"m 1017 977 l 1017 814 l 610 814 l 610 0 l 448 0 l 448 814 l 41 814 l 41 977 l 1017 977 m 461 -41 l 570 -41 l 488 -203 l 407 -203 l 461 -41 z "},"ţ":{"ha":1058,"x_min":41,"x_max":1017,"o":"m 1017 977 l 1017 814 l 610 814 l 610 0 l 448 0 l 448 814 l 41 814 l 41 977 l 1017 977 m 461 -41 l 570 -41 l 488 -203 l 407 -203 l 461 -41 z "},"Ȩ":{"ha":1058,"x_min":41,"x_max":1017,"o":"m 1017 977 l 1017 814 l 203 814 l 203 570 l 854 570 l 854 407 l 203 407 l 203 163 l 1017 163 l 1017 0 l 41 0 l 41 977 l 1017 977 m 502 -41 l 610 -41 l 529 -203 l 448 -203 l 502 -41 z "},"ȩ":{"ha":1058,"x_min":41,"x_max":1017,"o":"m 1017 977 l 1017 814 l 203 814 l 203 570 l 854 570 l 854 407 l 203 407 l 203 163 l 1017 163 l 1017 0 l 41 0 l 41 977 l 1017 977 m 502 -41 l 610 -41 l 529 -203 l 448 -203 l 502 -41 z "},"ˇ":{"ha":407,"x_min":41,"x_max":366,"o":"m 366 1180 l 260 1017 l 146 1017 l 41 1180 l 155 1180 l 203 1105 l 252 1180 l 366 1180 z "},"Č":{"ha":570,"x_min":41,"x_max":529,"o":"m 529 163 l 529 0 q 184 143 327 0 q 41 488 41 286 q 184 833 41 690 q 529 977 327 977 l 529 814 q 299 719 394 814 q 203 488 203 623 q 299 258 203 353 q 529 163 394 163 m 529 1180 l 423 1017 l 309 1017 l 203 1180 l 318 1180 l 366 1105 l 414 1180 l 529 1180 z "},"č":{"ha":570,"x_min":41,"x_max":529,"o":"m 529 163 l 529 0 q 184 143 327 0 q 41 488 41 286 q 184 833 41 690 q 529 977 327 977 l 529 814 q 299 719 394 814 q 203 488 203 623 q 299 258 203 353 q 529 163 394 163 m 529 1180 l 423 1017 l 309 1017 l 203 1180 l 318 1180 l 366 1105 l 414 1180 l 529 1180 z "},"Ď":{"ha":732,"x_min":41,"x_max":692,"o":"m 203 977 q 549 833 406 977 q 692 488 692 690 q 549 143 692 286 q 203 0 406 0 l 41 0 l 41 977 l 203 977 m 468 1180 l 362 1017 l 248 1017 l 142 1180 l 257 1180 l 305 1105 l 353 1180 l 468 1180 m 203 163 q 434 258 338 163 q 529 488 529 353 q 434 719 529 623 q 203 814 338 814 l 203 163 z "},"ď":{"ha":732,"x_min":41,"x_max":692,"o":"m 203 977 q 549 833 406 977 q 692 488 692 690 q 549 143 692 286 q 203 0 406 0 l 41 0 l 41 977 l 203 977 m 468 1180 l 362 1017 l 248 1017 l 142 1180 l 257 1180 l 305 1105 l 353 1180 l 468 1180 m 203 163 q 434 258 338 163 q 529 488 529 353 q 434 719 529 623 q 203 814 338 814 l 203 163 z "},"Ě":{"ha":1058,"x_min":41,"x_max":1017,"o":"m 1017 977 l 1017 814 l 203 814 l 203 570 l 854 570 l 854 407 l 203 407 l 203 163 l 1017 163 l 1017 0 l 41 0 l 41 977 l 1017 977 m 692 1180 l 586 1017 l 471 1017 l 366 1180 l 481 1180 l 529 1105 l 577 1180 l 692 1180 z "},"ě":{"ha":1058,"x_min":41,"x_max":1017,"o":"m 1017 977 l 1017 814 l 203 814 l 203 570 l 854 570 l 854 407 l 203 407 l 203 163 l 1017 163 l 1017 0 l 41 0 l 41 977 l 1017 977 m 692 1180 l 586 1017 l 471 1017 l 366 1180 l 481 1180 l 529 1105 l 577 1180 l 692 1180 z "},"Ľ":{"ha":1058,"x_min":41,"x_max":1017,"o":"m 41 977 l 203 977 l 203 163 l 1017 163 l 1017 0 l 41 0 l 41 977 m 746 814 l 692 814 l 692 977 l 854 977 l 854 868 l 773 705 l 692 705 l 746 814 z "},"ľ":{"ha":1058,"x_min":41,"x_max":1017,"o":"m 41 977 l 203 977 l 203 163 l 1017 163 l 1017 0 l 41 0 l 41 977 m 746 814 l 692 814 l 692 977 l 854 977 l 854 868 l 773 705 l 692 705 l 746 814 z "},"Ň":{"ha":1058,"x_min":41,"x_max":1017,"o":"m 203 770 l 203 0 l 41 0 l 41 977 l 248 977 l 854 206 l 854 977 l 1017 977 l 1017 0 l 810 0 l 203 770 m 692 1180 l 586 1017 l 472 1017 l 366 1180 l 481 1180 l 529 1105 l 578 1180 l 692 1180 z "},"ň":{"ha":1058,"x_min":41,"x_max":1017,"o":"m 203 770 l 203 0 l 41 0 l 41 977 l 248 977 l 854 206 l 854 977 l 1017 977 l 1017 0 l 810 0 l 203 770 m 692 1180 l 586 1017 l 472 1017 l 366 1180 l 481 1180 l 529 1105 l 578 1180 l 692 1180 z "},"Ř":{"ha":732,"x_min":41,"x_max":692,"o":"m 407 977 q 608 893 525 977 q 692 692 692 810 l 692 610 q 608 409 692 492 q 434 327 534 335 l 692 0 l 485 0 l 228 326 l 203 326 l 203 0 l 41 0 l 41 977 l 407 977 m 468 1180 l 362 1017 l 248 1017 l 142 1180 l 257 1180 l 305 1105 l 353 1180 l 468 1180 m 529 692 q 493 778 529 743 q 407 814 458 814 l 203 814 l 203 488 l 407 488 q 493 524 458 488 q 529 610 529 559 l 529 692 z "},"ř":{"ha":732,"x_min":41,"x_max":692,"o":"m 407 977 q 608 893 525 977 q 692 692 692 810 l 692 610 q 608 409 692 492 q 434 327 534 335 l 692 0 l 485 0 l 228 326 l 203 326 l 203 0 l 41 0 l 41 977 l 407 977 m 468 1180 l 362 1017 l 248 1017 l 142 1180 l 257 1180 l 305 1105 l 353 1180 l 468 1180 m 529 692 q 493 778 529 743 q 407 814 458 814 l 203 814 l 203 488 l 407 488 q 493 524 458 488 q 529 610 529 559 l 529 692 z "},"Š":{"ha":651,"x_min":41,"x_max":610,"o":"m 326 977 l 488 977 l 488 814 l 326 814 q 239 778 275 814 q 203 692 203 743 q 239 605 203 641 q 326 570 275 570 q 527 486 444 570 q 610 285 610 403 q 527 83 610 167 q 326 0 444 0 l 41 0 l 41 163 l 326 163 q 412 198 376 163 q 448 285 448 234 q 412 371 448 336 q 326 407 376 407 q 124 490 208 407 q 41 692 41 574 q 124 893 41 810 q 326 977 208 977 m 468 1180 l 362 1017 l 248 1017 l 142 1180 l 257 1180 l 305 1105 l 353 1180 l 468 1180 z "},"š":{"ha":651,"x_min":41,"x_max":610,"o":"m 326 977 l 488 977 l 488 814 l 326 814 q 239 778 275 814 q 203 692 203 743 q 239 605 203 641 q 326 570 275 570 q 527 486 444 570 q 610 285 610 403 q 527 83 610 167 q 326 0 444 0 l 41 0 l 41 163 l 326 163 q 412 198 376 163 q 448 285 448 234 q 412 371 448 336 q 326 407 376 407 q 124 490 208 407 q 41 692 41 574 q 124 893 41 810 q 326 977 208 977 m 468 1180 l 362 1017 l 248 1017 l 142 1180 l 257 1180 l 305 1105 l 353 1180 l 468 1180 z "},"Ť":{"ha":1058,"x_min":41,"x_max":1017,"o":"m 1017 977 l 1017 814 l 610 814 l 610 0 l 448 0 l 448 814 l 41 814 l 41 977 l 1017 977 m 692 1180 l 586 1017 l 471 1017 l 366 1180 l 481 1180 l 529 1105 l 577 1180 l 692 1180 z "},"ť":{"ha":1058,"x_min":41,"x_max":1017,"o":"m 1017 977 l 1017 814 l 610 814 l 610 0 l 448 0 l 448 814 l 41 814 l 41 977 l 1017 977 m 692 1180 l 586 1017 l 471 1017 l 366 1180 l 481 1180 l 529 1105 l 577 1180 l 692 1180 z "},"Ž":{"ha":1058,"x_min":41,"x_max":1017,"o":"m 682 814 l 41 814 l 41 977 l 1017 977 l 376 163 l 1017 163 l 1017 0 l 41 0 l 682 814 m 692 1180 l 586 1017 l 471 1017 l 366 1180 l 481 1180 l 529 1105 l 577 1180 l 692 1180 z "},"ž":{"ha":1058,"x_min":41,"x_max":1017,"o":"m 682 814 l 41 814 l 41 977 l 1017 977 l 376 163 l 1017 163 l 1017 0 l 41 0 l 682 814 m 692 1180 l 586 1017 l 471 1017 l 366 1180 l 481 1180 l 529 1105 l 577 1180 l 692 1180 z "},"Ǎ":{"ha":1058,"x_min":41,"x_max":1017,"o":"m 41 488 q 184 833 41 690 q 529 977 327 977 q 874 833 731 977 q 1017 488 1017 690 l 1017 0 l 854 0 l 854 163 l 203 163 l 203 0 l 41 0 l 41 488 m 692 1180 l 586 1017 l 471 1017 l 366 1180 l 481 1180 l 529 1105 l 577 1180 l 692 1180 m 854 326 l 854 488 q 759 719 854 623 q 529 814 664 814 q 299 719 394 814 q 203 488 203 623 l 203 326 l 854 326 z "},"ǎ":{"ha":1058,"x_min":41,"x_max":1017,"o":"m 41 488 q 184 833 41 690 q 529 977 327 977 q 874 833 731 977 q 1017 488 1017 690 l 1017 0 l 854 0 l 854 163 l 203 163 l 203 0 l 41 0 l 41 488 m 692 1180 l 586 1017 l 471 1017 l 366 1180 l 481 1180 l 529 1105 l 577 1180 l 692 1180 m 854 326 l 854 488 q 759 719 854 623 q 529 814 664 814 q 299 719 394 814 q 203 488 203 623 l 203 326 l 854 326 z "},"Ǐ":{"ha":244,"x_min":-41,"x_max":285,"o":"m 203 0 l 41 0 l 41 977 l 203 977 l 203 0 m 285 1180 l 179 1017 l 64 1017 l -41 1180 l 74 1180 l 122 1105 l 170 1180 l 285 1180 z "},"ǐ":{"ha":244,"x_min":-41,"x_max":285,"o":"m 203 0 l 41 0 l 41 977 l 203 977 l 203 0 m 285 1180 l 179 1017 l 64 1017 l -41 1180 l 74 1180 l 122 1105 l 170 1180 l 285 1180 z "},"Ǒ":{"ha":1058,"x_min":41,"x_max":1017,"o":"m 529 0 q 184 143 327 0 q 41 488 41 286 q 184 833 41 690 q 529 977 327 977 q 874 833 731 977 q 1017 488 1017 690 q 874 143 1017 286 q 529 0 731 0 m 529 163 q 759 258 664 163 q 854 488 854 353 q 759 719 854 623 q 529 814 664 814 q 299 719 394 814 q 203 488 203 623 q 299 258 203 353 q 529 163 394 163 m 692 1180 l 586 1017 l 471 1017 l 366 1180 l 481 1180 l 529 1105 l 577 1180 l 692 1180 z "},"ǒ":{"ha":1058,"x_min":41,"x_max":1017,"o":"m 529 0 q 184 143 327 0 q 41 488 41 286 q 184 833 41 690 q 529 977 327 977 q 874 833 731 977 q 1017 488 1017 690 q 874 143 1017 286 q 529 0 731 0 m 529 163 q 759 258 664 163 q 854 488 854 353 q 759 719 854 623 q 529 814 664 814 q 299 719 394 814 q 203 488 203 623 q 299 258 203 353 q 529 163 394 163 m 692 1180 l 586 1017 l 471 1017 l 366 1180 l 481 1180 l 529 1105 l 577 1180 l 692 1180 z "},"Ǔ":{"ha":1058,"x_min":41,"x_max":1017,"o":"m 41 488 l 41 977 l 203 977 l 203 488 q 299 258 203 353 q 529 163 394 163 q 759 258 664 163 q 854 488 854 353 l 854 977 l 1017 977 l 1017 488 q 874 143 1017 286 q 529 0 731 0 q 184 143 327 0 q 41 488 41 286 m 692 1180 l 586 1017 l 471 1017 l 366 1180 l 481 1180 l 529 1105 l 577 1180 l 692 1180 z "},"ǔ":{"ha":1058,"x_min":41,"x_max":1017,"o":"m 41 488 l 41 977 l 203 977 l 203 488 q 299 258 203 353 q 529 163 394 163 q 759 258 664 163 q 854 488 854 353 l 854 977 l 1017 977 l 1017 488 q 874 143 1017 286 q 529 0 731 0 q 184 143 327 0 q 41 488 41 286 m 692 1180 l 586 1017 l 471 1017 l 366 1180 l 481 1180 l 529 1105 l 577 1180 l 692 1180 z "},"Ǧ":{"ha":732,"x_min":41,"x_max":692,"o":"m 529 0 q 184 143 327 0 q 41 488 41 286 q 184 833 41 690 q 529 977 327 977 l 529 814 q 299 719 394 814 q 203 488 203 623 q 299 258 203 353 q 529 163 394 163 l 529 488 l 692 488 l 692 0 l 529 0 m 631 1180 l 525 1017 l 410 1017 l 305 1180 l 420 1180 l 468 1105 l 516 1180 l 631 1180 z "},"ǧ":{"ha":732,"x_min":41,"x_max":692,"o":"m 529 0 q 184 143 327 0 q 41 488 41 286 q 184 833 41 690 q 529 977 327 977 l 529 814 q 299 719 394 814 q 203 488 203 623 q 299 258 203 353 q 529 163 394 163 l 529 488 l 692 488 l 692 0 l 529 0 m 631 1180 l 525 1017 l 410 1017 l 305 1180 l 420 1180 l 468 1105 l 516 1180 l 631 1180 z "},"Ǩ":{"ha":732,"x_min":41,"x_max":692,"o":"m 203 357 l 203 0 l 41 0 l 41 977 l 203 977 l 203 619 l 485 977 l 692 977 l 307 488 l 692 0 l 485 0 l 203 357 m 468 1180 l 362 1017 l 248 1017 l 142 1180 l 257 1180 l 305 1105 l 353 1180 l 468 1180 z "},"ǩ":{"ha":732,"x_min":41,"x_max":692,"o":"m 203 357 l 203 0 l 41 0 l 41 977 l 203 977 l 203 619 l 485 977 l 692 977 l 307 488 l 692 0 l 485 0 l 203 357 m 468 1180 l 362 1017 l 248 1017 l 142 1180 l 257 1180 l 305 1105 l 353 1180 l 468 1180 z "},"Ȟ":{"ha":1058,"x_min":41,"x_max":1017,"o":"m 203 407 l 203 0 l 41 0 l 41 977 l 203 977 l 203 570 l 854 570 l 854 977 l 1017 977 l 1017 0 l 854 0 l 854 407 l 203 407 m 692 1180 l 586 1017 l 471 1017 l 366 1180 l 481 1180 l 529 1105 l 577 1180 l 692 1180 z "},"ȟ":{"ha":1058,"x_min":41,"x_max":1017,"o":"m 203 407 l 203 0 l 41 0 l 41 977 l 203 977 l 203 570 l 854 570 l 854 977 l 1017 977 l 1017 0 l 854 0 l 854 407 l 203 407 m 692 1180 l 586 1017 l 471 1017 l 366 1180 l 481 1180 l 529 1105 l 577 1180 l 692 1180 z "},"ˆ":{"ha":407,"x_min":41,"x_max":366,"o":"m 366 1017 l 252 1017 l 203 1092 l 155 1017 l 41 1017 l 146 1180 l 260 1180 l 366 1017 z "},"Â":{"ha":1058,"x_min":41,"x_max":1017,"o":"m 41 488 q 184 833 41 690 q 529 977 327 977 q 874 833 731 977 q 1017 488 1017 690 l 1017 0 l 854 0 l 854 163 l 203 163 l 203 0 l 41 0 l 41 488 m 692 1017 l 577 1017 l 529 1092 l 481 1017 l 366 1017 l 471 1180 l 586 1180 l 692 1017 m 854 326 l 854 488 q 759 719 854 623 q 529 814 664 814 q 299 719 394 814 q 203 488 203 623 l 203 326 l 854 326 z "},"â":{"ha":1058,"x_min":41,"x_max":1017,"o":"m 41 488 q 184 833 41 690 q 529 977 327 977 q 874 833 731 977 q 1017 488 1017 690 l 1017 0 l 854 0 l 854 163 l 203 163 l 203 0 l 41 0 l 41 488 m 692 1017 l 577 1017 l 529 1092 l 481 1017 l 366 1017 l 471 1180 l 586 1180 l 692 1017 m 854 326 l 854 488 q 759 719 854 623 q 529 814 664 814 q 299 719 394 814 q 203 488 203 623 l 203 326 l 854 326 z "},"Ê":{"ha":1058,"x_min":41,"x_max":1017,"o":"m 1017 977 l 1017 814 l 203 814 l 203 570 l 854 570 l 854 407 l 203 407 l 203 163 l 1017 163 l 1017 0 l 41 0 l 41 977 l 1017 977 m 692 1017 l 577 1017 l 529 1092 l 481 1017 l 366 1017 l 471 1180 l 586 1180 l 692 1017 z "},"ê":{"ha":1058,"x_min":41,"x_max":1017,"o":"m 1017 977 l 1017 814 l 203 814 l 203 570 l 854 570 l 854 407 l 203 407 l 203 163 l 1017 163 l 1017 0 l 41 0 l 41 977 l 1017 977 m 692 1017 l 577 1017 l 529 1092 l 481 1017 l 366 1017 l 471 1180 l 586 1180 l 692 1017 z "},"Î":{"ha":244,"x_min":-41,"x_max":285,"o":"m 203 0 l 41 0 l 41 977 l 203 977 l 203 0 m 285 1017 l 170 1017 l 122 1092 l 74 1017 l -41 1017 l 64 1180 l 179 1180 l 285 1017 z "},"î":{"ha":244,"x_min":-41,"x_max":285,"o":"m 203 0 l 41 0 l 41 977 l 203 977 l 203 0 m 285 1017 l 170 1017 l 122 1092 l 74 1017 l -41 1017 l 64 1180 l 179 1180 l 285 1017 z "},"Ô":{"ha":1058,"x_min":41,"x_max":1017,"o":"m 529 0 q 184 143 327 0 q 41 488 41 286 q 184 833 41 690 q 529 977 327 977 q 874 833 731 977 q 1017 488 1017 690 q 874 143 1017 286 q 529 0 731 0 m 529 163 q 759 258 664 163 q 854 488 854 353 q 759 719 854 623 q 529 814 664 814 q 299 719 394 814 q 203 488 203 623 q 299 258 203 353 q 529 163 394 163 m 692 1017 l 577 1017 l 529 1092 l 481 1017 l 366 1017 l 471 1180 l 586 1180 l 692 1017 z "},"ô":{"ha":1058,"x_min":41,"x_max":1017,"o":"m 529 0 q 184 143 327 0 q 41 488 41 286 q 184 833 41 690 q 529 977 327 977 q 874 833 731 977 q 1017 488 1017 690 q 874 143 1017 286 q 529 0 731 0 m 529 163 q 759 258 664 163 q 854 488 854 353 q 759 719 854 623 q 529 814 664 814 q 299 719 394 814 q 203 488 203 623 q 299 258 203 353 q 529 163 394 163 m 692 1017 l 577 1017 l 529 1092 l 481 1017 l 366 1017 l 471 1180 l 586 1180 l 692 1017 z "},"Û":{"ha":1058,"x_min":41,"x_max":1017,"o":"m 41 488 l 41 977 l 203 977 l 203 488 q 299 258 203 353 q 529 163 394 163 q 759 258 664 163 q 854 488 854 353 l 854 977 l 1017 977 l 1017 488 q 874 143 1017 286 q 529 0 731 0 q 184 143 327 0 q 41 488 41 286 m 692 1017 l 577 1017 l 529 1092 l 481 1017 l 366 1017 l 471 1180 l 586 1180 l 692 1017 z "},"û":{"ha":1058,"x_min":41,"x_max":1017,"o":"m 41 488 l 41 977 l 203 977 l 203 488 q 299 258 203 353 q 529 163 394 163 q 759 258 664 163 q 854 488 854 353 l 854 977 l 1017 977 l 1017 488 q 874 143 1017 286 q 529 0 731 0 q 184 143 327 0 q 41 488 41 286 m 692 1017 l 577 1017 l 529 1092 l 481 1017 l 366 1017 l 471 1180 l 586 1180 l 692 1017 z "},"Ĉ":{"ha":570,"x_min":41,"x_max":529,"o":"m 529 163 l 529 0 q 184 143 327 0 q 41 488 41 286 q 184 833 41 690 q 529 977 327 977 l 529 814 q 299 719 394 814 q 203 488 203 623 q 299 258 203 353 q 529 163 394 163 m 529 1017 l 414 1017 l 366 1092 l 318 1017 l 203 1017 l 309 1180 l 423 1180 l 529 1017 z "},"ĉ":{"ha":570,"x_min":41,"x_max":529,"o":"m 529 163 l 529 0 q 184 143 327 0 q 41 488 41 286 q 184 833 41 690 q 529 977 327 977 l 529 814 q 299 719 394 814 q 203 488 203 623 q 299 258 203 353 q 529 163 394 163 m 529 1017 l 414 1017 l 366 1092 l 318 1017 l 203 1017 l 309 1180 l 423 1180 l 529 1017 z "},"Ĝ":{"ha":732,"x_min":41,"x_max":692,"o":"m 529 0 q 184 143 327 0 q 41 488 41 286 q 184 833 41 690 q 529 977 327 977 l 529 814 q 299 719 394 814 q 203 488 203 623 q 299 258 203 353 q 529 163 394 163 l 529 488 l 692 488 l 692 0 l 529 0 m 631 1017 l 516 1017 l 468 1092 l 420 1017 l 305 1017 l 410 1180 l 525 1180 l 631 1017 z "},"ĝ":{"ha":732,"x_min":41,"x_max":692,"o":"m 529 0 q 184 143 327 0 q 41 488 41 286 q 184 833 41 690 q 529 977 327 977 l 529 814 q 299 719 394 814 q 203 488 203 623 q 299 258 203 353 q 529 163 394 163 l 529 488 l 692 488 l 692 0 l 529 0 m 631 1017 l 516 1017 l 468 1092 l 420 1017 l 305 1017 l 410 1180 l 525 1180 l 631 1017 z "},"Ĥ":{"ha":1058,"x_min":41,"x_max":1017,"o":"m 203 407 l 203 0 l 41 0 l 41 977 l 203 977 l 203 570 l 854 570 l 854 977 l 1017 977 l 1017 0 l 854 0 l 854 407 l 203 407 m 692 1017 l 577 1017 l 529 1092 l 481 1017 l 366 1017 l 471 1180 l 586 1180 l 692 1017 z "},"ĥ":{"ha":1058,"x_min":41,"x_max":1017,"o":"m 203 407 l 203 0 l 41 0 l 41 977 l 203 977 l 203 570 l 854 570 l 854 977 l 1017 977 l 1017 0 l 854 0 l 854 407 l 203 407 m 692 1017 l 577 1017 l 529 1092 l 481 1017 l 366 1017 l 471 1180 l 586 1180 l 692 1017 z "},"Ŝ":{"ha":651,"x_min":41,"x_max":610,"o":"m 326 977 l 488 977 l 488 814 l 326 814 q 239 778 275 814 q 203 692 203 743 q 239 605 203 641 q 326 570 275 570 q 527 486 444 570 q 610 285 610 403 q 527 83 610 167 q 326 0 444 0 l 41 0 l 41 163 l 326 163 q 412 198 376 163 q 448 285 448 234 q 412 371 448 336 q 326 407 376 407 q 124 490 208 407 q 41 692 41 574 q 124 893 41 810 q 326 977 208 977 m 468 1017 l 353 1017 l 305 1092 l 257 1017 l 142 1017 l 248 1180 l 362 1180 l 468 1017 z "},"ŝ":{"ha":651,"x_min":41,"x_max":610,"o":"m 326 977 l 488 977 l 488 814 l 326 814 q 239 778 275 814 q 203 692 203 743 q 239 605 203 641 q 326 570 275 570 q 527 486 444 570 q 610 285 610 403 q 527 83 610 167 q 326 0 444 0 l 41 0 l 41 163 l 326 163 q 412 198 376 163 q 448 285 448 234 q 412 371 448 336 q 326 407 376 407 q 124 490 208 407 q 41 692 41 574 q 124 893 41 810 q 326 977 208 977 m 468 1017 l 353 1017 l 305 1092 l 257 1017 l 142 1017 l 248 1180 l 362 1180 l 468 1017 z "},"˜":{"ha":529,"x_min":41,"x_max":488,"o":"m 122 1038 l 122 1017 l 41 1017 l 41 1038 q 82 1138 41 1097 q 183 1180 124 1180 q 281 1139 242 1180 q 346 1099 321 1099 q 389 1117 372 1099 q 407 1160 407 1135 l 407 1180 l 488 1180 l 488 1160 q 447 1059 488 1101 q 346 1017 405 1017 q 248 1058 287 1017 q 183 1099 209 1099 q 140 1081 158 1099 q 122 1038 122 1063 z "},"Ã":{"ha":1058,"x_min":41,"x_max":1017,"o":"m 387 1038 l 387 1017 l 305 1017 l 305 1038 q 347 1138 305 1097 q 448 1180 389 1180 q 546 1139 507 1180 q 610 1099 585 1099 q 654 1117 636 1099 q 671 1160 671 1135 l 671 1180 l 753 1180 l 753 1160 q 711 1059 753 1101 q 610 1017 669 1017 q 512 1058 551 1017 q 448 1099 473 1099 q 405 1081 422 1099 q 387 1038 387 1063 m 41 488 q 184 833 41 690 q 529 977 327 977 q 874 833 731 977 q 1017 488 1017 690 l 1017 0 l 854 0 l 854 163 l 203 163 l 203 0 l 41 0 l 41 488 m 854 326 l 854 488 q 759 719 854 623 q 529 814 664 814 q 299 719 394 814 q 203 488 203 623 l 203 326 l 854 326 z "},"ã":{"ha":1058,"x_min":41,"x_max":1017,"o":"m 387 1038 l 387 1017 l 305 1017 l 305 1038 q 347 1138 305 1097 q 448 1180 389 1180 q 546 1139 507 1180 q 610 1099 585 1099 q 654 1117 636 1099 q 671 1160 671 1135 l 671 1180 l 753 1180 l 753 1160 q 711 1059 753 1101 q 610 1017 669 1017 q 512 1058 551 1017 q 448 1099 473 1099 q 405 1081 422 1099 q 387 1038 387 1063 m 41 488 q 184 833 41 690 q 529 977 327 977 q 874 833 731 977 q 1017 488 1017 690 l 1017 0 l 854 0 l 854 163 l 203 163 l 203 0 l 41 0 l 41 488 m 854 326 l 854 488 q 759 719 854 623 q 529 814 664 814 q 299 719 394 814 q 203 488 203 623 l 203 326 l 854 326 z "},"Õ":{"ha":1058,"x_min":41,"x_max":1017,"o":"m 529 0 q 184 143 327 0 q 41 488 41 286 q 184 833 41 690 q 529 977 327 977 q 874 833 731 977 q 1017 488 1017 690 q 874 143 1017 286 q 529 0 731 0 m 529 163 q 759 258 664 163 q 854 488 854 353 q 759 719 854 623 q 529 814 664 814 q 299 719 394 814 q 203 488 203 623 q 299 258 203 353 q 529 163 394 163 m 387 1038 l 387 1017 l 305 1017 l 305 1038 q 347 1138 305 1097 q 448 1180 389 1180 q 546 1139 507 1180 q 610 1099 585 1099 q 654 1117 636 1099 q 671 1160 671 1135 l 671 1180 l 753 1180 l 753 1160 q 711 1059 753 1101 q 610 1017 669 1017 q 512 1058 551 1017 q 448 1099 473 1099 q 405 1081 422 1099 q 387 1038 387 1063 z "},"õ":{"ha":1058,"x_min":41,"x_max":1017,"o":"m 529 0 q 184 143 327 0 q 41 488 41 286 q 184 833 41 690 q 529 977 327 977 q 874 833 731 977 q 1017 488 1017 690 q 874 143 1017 286 q 529 0 731 0 m 529 163 q 759 258 664 163 q 854 488 854 353 q 759 719 854 623 q 529 814 664 814 q 299 719 394 814 q 203 488 203 623 q 299 258 203 353 q 529 163 394 163 m 387 1038 l 387 1017 l 305 1017 l 305 1038 q 347 1138 305 1097 q 448 1180 389 1180 q 546 1139 507 1180 q 610 1099 585 1099 q 654 1117 636 1099 q 671 1160 671 1135 l 671 1180 l 753 1180 l 753 1160 q 711 1059 753 1101 q 610 1017 669 1017 q 512 1058 551 1017 q 448 1099 473 1099 q 405 1081 422 1099 q 387 1038 387 1063 z "},"Ĩ":{"ha":244,"x_min":-102,"x_max":346,"o":"m 203 0 l 41 0 l 41 977 l 203 977 l 203 0 m -20 1038 l -20 1017 l -102 1017 l -102 1038 q -60 1138 -102 1097 q 41 1180 -18 1180 q 139 1139 100 1180 q 203 1099 178 1099 q 247 1117 229 1099 q 264 1160 264 1135 l 264 1180 l 346 1180 l 346 1160 q 304 1059 346 1101 q 203 1017 262 1017 q 105 1058 144 1017 q 41 1099 66 1099 q -2 1081 16 1099 q -20 1038 -20 1063 z "},"ĩ":{"ha":244,"x_min":-102,"x_max":346,"o":"m 203 0 l 41 0 l 41 977 l 203 977 l 203 0 m -20 1038 l -20 1017 l -102 1017 l -102 1038 q -60 1138 -102 1097 q 41 1180 -18 1180 q 139 1139 100 1180 q 203 1099 178 1099 q 247 1117 229 1099 q 264 1160 264 1135 l 264 1180 l 346 1180 l 346 1160 q 304 1059 346 1101 q 203 1017 262 1017 q 105 1058 144 1017 q 41 1099 66 1099 q -2 1081 16 1099 q -20 1038 -20 1063 z "},"Ũ":{"ha":1058,"x_min":41,"x_max":1017,"o":"m 41 488 l 41 977 l 203 977 l 203 488 q 299 258 203 353 q 529 163 394 163 q 759 258 664 163 q 854 488 854 353 l 854 977 l 1017 977 l 1017 488 q 874 143 1017 286 q 529 0 731 0 q 184 143 327 0 q 41 488 41 286 m 387 1038 l 387 1017 l 305 1017 l 305 1038 q 347 1138 305 1097 q 448 1180 389 1180 q 546 1139 507 1180 q 610 1099 585 1099 q 654 1117 636 1099 q 671 1160 671 1135 l 671 1180 l 753 1180 l 753 1160 q 711 1059 753 1101 q 610 1017 669 1017 q 512 1058 551 1017 q 448 1099 473 1099 q 405 1081 422 1099 q 387 1038 387 1063 z "},"ũ":{"ha":1058,"x_min":41,"x_max":1017,"o":"m 41 488 l 41 977 l 203 977 l 203 488 q 299 258 203 353 q 529 163 394 163 q 759 258 664 163 q 854 488 854 353 l 854 977 l 1017 977 l 1017 488 q 874 143 1017 286 q 529 0 731 0 q 184 143 327 0 q 41 488 41 286 m 387 1038 l 387 1017 l 305 1017 l 305 1038 q 347 1138 305 1097 q 448 1180 389 1180 q 546 1139 507 1180 q 610 1099 585 1099 q 654 1117 636 1099 q 671 1160 671 1135 l 671 1180 l 753 1180 l 753 1160 q 711 1059 753 1101 q 610 1017 669 1017 q 512 1058 551 1017 q 448 1099 473 1099 q 405 1081 422 1099 q 387 1038 387 1063 z "},"Ñ":{"ha":1058,"x_min":41,"x_max":1017,"o":"m 203 770 l 203 0 l 41 0 l 41 977 l 248 977 l 854 206 l 854 977 l 1017 977 l 1017 0 l 810 0 l 203 770 m 387 1038 l 387 1017 l 305 1017 l 305 1038 q 347 1138 305 1097 q 448 1180 389 1180 q 546 1139 507 1180 q 610 1099 585 1099 q 654 1117 636 1099 q 671 1160 671 1135 l 671 1180 l 753 1180 l 753 1160 q 711 1059 753 1101 q 610 1017 669 1017 q 512 1058 551 1017 q 448 1099 473 1099 q 405 1081 422 1099 q 387 1038 387 1063 z "},"ñ":{"ha":1058,"x_min":41,"x_max":1017,"o":"m 203 770 l 203 0 l 41 0 l 41 977 l 248 977 l 854 206 l 854 977 l 1017 977 l 1017 0 l 810 0 l 203 770 m 387 1038 l 387 1017 l 305 1017 l 305 1038 q 347 1138 305 1097 q 448 1180 389 1180 q 546 1139 507 1180 q 610 1099 585 1099 q 654 1117 636 1099 q 671 1160 671 1135 l 671 1180 l 753 1180 l 753 1160 q 711 1059 753 1101 q 610 1017 669 1017 q 512 1058 551 1017 q 448 1099 473 1099 q 405 1081 422 1099 q 387 1038 387 1063 z "},"˙":{"ha":244,"x_min":41,"x_max":203,"o":"m 203 1058 l 41 1058 l 41 1139 l 203 1139 l 203 1058 z "},"Ċ":{"ha":570,"x_min":41,"x_max":529,"o":"m 529 163 l 529 0 q 184 143 327 0 q 41 488 41 286 q 184 833 41 690 q 529 977 327 977 l 529 814 q 299 719 394 814 q 203 488 203 623 q 299 258 203 353 q 529 163 394 163 m 529 1058 l 366 1058 l 366 1139 l 529 1139 l 529 1058 z "},"ċ":{"ha":570,"x_min":41,"x_max":529,"o":"m 529 163 l 529 0 q 184 143 327 0 q 41 488 41 286 q 184 833 41 690 q 529 977 327 977 l 529 814 q 299 719 394 814 q 203 488 203 623 q 299 258 203 353 q 529 163 394 163 m 529 1058 l 366 1058 l 366 1139 l 529 1139 l 529 1058 z "},"Ġ":{"ha":732,"x_min":41,"x_max":692,"o":"m 529 0 q 184 143 327 0 q 41 488 41 286 q 184 833 41 690 q 529 977 327 977 l 529 814 q 299 719 394 814 q 203 488 203 623 q 299 258 203 353 q 529 163 394 163 l 529 488 l 692 488 l 692 0 l 529 0 m 529 1058 l 366 1058 l 366 1139 l 529 1139 l 529 1058 z "},"ġ":{"ha":732,"x_min":41,"x_max":692,"o":"m 529 0 q 184 143 327 0 q 41 488 41 286 q 184 833 41 690 q 529 977 327 977 l 529 814 q 299 719 394 814 q 203 488 203 623 q 299 258 203 353 q 529 163 394 163 l 529 488 l 692 488 l 692 0 l 529 0 m 529 1058 l 366 1058 l 366 1139 l 529 1139 l 529 1058 z "},"Ż":{"ha":1058,"x_min":41,"x_max":1017,"o":"m 682 814 l 41 814 l 41 977 l 1017 977 l 376 163 l 1017 163 l 1017 0 l 41 0 l 682 814 m 610 1058 l 448 1058 l 448 1139 l 610 1139 l 610 1058 z "},"ż":{"ha":1058,"x_min":41,"x_max":1017,"o":"m 682 814 l 41 814 l 41 977 l 1017 977 l 376 163 l 1017 163 l 1017 0 l 41 0 l 682 814 m 610 1058 l 448 1058 l 448 1139 l 610 1139 l 610 1058 z "},"Ȧ":{"ha":1058,"x_min":41,"x_max":1017,"o":"m 41 488 q 184 833 41 690 q 529 977 327 977 q 874 833 731 977 q 1017 488 1017 690 l 1017 0 l 854 0 l 854 163 l 203 163 l 203 0 l 41 0 l 41 488 m 610 1058 l 448 1058 l 448 1139 l 610 1139 l 610 1058 m 854 326 l 854 488 q 759 719 854 623 q 529 814 664 814 q 299 719 394 814 q 203 488 203 623 l 203 326 l 854 326 z "},"ȧ":{"ha":1058,"x_min":41,"x_max":1017,"o":"m 41 488 q 184 833 41 690 q 529 977 327 977 q 874 833 731 977 q 1017 488 1017 690 l 1017 0 l 854 0 l 854 163 l 203 163 l 203 0 l 41 0 l 41 488 m 610 1058 l 448 1058 l 448 1139 l 610 1139 l 610 1058 m 854 326 l 854 488 q 759 719 854 623 q 529 814 664 814 q 299 719 394 814 q 203 488 203 623 l 203 326 l 854 326 z "},"Ė":{"ha":1058,"x_min":41,"x_max":1017,"o":"m 1017 977 l 1017 814 l 203 814 l 203 570 l 854 570 l 854 407 l 203 407 l 203 163 l 1017 163 l 1017 0 l 41 0 l 41 977 l 1017 977 m 610 1058 l 448 1058 l 448 1139 l 610 1139 l 610 1058 z "},"ė":{"ha":1058,"x_min":41,"x_max":1017,"o":"m 1017 977 l 1017 814 l 203 814 l 203 570 l 854 570 l 854 407 l 203 407 l 203 163 l 1017 163 l 1017 0 l 41 0 l 41 977 l 1017 977 m 610 1058 l 448 1058 l 448 1139 l 610 1139 l 610 1058 z "},"Þ":{"ha":732,"x_min":41,"x_max":692,"o":"m 203 651 l 203 326 l 407 326 q 493 361 458 326 q 529 448 529 397 l 529 529 q 493 615 529 580 q 407 651 458 651 l 203 651 m 203 163 l 203 0 l 41 0 l 41 977 l 203 977 l 203 814 l 407 814 q 608 730 525 814 q 692 529 692 647 l 692 448 q 608 246 692 330 q 407 163 525 163 l 203 163 z "},"þ":{"ha":732,"x_min":41,"x_max":692,"o":"m 203 651 l 203 326 l 407 326 q 493 361 458 326 q 529 448 529 397 l 529 529 q 493 615 529 580 q 407 651 458 651 l 203 651 m 203 163 l 203 0 l 41 0 l 41 977 l 203 977 l 203 814 l 407 814 q 608 730 525 814 q 692 529 692 647 l 692 448 q 608 246 692 330 q 407 163 525 163 l 203 163 z "},"ẞ":{"ha":732,"x_min":41,"x_max":692,"o":"m 203 0 l 41 0 l 41 814 q 203 977 41 977 l 244 977 q 446 893 362 977 q 529 692 529 810 q 496 556 529 617 q 608 486 558 536 q 692 285 692 403 q 608 83 692 167 q 407 0 525 0 l 326 0 l 326 163 l 407 163 q 493 198 458 163 q 529 285 529 234 q 493 371 529 336 q 407 407 458 407 l 326 407 l 326 600 q 366 692 366 641 q 331 778 366 743 q 244 814 295 814 l 203 814 l 203 0 z "},"ß":{"ha":732,"x_min":41,"x_max":692,"o":"m 203 0 l 41 0 l 41 814 q 203 977 41 977 l 244 977 q 446 893 362 977 q 529 692 529 810 q 496 556 529 617 q 608 486 558 536 q 692 285 692 403 q 608 83 692 167 q 407 0 525 0 l 326 0 l 326 163 l 407 163 q 493 198 458 163 q 529 285 529 234 q 493 371 529 336 q 407 407 458 407 l 326 407 l 326 600 q 366 692 366 641 q 331 778 366 743 q 244 814 295 814 l 203 814 l 203 0 z "},"Å":{"ha":1058,"x_min":41,"x_max":1017,"o":"m 529 977 q 572 995 554 977 q 590 1038 590 1013 q 572 1081 590 1063 q 529 1099 554 1099 q 486 1081 504 1099 q 468 1038 468 1063 q 486 995 468 1013 q 529 977 504 977 m 203 163 l 203 0 l 41 0 l 41 488 q 184 833 41 690 q 368 951 266 916 q 346 1038 346 989 q 399 1167 346 1114 q 529 1221 453 1221 q 659 1167 605 1221 q 712 1038 712 1114 q 690 951 712 989 q 874 833 792 916 q 1017 488 1017 690 l 1017 0 l 854 0 l 854 163 l 203 163 m 203 326 l 854 326 l 854 488 q 759 719 854 623 q 529 814 664 814 q 299 719 394 814 q 203 488 203 623 l 203 326 z "},"å":{"ha":1058,"x_min":41,"x_max":1017,"o":"m 529 977 q 572 995 554 977 q 590 1038 590 1013 q 572 1081 590 1063 q 529 1099 554 1099 q 486 1081 504 1099 q 468 1038 468 1063 q 486 995 468 1013 q 529 977 504 977 m 203 163 l 203 0 l 41 0 l 41 488 q 184 833 41 690 q 368 951 266 916 q 346 1038 346 989 q 399 1167 346 1114 q 529 1221 453 1221 q 659 1167 605 1221 q 712 1038 712 1114 q 690 951 712 989 q 874 833 792 916 q 1017 488 1017 690 l 1017 0 l 854 0 l 854 163 l 203 163 m 203 326 l 854 326 l 854 488 q 759 719 854 623 q 529 814 664 814 q 299 719 394 814 q 203 488 203 623 l 203 326 z "},"˚":{"ha":448,"x_min":41,"x_max":407,"o":"m 224 854 q 94 908 148 854 q 41 1038 41 962 q 94 1167 41 1114 q 224 1221 148 1221 q 353 1167 300 1221 q 407 1038 407 1114 q 353 908 407 962 q 224 854 300 854 m 224 977 q 267 995 249 977 q 285 1038 285 1013 q 267 1081 285 1063 q 224 1099 249 1099 q 181 1081 199 1099 q 163 1038 163 1063 q 181 995 163 1013 q 224 977 199 977 z "},"Ů":{"ha":1058,"x_min":41,"x_max":1017,"o":"m 41 488 l 41 977 l 203 977 l 203 488 q 299 258 203 353 q 529 163 394 163 q 759 258 664 163 q 854 488 854 353 l 854 977 l 1017 977 l 1017 488 q 874 143 1017 286 q 529 0 731 0 q 184 143 327 0 q 41 488 41 286 m 529 854 q 399 908 453 854 q 346 1038 346 962 q 399 1167 346 1114 q 529 1221 453 1221 q 659 1167 605 1221 q 712 1038 712 1114 q 659 908 712 962 q 529 854 605 854 m 529 977 q 572 995 554 977 q 590 1038 590 1013 q 572 1081 590 1063 q 529 1099 554 1099 q 486 1081 504 1099 q 468 1038 468 1063 q 486 995 468 1013 q 529 977 504 977 z "},"ů":{"ha":1058,"x_min":41,"x_max":1017,"o":"m 41 488 l 41 977 l 203 977 l 203 488 q 299 258 203 353 q 529 163 394 163 q 759 258 664 163 q 854 488 854 353 l 854 977 l 1017 977 l 1017 488 q 874 143 1017 286 q 529 0 731 0 q 184 143 327 0 q 41 488 41 286 m 529 854 q 399 908 453 854 q 346 1038 346 962 q 399 1167 346 1114 q 529 1221 453 1221 q 659 1167 605 1221 q 712 1038 712 1114 q 659 908 712 962 q 529 854 605 854 m 529 977 q 572 995 554 977 q 590 1038 590 1013 q 572 1081 590 1063 q 529 1099 554 1099 q 486 1081 504 1099 q 468 1038 468 1063 q 486 995 468 1013 q 529 977 504 977 z "},"&":{"ha":732,"x_min":41,"x_max":692,"o":"m 610 407 l 610 163 l 692 163 l 692 0 l 326 0 q 124 83 208 0 q 41 285 41 167 q 124 486 41 403 l 126 488 l 124 490 q 41 692 41 574 q 124 893 41 810 q 326 977 208 977 l 488 977 l 488 814 l 326 814 q 239 778 275 814 q 203 692 203 743 q 239 605 203 641 q 326 570 275 570 l 448 570 l 448 692 l 610 692 l 610 570 l 692 570 l 692 407 l 610 407 m 448 163 l 448 407 l 326 407 q 239 371 275 407 q 203 285 203 336 q 239 198 203 234 q 326 163 275 163 l 448 163 z "},"`":{"ha":407,"x_min":41,"x_max":260,"o":"m 260 1017 l 146 1017 l 41 1180 l 155 1180 l 260 1017 z "},"À":{"ha":1058,"x_min":41,"x_max":1017,"o":"m 41 488 q 184 833 41 690 q 529 977 327 977 q 874 833 731 977 q 1017 488 1017 690 l 1017 0 l 854 0 l 854 163 l 203 163 l 203 0 l 41 0 l 41 488 m 586 1017 l 471 1017 l 366 1180 l 481 1180 l 586 1017 m 854 326 l 854 488 q 759 719 854 623 q 529 814 664 814 q 299 719 394 814 q 203 488 203 623 l 203 326 l 854 326 z "},"à":{"ha":1058,"x_min":41,"x_max":1017,"o":"m 41 488 q 184 833 41 690 q 529 977 327 977 q 874 833 731 977 q 1017 488 1017 690 l 1017 0 l 854 0 l 854 163 l 203 163 l 203 0 l 41 0 l 41 488 m 586 1017 l 471 1017 l 366 1180 l 481 1180 l 586 1017 m 854 326 l 854 488 q 759 719 854 623 q 529 814 664 814 q 299 719 394 814 q 203 488 203 623 l 203 326 l 854 326 z "},"È":{"ha":1058,"x_min":41,"x_max":1017,"o":"m 1017 977 l 1017 814 l 203 814 l 203 570 l 854 570 l 854 407 l 203 407 l 203 163 l 1017 163 l 1017 0 l 41 0 l 41 977 l 1017 977 m 586 1017 l 471 1017 l 366 1180 l 481 1180 l 586 1017 z "},"è":{"ha":1058,"x_min":41,"x_max":1017,"o":"m 1017 977 l 1017 814 l 203 814 l 203 570 l 854 570 l 854 407 l 203 407 l 203 163 l 1017 163 l 1017 0 l 41 0 l 41 977 l 1017 977 m 586 1017 l 471 1017 l 366 1180 l 481 1180 l 586 1017 z "},"Ì":{"ha":244,"x_min":-41,"x_max":203,"o":"m 203 0 l 41 0 l 41 977 l 203 977 l 203 0 m 179 1017 l 64 1017 l -41 1180 l 74 1180 l 179 1017 z "},"ì":{"ha":244,"x_min":-41,"x_max":203,"o":"m 203 0 l 41 0 l 41 977 l 203 977 l 203 0 m 179 1017 l 64 1017 l -41 1180 l 74 1180 l 179 1017 z "},"Ǹ":{"ha":1058,"x_min":41,"x_max":1017,"o":"m 203 770 l 203 0 l 41 0 l 41 977 l 248 977 l 854 206 l 854 977 l 1017 977 l 1017 0 l 810 0 l 203 770 m 586 1017 l 472 1017 l 366 1180 l 481 1180 l 586 1017 z "},"ǹ":{"ha":1058,"x_min":41,"x_max":1017,"o":"m 203 770 l 203 0 l 41 0 l 41 977 l 248 977 l 854 206 l 854 977 l 1017 977 l 1017 0 l 810 0 l 203 770 m 586 1017 l 472 1017 l 366 1180 l 481 1180 l 586 1017 z "},"Ò":{"ha":1058,"x_min":41,"x_max":1017,"o":"m 529 0 q 184 143 327 0 q 41 488 41 286 q 184 833 41 690 q 529 977 327 977 q 874 833 731 977 q 1017 488 1017 690 q 874 143 1017 286 q 529 0 731 0 m 529 163 q 759 258 664 163 q 854 488 854 353 q 759 719 854 623 q 529 814 664 814 q 299 719 394 814 q 203 488 203 623 q 299 258 203 353 q 529 163 394 163 m 586 1017 l 471 1017 l 366 1180 l 481 1180 l 586 1017 z "},"ò":{"ha":1058,"x_min":41,"x_max":1017,"o":"m 529 0 q 184 143 327 0 q 41 488 41 286 q 184 833 41 690 q 529 977 327 977 q 874 833 731 977 q 1017 488 1017 690 q 874 143 1017 286 q 529 0 731 0 m 529 163 q 759 258 664 163 q 854 488 854 353 q 759 719 854 623 q 529 814 664 814 q 299 719 394 814 q 203 488 203 623 q 299 258 203 353 q 529 163 394 163 m 586 1017 l 471 1017 l 366 1180 l 481 1180 l 586 1017 z "},"Ù":{"ha":1058,"x_min":41,"x_max":1017,"o":"m 41 488 l 41 977 l 203 977 l 203 488 q 299 258 203 353 q 529 163 394 163 q 759 258 664 163 q 854 488 854 353 l 854 977 l 1017 977 l 1017 488 q 874 143 1017 286 q 529 0 731 0 q 184 143 327 0 q 41 488 41 286 m 586 1017 l 471 1017 l 366 1180 l 481 1180 l 586 1017 z "},"ù":{"ha":1058,"x_min":41,"x_max":1017,"o":"m 41 488 l 41 977 l 203 977 l 203 488 q 299 258 203 353 q 529 163 394 163 q 759 258 664 163 q 854 488 854 353 l 854 977 l 1017 977 l 1017 488 q 874 143 1017 286 q 529 0 731 0 q 184 143 327 0 q 41 488 41 286 m 586 1017 l 471 1017 l 366 1180 l 481 1180 l 586 1017 z "},"´":{"ha":407,"x_min":146,"x_max":366,"o":"m 366 1180 l 260 1017 l 146 1017 l 252 1180 l 366 1180 z "},"Á":{"ha":1058,"x_min":41,"x_max":1017,"o":"m 41 488 q 184 833 41 690 q 529 977 327 977 q 874 833 731 977 q 1017 488 1017 690 l 1017 0 l 854 0 l 854 163 l 203 163 l 203 0 l 41 0 l 41 488 m 692 1180 l 586 1017 l 471 1017 l 577 1180 l 692 1180 m 854 326 l 854 488 q 759 719 854 623 q 529 814 664 814 q 299 719 394 814 q 203 488 203 623 l 203 326 l 854 326 z "},"á":{"ha":1058,"x_min":41,"x_max":1017,"o":"m 41 488 q 184 833 41 690 q 529 977 327 977 q 874 833 731 977 q 1017 488 1017 690 l 1017 0 l 854 0 l 854 163 l 203 163 l 203 0 l 41 0 l 41 488 m 692 1180 l 586 1017 l 471 1017 l 577 1180 l 692 1180 m 854 326 l 854 488 q 759 719 854 623 q 529 814 664 814 q 299 719 394 814 q 203 488 203 623 l 203 326 l 854 326 z "},"É":{"ha":1058,"x_min":41,"x_max":1017,"o":"m 1017 977 l 1017 814 l 203 814 l 203 570 l 854 570 l 854 407 l 203 407 l 203 163 l 1017 163 l 1017 0 l 41 0 l 41 977 l 1017 977 m 692 1180 l 586 1017 l 471 1017 l 577 1180 l 692 1180 z "},"é":{"ha":1058,"x_min":41,"x_max":1017,"o":"m 1017 977 l 1017 814 l 203 814 l 203 570 l 854 570 l 854 407 l 203 407 l 203 163 l 1017 163 l 1017 0 l 41 0 l 41 977 l 1017 977 m 692 1180 l 586 1017 l 471 1017 l 577 1180 l 692 1180 z "},"Í":{"ha":244,"x_min":41,"x_max":285,"o":"m 203 0 l 41 0 l 41 977 l 203 977 l 203 0 m 285 1180 l 179 1017 l 64 1017 l 170 1180 l 285 1180 z "},"í":{"ha":244,"x_min":41,"x_max":285,"o":"m 203 0 l 41 0 l 41 977 l 203 977 l 203 0 m 285 1180 l 179 1017 l 64 1017 l 170 1180 l 285 1180 z "},"Ó":{"ha":1058,"x_min":41,"x_max":1017,"o":"m 529 0 q 184 143 327 0 q 41 488 41 286 q 184 833 41 690 q 529 977 327 977 q 874 833 731 977 q 1017 488 1017 690 q 874 143 1017 286 q 529 0 731 0 m 529 163 q 759 258 664 163 q 854 488 854 353 q 759 719 854 623 q 529 814 664 814 q 299 719 394 814 q 203 488 203 623 q 299 258 203 353 q 529 163 394 163 m 692 1180 l 586 1017 l 471 1017 l 577 1180 l 692 1180 z "},"ó":{"ha":1058,"x_min":41,"x_max":1017,"o":"m 529 0 q 184 143 327 0 q 41 488 41 286 q 184 833 41 690 q 529 977 327 977 q 874 833 731 977 q 1017 488 1017 690 q 874 143 1017 286 q 529 0 731 0 m 529 163 q 759 258 664 163 q 854 488 854 353 q 759 719 854 623 q 529 814 664 814 q 299 719 394 814 q 203 488 203 623 q 299 258 203 353 q 529 163 394 163 m 692 1180 l 586 1017 l 471 1017 l 577 1180 l 692 1180 z "},"Ú":{"ha":1058,"x_min":41,"x_max":1017,"o":"m 41 488 l 41 977 l 203 977 l 203 488 q 299 258 203 353 q 529 163 394 163 q 759 258 664 163 q 854 488 854 353 l 854 977 l 1017 977 l 1017 488 q 874 143 1017 286 q 529 0 731 0 q 184 143 327 0 q 41 488 41 286 m 692 1180 l 586 1017 l 471 1017 l 577 1180 l 692 1180 z "},"ú":{"ha":1058,"x_min":41,"x_max":1017,"o":"m 41 488 l 41 977 l 203 977 l 203 488 q 299 258 203 353 q 529 163 394 163 q 759 258 664 163 q 854 488 854 353 l 854 977 l 1017 977 l 1017 488 q 874 143 1017 286 q 529 0 731 0 q 184 143 327 0 q 41 488 41 286 m 692 1180 l 586 1017 l 471 1017 l 577 1180 l 692 1180 z "},"Ć":{"ha":570,"x_min":41,"x_max":529,"o":"m 529 163 l 529 0 q 184 143 327 0 q 41 488 41 286 q 184 833 41 690 q 529 977 327 977 l 529 814 q 299 719 394 814 q 203 488 203 623 q 299 258 203 353 q 529 163 394 163 m 529 1180 l 423 1017 l 309 1017 l 414 1180 l 529 1180 z "},"ć":{"ha":570,"x_min":41,"x_max":529,"o":"m 529 163 l 529 0 q 184 143 327 0 q 41 488 41 286 q 184 833 41 690 q 529 977 327 977 l 529 814 q 299 719 394 814 q 203 488 203 623 q 299 258 203 353 q 529 163 394 163 m 529 1180 l 423 1017 l 309 1017 l 414 1180 l 529 1180 z "},"Ń":{"ha":1058,"x_min":41,"x_max":1017,"o":"m 203 770 l 203 0 l 41 0 l 41 977 l 248 977 l 854 206 l 854 977 l 1017 977 l 1017 0 l 810 0 l 203 770 m 692 1180 l 586 1017 l 472 1017 l 578 1180 l 692 1180 z "},"ń":{"ha":1058,"x_min":41,"x_max":1017,"o":"m 203 770 l 203 0 l 41 0 l 41 977 l 248 977 l 854 206 l 854 977 l 1017 977 l 1017 0 l 810 0 l 203 770 m 692 1180 l 586 1017 l 472 1017 l 578 1180 l 692 1180 z "},"Ŕ":{"ha":732,"x_min":41,"x_max":692,"o":"m 407 977 q 608 893 525 977 q 692 692 692 810 l 692 610 q 608 409 692 492 q 434 327 534 335 l 692 0 l 485 0 l 228 326 l 203 326 l 203 0 l 41 0 l 41 977 l 407 977 m 468 1180 l 362 1017 l 248 1017 l 353 1180 l 468 1180 m 529 692 q 493 778 529 743 q 407 814 458 814 l 203 814 l 203 488 l 407 488 q 493 524 458 488 q 529 610 529 559 l 529 692 z "},"ŕ":{"ha":732,"x_min":41,"x_max":692,"o":"m 407 977 q 608 893 525 977 q 692 692 692 810 l 692 610 q 608 409 692 492 q 434 327 534 335 l 692 0 l 485 0 l 228 326 l 203 326 l 203 0 l 41 0 l 41 977 l 407 977 m 468 1180 l 362 1017 l 248 1017 l 353 1180 l 468 1180 m 529 692 q 493 778 529 743 q 407 814 458 814 l 203 814 l 203 488 l 407 488 q 493 524 458 488 q 529 610 529 559 l 529 692 z "},"Ś":{"ha":651,"x_min":41,"x_max":610,"o":"m 326 977 l 488 977 l 488 814 l 326 814 q 239 778 275 814 q 203 692 203 743 q 239 605 203 641 q 326 570 275 570 q 527 486 444 570 q 610 285 610 403 q 527 83 610 167 q 326 0 444 0 l 41 0 l 41 163 l 326 163 q 412 198 376 163 q 448 285 448 234 q 412 371 448 336 q 326 407 376 407 q 124 490 208 407 q 41 692 41 574 q 124 893 41 810 q 326 977 208 977 m 468 1180 l 362 1017 l 248 1017 l 353 1180 l 468 1180 z "},"ś":{"ha":651,"x_min":41,"x_max":610,"o":"m 326 977 l 488 977 l 488 814 l 326 814 q 239 778 275 814 q 203 692 203 743 q 239 605 203 641 q 326 570 275 570 q 527 486 444 570 q 610 285 610 403 q 527 83 610 167 q 326 0 444 0 l 41 0 l 41 163 l 326 163 q 412 198 376 163 q 448 285 448 234 q 412 371 448 336 q 326 407 376 407 q 124 490 208 407 q 41 692 41 574 q 124 893 41 810 q 326 977 208 977 m 468 1180 l 362 1017 l 248 1017 l 353 1180 l 468 1180 z "},"Ź":{"ha":1058,"x_min":41,"x_max":1017,"o":"m 682 814 l 41 814 l 41 977 l 1017 977 l 376 163 l 1017 163 l 1017 0 l 41 0 l 682 814 m 692 1180 l 586 1017 l 471 1017 l 577 1180 l 692 1180 z "},"ź":{"ha":1058,"x_min":41,"x_max":1017,"o":"m 682 814 l 41 814 l 41 977 l 1017 977 l 376 163 l 1017 163 l 1017 0 l 41 0 l 682 814 m 692 1180 l 586 1017 l 471 1017 l 577 1180 l 692 1180 z "},"Ǵ":{"ha":732,"x_min":41,"x_max":692,"o":"m 529 0 q 184 143 327 0 q 41 488 41 286 q 184 833 41 690 q 529 977 327 977 l 529 814 q 299 719 394 814 q 203 488 203 623 q 299 258 203 353 q 529 163 394 163 l 529 488 l 692 488 l 692 0 l 529 0 m 631 1180 l 525 1017 l 410 1017 l 516 1180 l 631 1180 z "},"ǵ":{"ha":732,"x_min":41,"x_max":692,"o":"m 529 0 q 184 143 327 0 q 41 488 41 286 q 184 833 41 690 q 529 977 327 977 l 529 814 q 299 719 394 814 q 203 488 203 623 q 299 258 203 353 q 529 163 394 163 l 529 488 l 692 488 l 692 0 l 529 0 m 631 1180 l 525 1017 l 410 1017 l 516 1180 l 631 1180 z "},"Ł":{"ha":1058,"x_min":41,"x_max":1017,"o":"m 366 163 l 1017 163 l 1017 0 l 203 0 l 203 319 l 144 244 l 41 244 l 203 450 l 203 977 l 366 977 l 366 656 l 426 732 l 529 732 l 366 526 l 366 163 z "},"ł":{"ha":1058,"x_min":41,"x_max":1017,"o":"m 366 163 l 1017 163 l 1017 0 l 203 0 l 203 319 l 144 244 l 41 244 l 203 450 l 203 977 l 366 977 l 366 656 l 426 732 l 529 732 l 366 526 l 366 163 z "},"˛":{"ha":305,"x_min":41,"x_max":264,"o":"m 41 -61 q 82 40 41 -2 q 183 81 124 81 l 183 0 q 140 -18 158 0 q 122 -61 122 -35 q 140 -104 122 -86 q 183 -122 158 -122 l 264 -122 l 264 -203 l 183 -203 q 82 -162 124 -203 q 41 -61 41 -120 z "},"Ą":{"ha":1058,"x_min":41,"x_max":1017,"o":"m 41 488 q 184 833 41 690 q 529 977 327 977 q 874 833 731 977 q 1017 488 1017 690 l 1017 0 l 936 0 q 893 -18 911 0 q 875 -61 875 -35 q 893 -104 875 -86 q 936 -122 911 -122 l 1017 -122 l 1017 -203 l 936 -203 q 835 -162 877 -203 q 793 -61 793 -120 q 836 40 793 -2 q 854 56 844 49 l 854 163 l 203 163 l 203 0 l 41 0 l 41 488 m 854 326 l 854 488 q 759 719 854 623 q 529 814 664 814 q 299 719 394 814 q 203 488 203 623 l 203 326 l 854 326 z "},"ą":{"ha":1058,"x_min":41,"x_max":1017,"o":"m 41 488 q 184 833 41 690 q 529 977 327 977 q 874 833 731 977 q 1017 488 1017 690 l 1017 0 l 936 0 q 893 -18 911 0 q 875 -61 875 -35 q 893 -104 875 -86 q 936 -122 911 -122 l 1017 -122 l 1017 -203 l 936 -203 q 835 -162 877 -203 q 793 -61 793 -120 q 836 40 793 -2 q 854 56 844 49 l 854 163 l 203 163 l 203 0 l 41 0 l 41 488 m 854 326 l 854 488 q 759 719 854 623 q 529 814 664 814 q 299 719 394 814 q 203 488 203 623 l 203 326 l 854 326 z "},"Ę":{"ha":1058,"x_min":41,"x_max":1017,"o":"m 1017 977 l 1017 814 l 203 814 l 203 570 l 854 570 l 854 407 l 203 407 l 203 163 l 1017 163 l 1017 0 l 935 0 q 893 -18 911 0 q 875 -61 875 -35 q 893 -104 875 -86 q 936 -122 911 -122 l 1017 -122 l 1017 -203 l 936 -203 q 835 -162 877 -203 q 793 -61 793 -120 q 807 0 793 -28 l 41 0 l 41 977 l 1017 977 z "},"ę":{"ha":1058,"x_min":41,"x_max":1017,"o":"m 1017 977 l 1017 814 l 203 814 l 203 570 l 854 570 l 854 407 l 203 407 l 203 163 l 1017 163 l 1017 0 l 935 0 q 893 -18 911 0 q 875 -61 875 -35 q 893 -104 875 -86 q 936 -122 911 -122 l 1017 -122 l 1017 -203 l 936 -203 q 835 -162 877 -203 q 793 -61 793 -120 q 807 0 793 -28 l 41 0 l 41 977 l 1017 977 z "},"Į":{"ha":244,"x_min":-20,"x_max":203,"o":"m 41 56 l 41 977 l 203 977 l 203 0 l 122 0 q 79 -18 97 0 q 61 -61 61 -35 q 79 -104 61 -86 q 122 -122 97 -122 l 203 -122 l 203 -203 l 122 -203 q 21 -162 63 -203 q -20 -61 -20 -120 q 22 40 -20 -2 q 41 56 31 49 z "},"į":{"ha":244,"x_min":-20,"x_max":203,"o":"m 41 56 l 41 977 l 203 977 l 203 0 l 122 0 q 79 -18 97 0 q 61 -61 61 -35 q 79 -104 61 -86 q 122 -122 97 -122 l 203 -122 l 203 -203 l 122 -203 q 21 -162 63 -203 q -20 -61 -20 -120 q 22 40 -20 -2 q 41 56 31 49 z "},"Ų":{"ha":1058,"x_min":41,"x_max":1017,"o":"m 426 10 q 184 143 289 38 q 41 488 41 286 l 41 977 l 203 977 l 203 488 q 299 258 203 353 q 529 163 394 163 q 759 258 664 163 q 854 488 854 353 l 854 977 l 1017 977 l 1017 488 q 874 143 1017 286 q 549 1 739 7 l 549 0 q 506 -18 524 0 q 488 -61 488 -35 q 506 -104 488 -86 q 549 -122 524 -122 l 631 -122 l 631 -203 l 549 -203 q 449 -162 490 -203 q 407 -61 407 -120 q 426 10 407 -22 z "},"ų":{"ha":1058,"x_min":41,"x_max":1017,"o":"m 426 10 q 184 143 289 38 q 41 488 41 286 l 41 977 l 203 977 l 203 488 q 299 258 203 353 q 529 163 394 163 q 759 258 664 163 q 854 488 854 353 l 854 977 l 1017 977 l 1017 488 q 874 143 1017 286 q 549 1 739 7 l 549 0 q 506 -18 524 0 q 488 -61 488 -35 q 506 -104 488 -86 q 549 -122 524 -122 l 631 -122 l 631 -203 l 549 -203 q 449 -162 490 -203 q 407 -61 407 -120 q 426 10 407 -22 z "},"Ǫ":{"ha":1058,"x_min":41,"x_max":1017,"o":"m 529 163 q 759 258 664 163 q 854 488 854 353 q 759 719 854 623 q 529 814 664 814 q 299 719 394 814 q 203 488 203 623 q 299 258 203 353 q 529 163 394 163 m 426 10 q 184 143 289 38 q 41 488 41 286 q 184 833 41 690 q 529 977 327 977 q 874 833 731 977 q 1017 488 1017 690 q 874 143 1017 286 q 549 1 739 7 l 549 0 q 506 -18 524 0 q 488 -61 488 -35 q 506 -104 488 -86 q 549 -122 524 -122 l 631 -122 l 631 -203 l 549 -203 q 449 -162 490 -203 q 407 -61 407 -120 q 426 10 407 -22 z "},"ǫ":{"ha":1058,"x_min":41,"x_max":1017,"o":"m 529 163 q 759 258 664 163 q 854 488 854 353 q 759 719 854 623 q 529 814 664 814 q 299 719 394 814 q 203 488 203 623 q 299 258 203 353 q 529 163 394 163 m 426 10 q 184 143 289 38 q 41 488 41 286 q 184 833 41 690 q 529 977 327 977 q 874 833 731 977 q 1017 488 1017 690 q 874 143 1017 286 q 549 1 739 7 l 549 0 q 506 -18 524 0 q 488 -61 488 -35 q 506 -104 488 -86 q 549 -122 524 -122 l 631 -122 l 631 -203 l 549 -203 q 449 -162 490 -203 q 407 -61 407 -120 q 426 10 407 -22 z "},"~":{"ha":977,"x_min":41,"x_max":936,"o":"m 203 366 l 203 326 l 41 326 l 41 366 q 124 568 41 484 q 326 651 208 651 q 522 570 444 651 q 651 488 601 488 q 738 524 703 488 q 773 610 773 560 l 773 651 l 936 651 l 936 610 q 852 409 936 492 q 651 326 769 326 q 455 407 533 326 q 326 488 377 488 q 239 453 275 488 q 203 366 203 418 z "},"{":{"ha":529,"x_min":41,"x_max":448,"o":"m 326 122 q 361 36 326 71 q 448 0 397 0 l 448 -163 q 246 -79 330 -163 q 163 122 163 4 l 163 285 q 127 371 163 336 q 41 407 92 407 l 41 570 q 127 605 92 570 q 163 692 163 641 l 163 854 q 246 1056 163 972 q 448 1139 330 1139 l 448 977 q 361 941 397 977 q 326 854 326 905 l 326 692 q 242 490 326 574 l 240 488 l 242 486 q 326 285 326 403 l 326 122 z "},"}":{"ha":529,"x_min":81,"x_max":488,"o":"m 366 122 q 283 -79 366 4 q 81 -163 199 -163 l 81 0 q 168 36 132 0 q 203 122 203 71 l 203 285 q 287 486 203 403 l 289 488 l 287 490 q 203 692 203 574 l 203 854 q 168 941 203 905 q 81 977 132 977 l 81 1139 q 283 1056 199 1139 q 366 854 366 972 l 366 692 q 402 605 366 641 q 488 570 437 570 l 488 407 q 402 371 437 407 q 366 285 366 336 l 366 122 z "},"¶":{"ha":854,"x_min":41,"x_max":814,"o":"m 326 407 q 124 490 208 407 q 41 692 41 574 q 124 893 41 810 q 326 977 208 977 l 814 977 l 814 814 l 732 814 l 732 -163 l 570 -163 l 570 814 l 488 814 l 488 -163 l 326 -163 l 326 407 z "},"А":{"ha":1058,"x_min":41,"x_max":1017,"o":"m 41 488 q 184 833 41 690 q 529 977 327 977 q 874 833 731 977 q 1017 488 1017 690 l 1017 0 l 854 0 l 854 163 l 203 163 l 203 0 l 41 0 l 41 488 m 854 326 l 854 488 q 759 719 854 623 q 529 814 664 814 q 299 719 394 814 q 203 488 203 623 l 203 326 l 854 326 z "},"а":{"ha":1058,"x_min":41,"x_max":1017,"o":"m 41 488 q 184 833 41 690 q 529 977 327 977 q 874 833 731 977 q 1017 488 1017 690 l 1017 0 l 854 0 l 854 163 l 203 163 l 203 0 l 41 0 l 41 488 m 854 326 l 854 488 q 759 719 854 623 q 529 814 664 814 q 299 719 394 814 q 203 488 203 623 l 203 326 l 854 326 z "},"Б":{"ha":732,"x_min":41,"x_max":692,"o":"m 407 163 q 493 198 458 163 q 529 285 529 234 l 529 366 q 493 453 529 417 q 407 488 458 488 l 203 488 l 203 163 l 407 163 m 692 285 q 608 83 692 167 q 407 0 525 0 l 41 0 l 41 977 l 610 977 l 610 814 l 203 814 l 203 651 l 407 651 q 608 568 525 651 q 692 366 692 484 l 692 285 z "},"б":{"ha":732,"x_min":41,"x_max":692,"o":"m 407 163 q 493 198 458 163 q 529 285 529 234 l 529 366 q 493 453 529 417 q 407 488 458 488 l 203 488 l 203 163 l 407 163 m 692 285 q 608 83 692 167 q 407 0 525 0 l 41 0 l 41 977 l 610 977 l 610 814 l 203 814 l 203 651 l 407 651 q 608 568 525 651 q 692 366 692 484 l 692 285 z "},"В":{"ha":732,"x_min":41,"x_max":692,"o":"m 203 570 l 244 570 q 331 605 295 570 q 366 692 366 641 q 331 778 366 743 q 244 814 295 814 l 203 814 l 203 570 m 407 163 q 493 198 458 163 q 529 285 529 234 q 493 371 529 336 q 407 407 458 407 l 203 407 l 203 163 l 407 163 m 496 556 q 608 486 558 536 q 692 285 692 403 q 608 83 692 167 q 407 0 525 0 l 41 0 l 41 977 l 244 977 q 446 893 362 977 q 529 692 529 810 q 496 556 529 617 z "},"в":{"ha":732,"x_min":41,"x_max":692,"o":"m 203 570 l 244 570 q 331 605 295 570 q 366 692 366 641 q 331 778 366 743 q 244 814 295 814 l 203 814 l 203 570 m 407 163 q 493 198 458 163 q 529 285 529 234 q 493 371 529 336 q 407 407 458 407 l 203 407 l 203 163 l 407 163 m 496 556 q 608 486 558 536 q 692 285 692 403 q 608 83 692 167 q 407 0 525 0 l 41 0 l 41 977 l 244 977 q 446 893 362 977 q 529 692 529 810 q 496 556 529 617 z "},"Г":{"ha":1058,"x_min":41,"x_max":1017,"o":"m 1017 977 l 1017 814 l 203 814 l 203 0 l 41 0 l 41 977 l 1017 977 z "},"г":{"ha":1058,"x_min":41,"x_max":1017,"o":"m 1017 977 l 1017 814 l 203 814 l 203 0 l 41 0 l 41 977 l 1017 977 z "},"Д":{"ha":895,"x_min":41,"x_max":854,"o":"m 732 163 l 854 163 l 854 -163 l 692 -163 l 692 0 l 203 0 l 203 -163 l 41 -163 l 41 163 l 82 163 q 168 199 132 163 q 203 285 203 234 l 203 977 l 732 977 l 732 163 m 570 163 l 570 814 l 366 814 l 366 285 q 340 163 366 218 l 570 163 z "},"д":{"ha":895,"x_min":41,"x_max":854,"o":"m 732 163 l 854 163 l 854 -163 l 692 -163 l 692 0 l 203 0 l 203 -163 l 41 -163 l 41 163 l 82 163 q 168 199 132 163 q 203 285 203 234 l 203 977 l 732 977 l 732 163 m 570 163 l 570 814 l 366 814 l 366 285 q 340 163 366 218 l 570 163 z "},"Е":{"ha":1058,"x_min":41,"x_max":1017,"o":"m 1017 977 l 1017 814 l 203 814 l 203 570 l 854 570 l 854 407 l 203 407 l 203 163 l 1017 163 l 1017 0 l 41 0 l 41 977 l 1017 977 z "},"е":{"ha":1058,"x_min":41,"x_max":1017,"o":"m 1017 977 l 1017 814 l 203 814 l 203 570 l 854 570 l 854 407 l 203 407 l 203 163 l 1017 163 l 1017 0 l 41 0 l 41 977 l 1017 977 z "},"Ж":{"ha":1058,"x_min":41,"x_max":1017,"o":"m 1017 81 l 1017 0 l 854 0 l 854 81 q 760 312 854 216 q 610 397 694 377 l 610 0 l 448 0 l 448 397 q 299 312 364 377 q 203 81 203 216 l 203 0 l 41 0 l 41 81 q 184 427 41 283 q 340 534 255 498 l 41 770 l 41 977 l 448 656 l 448 977 l 610 977 l 610 656 l 1017 977 l 1017 770 l 718 534 q 874 427 803 498 q 1017 81 1017 283 z "},"ж":{"ha":1058,"x_min":41,"x_max":1017,"o":"m 1017 81 l 1017 0 l 854 0 l 854 81 q 760 312 854 216 q 610 397 694 377 l 610 0 l 448 0 l 448 397 q 299 312 364 377 q 203 81 203 216 l 203 0 l 41 0 l 41 81 q 184 427 41 283 q 340 534 255 498 l 41 770 l 41 977 l 448 656 l 448 977 l 610 977 l 610 656 l 1017 977 l 1017 770 l 718 534 q 874 427 803 498 q 1017 81 1017 283 z "},"З":{"ha":732,"x_min":41,"x_max":692,"o":"m 326 0 q 124 83 208 0 q 41 285 41 167 l 203 285 q 239 198 203 234 q 326 163 275 163 l 407 163 q 493 198 458 163 q 529 285 529 234 q 493 371 529 336 q 407 407 458 407 l 203 407 l 203 570 l 326 570 q 412 605 376 570 q 448 692 448 641 q 412 778 448 743 q 326 814 376 814 q 239 778 275 814 q 203 692 203 743 l 41 692 q 124 893 41 810 q 326 977 208 977 q 527 893 444 977 q 610 692 610 810 q 558 527 610 598 q 608 486 585 510 q 692 285 692 403 q 608 83 692 167 q 407 0 525 0 l 326 0 z "},"з":{"ha":732,"x_min":41,"x_max":692,"o":"m 326 0 q 124 83 208 0 q 41 285 41 167 l 203 285 q 239 198 203 234 q 326 163 275 163 l 407 163 q 493 198 458 163 q 529 285 529 234 q 493 371 529 336 q 407 407 458 407 l 203 407 l 203 570 l 326 570 q 412 605 376 570 q 448 692 448 641 q 412 778 448 743 q 326 814 376 814 q 239 778 275 814 q 203 692 203 743 l 41 692 q 124 893 41 810 q 326 977 208 977 q 527 893 444 977 q 610 692 610 810 q 558 527 610 598 q 608 486 585 510 q 692 285 692 403 q 608 83 692 167 q 407 0 525 0 l 326 0 z "},"И":{"ha":1058,"x_min":41,"x_max":1017,"o":"m 1017 977 l 1017 0 l 854 0 l 854 770 l 248 0 l 41 0 l 41 977 l 203 977 l 203 206 l 810 977 l 1017 977 z "},"и":{"ha":1058,"x_min":41,"x_max":1017,"o":"m 1017 977 l 1017 0 l 854 0 l 854 770 l 248 0 l 41 0 l 41 977 l 203 977 l 203 206 l 810 977 l 1017 977 z "},"К":{"ha":732,"x_min":41,"x_max":692,"o":"m 203 357 l 203 0 l 41 0 l 41 977 l 203 977 l 203 619 l 485 977 l 692 977 l 307 488 l 692 0 l 485 0 l 203 357 z "},"к":{"ha":732,"x_min":41,"x_max":692,"o":"m 203 357 l 203 0 l 41 0 l 41 977 l 203 977 l 203 619 l 485 977 l 692 977 l 307 488 l 692 0 l 485 0 l 203 357 z "},"Л":{"ha":732,"x_min":41,"x_max":692,"o":"m 692 0 l 529 0 l 529 814 l 326 814 l 326 285 q 242 83 326 167 q 41 0 159 0 l 41 163 q 127 198 92 163 q 163 285 163 234 l 163 977 l 692 977 l 692 0 z "},"л":{"ha":732,"x_min":41,"x_max":692,"o":"m 692 0 l 529 0 l 529 814 l 326 814 l 326 285 q 242 83 326 167 q 41 0 159 0 l 41 163 q 127 198 92 163 q 163 285 163 234 l 163 977 l 692 977 l 692 0 z "},"М":{"ha":1058,"x_min":41,"x_max":1017,"o":"m 203 770 l 203 0 l 41 0 l 41 977 l 248 977 l 529 619 l 810 977 l 1017 977 l 1017 0 l 854 0 l 854 770 l 633 488 l 529 357 l 426 488 l 203 770 z "},"м":{"ha":1058,"x_min":41,"x_max":1017,"o":"m 203 770 l 203 0 l 41 0 l 41 977 l 248 977 l 529 619 l 810 977 l 1017 977 l 1017 0 l 854 0 l 854 770 l 633 488 l 529 357 l 426 488 l 203 770 z "},"Н":{"ha":1058,"x_min":41,"x_max":1017,"o":"m 203 407 l 203 0 l 41 0 l 41 977 l 203 977 l 203 570 l 854 570 l 854 977 l 1017 977 l 1017 0 l 854 0 l 854 407 l 203 407 z "},"н":{"ha":1058,"x_min":41,"x_max":1017,"o":"m 203 407 l 203 0 l 41 0 l 41 977 l 203 977 l 203 570 l 854 570 l 854 977 l 1017 977 l 1017 0 l 854 0 l 854 407 l 203 407 z "},"О":{"ha":1058,"x_min":41,"x_max":1017,"o":"m 529 0 q 184 143 327 0 q 41 488 41 286 q 184 833 41 690 q 529 977 327 977 q 874 833 731 977 q 1017 488 1017 690 q 874 143 1017 286 q 529 0 731 0 m 529 163 q 759 258 664 163 q 854 488 854 353 q 759 719 854 623 q 529 814 664 814 q 299 719 394 814 q 203 488 203 623 q 299 258 203 353 q 529 163 394 163 z "},"о":{"ha":1058,"x_min":41,"x_max":1017,"o":"m 529 0 q 184 143 327 0 q 41 488 41 286 q 184 833 41 690 q 529 977 327 977 q 874 833 731 977 q 1017 488 1017 690 q 874 143 1017 286 q 529 0 731 0 m 529 163 q 759 258 664 163 q 854 488 854 353 q 759 719 854 623 q 529 814 664 814 q 299 719 394 814 q 203 488 203 623 q 299 258 203 353 q 529 163 394 163 z "},"П":{"ha":732,"x_min":41,"x_max":692,"o":"m 692 0 l 529 0 l 529 814 l 203 814 l 203 0 l 41 0 l 41 977 l 692 977 l 692 0 z "},"п":{"ha":732,"x_min":41,"x_max":692,"o":"m 692 0 l 529 0 l 529 814 l 203 814 l 203 0 l 41 0 l 41 977 l 692 977 l 692 0 z "},"Р":{"ha":732,"x_min":41,"x_max":692,"o":"m 407 977 q 608 893 525 977 q 692 692 692 810 l 692 610 q 608 409 692 492 q 407 326 525 326 l 203 326 l 203 0 l 41 0 l 41 977 l 407 977 m 529 692 q 493 778 529 743 q 407 814 458 814 l 203 814 l 203 488 l 407 488 q 493 524 458 488 q 529 610 529 559 l 529 692 z "},"р":{"ha":732,"x_min":41,"x_max":692,"o":"m 407 977 q 608 893 525 977 q 692 692 692 810 l 692 610 q 608 409 692 492 q 407 326 525 326 l 203 326 l 203 0 l 41 0 l 41 977 l 407 977 m 529 692 q 493 778 529 743 q 407 814 458 814 l 203 814 l 203 488 l 407 488 q 493 524 458 488 q 529 610 529 559 l 529 692 z "},"С":{"ha":570,"x_min":41,"x_max":529,"o":"m 529 163 l 529 0 q 184 143 327 0 q 41 488 41 286 q 184 833 41 690 q 529 977 327 977 l 529 814 q 299 719 394 814 q 203 488 203 623 q 299 258 203 353 q 529 163 394 163 z "},"с":{"ha":570,"x_min":41,"x_max":529,"o":"m 529 163 l 529 0 q 184 143 327 0 q 41 488 41 286 q 184 833 41 690 q 529 977 327 977 l 529 814 q 299 719 394 814 q 203 488 203 623 q 299 258 203 353 q 529 163 394 163 z "},"Т":{"ha":1058,"x_min":41,"x_max":1017,"o":"m 1017 977 l 1017 814 l 610 814 l 610 0 l 448 0 l 448 814 l 41 814 l 41 977 l 1017 977 z "},"т":{"ha":1058,"x_min":41,"x_max":1017,"o":"m 1017 977 l 1017 814 l 610 814 l 610 0 l 448 0 l 448 814 l 41 814 l 41 977 l 1017 977 z "},"У":{"ha":1058,"x_min":41,"x_max":1017,"o":"m 529 620 l 810 977 l 1017 977 l 248 0 l 41 0 l 426 488 l 41 977 l 248 977 l 529 620 z "},"у":{"ha":1058,"x_min":41,"x_max":1017,"o":"m 529 620 l 810 977 l 1017 977 l 248 0 l 41 0 l 426 488 l 41 977 l 248 977 l 529 620 z "},"Ф":{"ha":1058,"x_min":41,"x_max":1017,"o":"m 610 225 q 760 296 694 242 q 854 488 854 376 q 760 680 854 601 q 610 751 694 734 l 610 225 m 448 225 l 448 751 q 299 680 364 734 q 203 488 203 601 q 299 296 203 376 q 448 225 364 242 m 610 87 l 610 0 l 448 0 l 448 87 q 184 201 297 106 q 41 488 41 319 q 184 777 41 657 q 448 890 297 871 l 448 977 l 610 977 l 610 890 q 874 777 761 871 q 1017 488 1017 657 q 874 201 1017 319 q 610 87 761 106 z "},"ф":{"ha":1058,"x_min":41,"x_max":1017,"o":"m 610 225 q 760 296 694 242 q 854 488 854 376 q 760 680 854 601 q 610 751 694 734 l 610 225 m 448 225 l 448 751 q 299 680 364 734 q 203 488 203 601 q 299 296 203 376 q 448 225 364 242 m 610 87 l 610 0 l 448 0 l 448 87 q 184 201 297 106 q 41 488 41 319 q 184 777 41 657 q 448 890 297 871 l 448 977 l 610 977 l 610 890 q 874 777 761 871 q 1017 488 1017 657 q 874 201 1017 319 q 610 87 761 106 z "},"Х":{"ha":1058,"x_min":41,"x_max":1017,"o":"m 633 488 l 1017 0 l 810 0 l 529 357 l 248 0 l 41 0 l 426 488 l 41 977 l 248 977 l 529 619 l 810 977 l 1017 977 l 633 488 z "},"х":{"ha":1058,"x_min":41,"x_max":1017,"o":"m 633 488 l 1017 0 l 810 0 l 529 357 l 248 0 l 41 0 l 426 488 l 41 977 l 248 977 l 529 619 l 810 977 l 1017 977 l 633 488 z "},"Ц":{"ha":732,"x_min":41,"x_max":692,"o":"m 41 977 l 203 977 l 203 163 l 366 163 l 366 977 l 529 977 l 529 163 l 692 163 l 692 -163 l 529 -163 l 529 0 l 41 0 l 41 977 z "},"ц":{"ha":732,"x_min":41,"x_max":692,"o":"m 41 977 l 203 977 l 203 163 l 366 163 l 366 977 l 529 977 l 529 163 l 692 163 l 692 -163 l 529 -163 l 529 0 l 41 0 l 41 977 z "},"Ч":{"ha":732,"x_min":41,"x_max":692,"o":"m 529 488 l 529 977 l 692 977 l 692 0 l 529 0 l 529 326 q 184 469 327 326 q 41 814 41 612 l 41 977 l 203 977 l 203 814 q 299 584 203 679 q 529 488 394 488 z "},"ч":{"ha":732,"x_min":41,"x_max":692,"o":"m 529 488 l 529 977 l 692 977 l 692 0 l 529 0 l 529 326 q 184 469 327 326 q 41 814 41 612 l 41 977 l 203 977 l 203 814 q 299 584 203 679 q 529 488 394 488 z "},"Ш":{"ha":1058,"x_min":41,"x_max":1017,"o":"m 41 977 l 203 977 l 203 163 l 448 163 l 448 977 l 610 977 l 610 163 l 854 163 l 854 977 l 1017 977 l 1017 0 l 41 0 l 41 977 z "},"ш":{"ha":1058,"x_min":41,"x_max":1017,"o":"m 41 977 l 203 977 l 203 163 l 448 163 l 448 977 l 610 977 l 610 163 l 854 163 l 854 977 l 1017 977 l 1017 0 l 41 0 l 41 977 z "},"Щ":{"ha":1058,"x_min":41,"x_max":1017,"o":"m 41 977 l 203 977 l 203 163 l 366 163 l 366 977 l 529 977 l 529 163 l 692 163 l 692 977 l 854 977 l 854 163 l 1017 163 l 1017 -163 l 854 -163 l 854 0 l 41 0 l 41 977 z "},"щ":{"ha":1058,"x_min":41,"x_max":1017,"o":"m 41 977 l 203 977 l 203 163 l 366 163 l 366 977 l 529 977 l 529 163 l 692 163 l 692 977 l 854 977 l 854 163 l 1017 163 l 1017 -163 l 854 -163 l 854 0 l 41 0 l 41 977 z "},"Ъ":{"ha":732,"x_min":41,"x_max":692,"o":"m 692 285 q 608 83 692 167 q 407 0 525 0 l 244 0 l 244 814 l 41 814 l 41 977 l 407 977 l 407 651 q 608 568 525 651 q 692 366 692 484 l 692 285 m 407 163 q 493 198 458 163 q 529 285 529 234 l 529 366 q 493 453 529 417 q 407 488 458 488 l 407 163 z "},"ъ":{"ha":732,"x_min":41,"x_max":692,"o":"m 692 285 q 608 83 692 167 q 407 0 525 0 l 244 0 l 244 814 l 41 814 l 41 977 l 407 977 l 407 651 q 608 568 525 651 q 692 366 692 484 l 692 285 m 407 163 q 493 198 458 163 q 529 285 529 234 l 529 366 q 493 453 529 417 q 407 488 458 488 l 407 163 z "},"Ы":{"ha":732,"x_min":41,"x_max":692,"o":"m 203 163 q 290 198 254 163 q 326 285 326 234 l 326 366 q 290 453 326 417 q 203 488 254 488 l 203 163 m 692 0 l 529 0 l 529 977 l 692 977 l 692 0 m 488 285 q 405 83 488 167 q 203 0 321 0 l 41 0 l 41 977 l 203 977 l 203 651 q 405 568 321 651 q 488 366 488 484 l 488 285 z "},"ы":{"ha":732,"x_min":41,"x_max":692,"o":"m 203 163 q 290 198 254 163 q 326 285 326 234 l 326 366 q 290 453 326 417 q 203 488 254 488 l 203 163 m 692 0 l 529 0 l 529 977 l 692 977 l 692 0 m 488 285 q 405 83 488 167 q 203 0 321 0 l 41 0 l 41 977 l 203 977 l 203 651 q 405 568 321 651 q 488 366 488 484 l 488 285 z "},"Ь":{"ha":732,"x_min":41,"x_max":692,"o":"m 407 163 q 493 198 458 163 q 529 285 529 234 l 529 366 q 493 453 529 417 q 407 488 458 488 l 203 488 l 203 163 l 407 163 m 692 285 q 608 83 692 167 q 407 0 525 0 l 41 0 l 41 977 l 203 977 l 203 651 l 407 651 q 608 568 525 651 q 692 366 692 484 l 692 285 z "},"ь":{"ha":732,"x_min":41,"x_max":692,"o":"m 407 163 q 493 198 458 163 q 529 285 529 234 l 529 366 q 493 453 529 417 q 407 488 458 488 l 203 488 l 203 163 l 407 163 m 692 285 q 608 83 692 167 q 407 0 525 0 l 41 0 l 41 977 l 203 977 l 203 651 l 407 651 q 608 568 525 651 q 692 366 692 484 l 692 285 z "},"Э":{"ha":570,"x_min":41,"x_max":529,"o":"m 357 570 q 271 719 336 653 q 41 814 176 814 l 41 977 q 386 833 243 977 q 529 488 529 690 q 386 143 529 286 q 41 0 243 0 l 41 163 q 271 258 176 163 q 357 407 336 323 l 41 407 l 41 570 l 357 570 z "},"э":{"ha":570,"x_min":41,"x_max":529,"o":"m 357 570 q 271 719 336 653 q 41 814 176 814 l 41 977 q 386 833 243 977 q 529 488 529 690 q 386 143 529 286 q 41 0 243 0 l 41 163 q 271 258 176 163 q 357 407 336 323 l 41 407 l 41 570 l 357 570 z "},"Ю":{"ha":1383,"x_min":41,"x_max":1343,"o":"m 854 163 q 1085 258 989 163 q 1180 488 1180 353 q 1085 719 1180 623 q 854 814 989 814 q 624 719 720 814 q 529 488 529 623 q 624 258 529 353 q 854 163 720 163 m 372 570 q 509 833 396 720 q 854 977 652 977 q 1200 833 1057 977 q 1343 488 1343 690 q 1200 143 1343 286 q 854 0 1057 0 q 509 143 652 0 q 372 407 396 256 l 203 407 l 203 0 l 41 0 l 41 977 l 203 977 l 203 570 l 372 570 z "},"ю":{"ha":1383,"x_min":41,"x_max":1343,"o":"m 854 163 q 1085 258 989 163 q 1180 488 1180 353 q 1085 719 1180 623 q 854 814 989 814 q 624 719 720 814 q 529 488 529 623 q 624 258 529 353 q 854 163 720 163 m 372 570 q 509 833 396 720 q 854 977 652 977 q 1200 833 1057 977 q 1343 488 1343 690 q 1200 143 1343 286 q 854 0 1057 0 q 509 143 652 0 q 372 407 396 256 l 203 407 l 203 0 l 41 0 l 41 977 l 203 977 l 203 570 l 372 570 z "},"Я":{"ha":732,"x_min":41,"x_max":692,"o":"m 326 814 q 239 778 275 814 q 203 692 203 743 l 203 610 q 239 524 203 559 q 326 488 275 488 l 529 488 l 529 814 l 326 814 m 41 692 q 124 893 41 810 q 326 977 208 977 l 692 977 l 692 0 l 529 0 l 529 326 l 505 326 l 248 0 l 41 0 l 298 327 q 124 409 198 335 q 41 610 41 492 l 41 692 z "},"я":{"ha":732,"x_min":41,"x_max":692,"o":"m 326 814 q 239 778 275 814 q 203 692 203 743 l 203 610 q 239 524 203 559 q 326 488 275 488 l 529 488 l 529 814 l 326 814 m 41 692 q 124 893 41 810 q 326 977 208 977 l 692 977 l 692 0 l 529 0 l 529 326 l 505 326 l 248 0 l 41 0 l 298 327 q 124 409 198 335 q 41 610 41 492 l 41 692 z "},"Ґ":{"ha":1058,"x_min":41,"x_max":1017,"o":"m 203 814 l 203 0 l 41 0 l 41 977 l 854 977 l 854 1139 l 1017 1139 l 1017 814 l 203 814 z "},"ґ":{"ha":1058,"x_min":41,"x_max":1017,"o":"m 203 814 l 203 0 l 41 0 l 41 977 l 854 977 l 854 1139 l 1017 1139 l 1017 814 l 203 814 z "},"Є":{"ha":570,"x_min":41,"x_max":529,"o":"m 213 407 q 299 258 233 323 q 529 163 394 163 l 529 0 q 184 143 327 0 q 41 488 41 286 q 184 833 41 690 q 529 977 327 977 l 529 814 q 299 719 394 814 q 213 570 233 653 l 529 570 l 529 407 l 213 407 z "},"є":{"ha":570,"x_min":41,"x_max":529,"o":"m 213 407 q 299 258 233 323 q 529 163 394 163 l 529 0 q 184 143 327 0 q 41 488 41 286 q 184 833 41 690 q 529 977 327 977 l 529 814 q 299 719 394 814 q 213 570 233 653 l 529 570 l 529 407 l 213 407 z "},"Ѕ":{"ha":651,"x_min":41,"x_max":610,"o":"m 326 977 l 488 977 l 488 814 l 326 814 q 239 778 275 814 q 203 692 203 743 q 239 605 203 641 q 326 570 275 570 q 527 486 444 570 q 610 285 610 403 q 527 83 610 167 q 326 0 444 0 l 41 0 l 41 163 l 326 163 q 412 198 376 163 q 448 285 448 234 q 412 371 448 336 q 326 407 376 407 q 124 490 208 407 q 41 692 41 574 q 124 893 41 810 q 326 977 208 977 z "},"ѕ":{"ha":651,"x_min":41,"x_max":610,"o":"m 326 977 l 488 977 l 488 814 l 326 814 q 239 778 275 814 q 203 692 203 743 q 239 605 203 641 q 326 570 275 570 q 527 486 444 570 q 610 285 610 403 q 527 83 610 167 q 326 0 444 0 l 41 0 l 41 163 l 326 163 q 412 198 376 163 q 448 285 448 234 q 412 371 448 336 q 326 407 376 407 q 124 490 208 407 q 41 692 41 574 q 124 893 41 810 q 326 977 208 977 z "},"І":{"ha":244,"x_min":41,"x_max":203,"o":"m 203 0 l 41 0 l 41 977 l 203 977 l 203 0 z "},"і":{"ha":244,"x_min":41,"x_max":203,"o":"m 203 0 l 41 0 l 41 977 l 203 977 l 203 0 z "},"Ј":{"ha":570,"x_min":41,"x_max":529,"o":"m 529 488 q 386 143 529 286 q 41 0 243 0 l 41 163 q 271 258 176 163 q 366 488 366 353 l 366 977 l 529 977 l 529 488 z "},"ј":{"ha":570,"x_min":41,"x_max":529,"o":"m 529 488 q 386 143 529 286 q 41 0 243 0 l 41 163 q 271 258 176 163 q 366 488 366 353 l 366 977 l 529 977 l 529 488 z "},"Ё":{"ha":1058,"x_min":41,"x_max":1017,"o":"m 1017 977 l 1017 814 l 203 814 l 203 570 l 854 570 l 854 407 l 203 407 l 203 163 l 1017 163 l 1017 0 l 41 0 l 41 977 l 1017 977 m 448 1058 l 285 1058 l 285 1139 l 448 1139 l 448 1058 m 773 1058 l 610 1058 l 610 1139 l 773 1139 l 773 1058 z "},"ё":{"ha":1058,"x_min":41,"x_max":1017,"o":"m 1017 977 l 1017 814 l 203 814 l 203 570 l 854 570 l 854 407 l 203 407 l 203 163 l 1017 163 l 1017 0 l 41 0 l 41 977 l 1017 977 m 448 1058 l 285 1058 l 285 1139 l 448 1139 l 448 1058 m 773 1058 l 610 1058 l 610 1139 l 773 1139 l 773 1058 z "},"Ї":{"ha":244,"x_min":-81,"x_max":326,"o":"m 203 0 l 41 0 l 41 977 l 203 977 l 203 0 m 326 1058 l 163 1058 l 163 1139 l 326 1139 l 326 1058 m 81 1058 l -81 1058 l -81 1139 l 81 1139 l 81 1058 z "},"ї":{"ha":244,"x_min":-81,"x_max":326,"o":"m 203 0 l 41 0 l 41 977 l 203 977 l 203 0 m 326 1058 l 163 1058 l 163 1139 l 326 1139 l 326 1058 m 81 1058 l -81 1058 l -81 1139 l 81 1139 l 81 1058 z "},"Ӟ":{"ha":732,"x_min":41,"x_max":692,"o":"m 326 0 q 124 83 208 0 q 41 285 41 167 l 203 285 q 239 198 203 234 q 326 163 275 163 l 407 163 q 493 198 458 163 q 529 285 529 234 q 493 371 529 336 q 407 407 458 407 l 203 407 l 203 570 l 326 570 q 412 605 376 570 q 448 692 448 641 q 412 778 448 743 q 326 814 376 814 q 239 778 275 814 q 203 692 203 743 l 41 692 q 124 893 41 810 q 326 977 208 977 q 527 893 444 977 q 610 692 610 810 q 558 527 610 598 q 608 486 585 510 q 692 285 692 403 q 608 83 692 167 q 407 0 525 0 l 326 0 m 285 1058 l 122 1058 l 122 1139 l 285 1139 l 285 1058 m 610 1058 l 448 1058 l 448 1139 l 610 1139 l 610 1058 z "},"ӟ":{"ha":732,"x_min":41,"x_max":692,"o":"m 326 0 q 124 83 208 0 q 41 285 41 167 l 203 285 q 239 198 203 234 q 326 163 275 163 l 407 163 q 493 198 458 163 q 529 285 529 234 q 493 371 529 336 q 407 407 458 407 l 203 407 l 203 570 l 326 570 q 412 605 376 570 q 448 692 448 641 q 412 778 448 743 q 326 814 376 814 q 239 778 275 814 q 203 692 203 743 l 41 692 q 124 893 41 810 q 326 977 208 977 q 527 893 444 977 q 610 692 610 810 q 558 527 610 598 q 608 486 585 510 q 692 285 692 403 q 608 83 692 167 q 407 0 525 0 l 326 0 m 285 1058 l 122 1058 l 122 1139 l 285 1139 l 285 1058 m 610 1058 l 448 1058 l 448 1139 l 610 1139 l 610 1058 z "},"Ӵ":{"ha":732,"x_min":41,"x_max":692,"o":"m 529 488 l 529 977 l 692 977 l 692 0 l 529 0 l 529 326 q 184 469 327 326 q 41 814 41 612 l 41 977 l 203 977 l 203 814 q 299 584 203 679 q 529 488 394 488 m 285 1058 l 122 1058 l 122 1139 l 285 1139 l 285 1058 m 610 1058 l 448 1058 l 448 1139 l 610 1139 l 610 1058 z "},"ӵ":{"ha":732,"x_min":41,"x_max":692,"o":"m 529 488 l 529 977 l 692 977 l 692 0 l 529 0 l 529 326 q 184 469 327 326 q 41 814 41 612 l 41 977 l 203 977 l 203 814 q 299 584 203 679 q 529 488 394 488 m 285 1058 l 122 1058 l 122 1139 l 285 1139 l 285 1058 m 610 1058 l 448 1058 l 448 1139 l 610 1139 l 610 1058 z "},"Ӝ":{"ha":1058,"x_min":41,"x_max":1017,"o":"m 1017 81 l 1017 0 l 854 0 l 854 81 q 760 312 854 216 q 610 397 694 377 l 610 0 l 448 0 l 448 397 q 299 312 364 377 q 203 81 203 216 l 203 0 l 41 0 l 41 81 q 184 427 41 283 q 340 534 255 498 l 41 770 l 41 977 l 448 656 l 448 977 l 610 977 l 610 656 l 1017 977 l 1017 770 l 718 534 q 874 427 803 498 q 1017 81 1017 283 m 448 1058 l 285 1058 l 285 1139 l 448 1139 l 448 1058 m 773 1058 l 610 1058 l 610 1139 l 773 1139 l 773 1058 z "},"ӝ":{"ha":1058,"x_min":41,"x_max":1017,"o":"m 1017 81 l 1017 0 l 854 0 l 854 81 q 760 312 854 216 q 610 397 694 377 l 610 0 l 448 0 l 448 397 q 299 312 364 377 q 203 81 203 216 l 203 0 l 41 0 l 41 81 q 184 427 41 283 q 340 534 255 498 l 41 770 l 41 977 l 448 656 l 448 977 l 610 977 l 610 656 l 1017 977 l 1017 770 l 718 534 q 874 427 803 498 q 1017 81 1017 283 m 448 1058 l 285 1058 l 285 1139 l 448 1139 l 448 1058 m 773 1058 l 610 1058 l 610 1139 l 773 1139 l 773 1058 z "},"Й":{"ha":1058,"x_min":41,"x_max":1017,"o":"m 1017 977 l 1017 0 l 854 0 l 854 770 l 248 0 l 41 0 l 41 977 l 203 977 l 203 206 l 810 977 l 1017 977 m 509 1017 q 408 1059 450 1017 q 366 1160 366 1101 l 366 1180 l 448 1180 l 448 1160 q 466 1116 448 1134 q 509 1099 484 1099 l 549 1099 q 592 1116 574 1099 q 610 1160 610 1134 l 610 1180 l 692 1180 l 692 1160 q 650 1059 692 1101 q 549 1017 608 1017 l 509 1017 z "},"й":{"ha":1058,"x_min":41,"x_max":1017,"o":"m 1017 977 l 1017 0 l 854 0 l 854 770 l 248 0 l 41 0 l 41 977 l 203 977 l 203 206 l 810 977 l 1017 977 m 509 1017 q 408 1059 450 1017 q 366 1160 366 1101 l 366 1180 l 448 1180 l 448 1160 q 466 1116 448 1134 q 509 1099 484 1099 l 549 1099 q 592 1116 574 1099 q 610 1160 610 1134 l 610 1180 l 692 1180 l 692 1160 q 650 1059 692 1101 q 549 1017 608 1017 l 509 1017 z "},"Ў":{"ha":1058,"x_min":41,"x_max":1017,"o":"m 529 620 l 810 977 l 1017 977 l 248 0 l 41 0 l 426 488 l 41 977 l 248 977 l 529 620 m 509 1017 q 408 1059 450 1017 q 366 1160 366 1101 l 366 1180 l 448 1180 l 448 1160 q 466 1116 448 1134 q 509 1099 484 1099 l 549 1099 q 592 1116 574 1099 q 610 1160 610 1134 l 610 1180 l 692 1180 l 692 1160 q 650 1059 692 1101 q 549 1017 608 1017 l 509 1017 z "},"ў":{"ha":1058,"x_min":41,"x_max":1017,"o":"m 529 620 l 810 977 l 1017 977 l 248 0 l 41 0 l 426 488 l 41 977 l 248 977 l 529 620 m 509 1017 q 408 1059 450 1017 q 366 1160 366 1101 l 366 1180 l 448 1180 l 448 1160 q 466 1116 448 1134 q 509 1099 484 1099 l 549 1099 q 592 1116 574 1099 q 610 1160 610 1134 l 610 1180 l 692 1180 l 692 1160 q 650 1059 692 1101 q 549 1017 608 1017 l 509 1017 z "},"Ӂ":{"ha":1058,"x_min":41,"x_max":1017,"o":"m 1017 81 l 1017 0 l 854 0 l 854 81 q 760 312 854 216 q 610 397 694 377 l 610 0 l 448 0 l 448 397 q 299 312 364 377 q 203 81 203 216 l 203 0 l 41 0 l 41 81 q 184 427 41 283 q 340 534 255 498 l 41 770 l 41 977 l 448 656 l 448 977 l 610 977 l 610 656 l 1017 977 l 1017 770 l 718 534 q 874 427 803 498 q 1017 81 1017 283 m 509 1017 q 408 1059 450 1017 q 366 1160 366 1101 l 366 1180 l 448 1180 l 448 1160 q 466 1116 448 1134 q 509 1099 484 1099 l 549 1099 q 592 1116 574 1099 q 610 1160 610 1134 l 610 1180 l 692 1180 l 692 1160 q 650 1059 692 1101 q 549 1017 608 1017 l 509 1017 z "},"ӂ":{"ha":1058,"x_min":41,"x_max":1017,"o":"m 1017 81 l 1017 0 l 854 0 l 854 81 q 760 312 854 216 q 610 397 694 377 l 610 0 l 448 0 l 448 397 q 299 312 364 377 q 203 81 203 216 l 203 0 l 41 0 l 41 81 q 184 427 41 283 q 340 534 255 498 l 41 770 l 41 977 l 448 656 l 448 977 l 610 977 l 610 656 l 1017 977 l 1017 770 l 718 534 q 874 427 803 498 q 1017 81 1017 283 m 509 1017 q 408 1059 450 1017 q 366 1160 366 1101 l 366 1180 l 448 1180 l 448 1160 q 466 1116 448 1134 q 509 1099 484 1099 l 549 1099 q 592 1116 574 1099 q 610 1160 610 1134 l 610 1180 l 692 1180 l 692 1160 q 650 1059 692 1101 q 549 1017 608 1017 l 509 1017 z "},"Џ":{"ha":732,"x_min":41,"x_max":692,"o":"m 41 977 l 203 977 l 203 163 l 529 163 l 529 977 l 692 977 l 692 0 l 448 0 l 448 -163 l 285 -163 l 285 0 l 41 0 l 41 977 z "},"џ":{"ha":732,"x_min":41,"x_max":692,"o":"m 41 977 l 203 977 l 203 163 l 529 163 l 529 977 l 692 977 l 692 0 l 448 0 l 448 -163 l 285 -163 l 285 0 l 41 0 l 41 977 z "},"Ө":{"ha":1058,"x_min":41,"x_max":1017,"o":"m 213 407 q 299 258 233 323 q 529 163 394 163 q 760 258 664 163 q 845 407 825 323 l 213 407 m 845 570 q 760 719 825 653 q 529 814 664 814 q 299 719 394 814 q 213 570 233 653 l 845 570 m 529 0 q 184 143 327 0 q 41 488 41 286 q 184 833 41 690 q 529 977 327 977 q 874 833 731 977 q 1017 488 1017 690 q 874 143 1017 286 q 529 0 731 0 z "},"ө":{"ha":1058,"x_min":41,"x_max":1017,"o":"m 213 407 q 299 258 233 323 q 529 163 394 163 q 760 258 664 163 q 845 407 825 323 l 213 407 m 845 570 q 760 719 825 653 q 529 814 664 814 q 299 719 394 814 q 213 570 233 653 l 845 570 m 529 0 q 184 143 327 0 q 41 488 41 286 q 184 833 41 690 q 529 977 327 977 q 874 833 731 977 q 1017 488 1017 690 q 874 143 1017 286 q 529 0 731 0 z "},"Ӧ":{"ha":1058,"x_min":41,"x_max":1017,"o":"m 529 0 q 184 143 327 0 q 41 488 41 286 q 184 833 41 690 q 529 977 327 977 q 874 833 731 977 q 1017 488 1017 690 q 874 143 1017 286 q 529 0 731 0 m 529 163 q 759 258 664 163 q 854 488 854 353 q 759 719 854 623 q 529 814 664 814 q 299 719 394 814 q 203 488 203 623 q 299 258 203 353 q 529 163 394 163 m 773 1058 l 610 1058 l 610 1139 l 773 1139 l 773 1058 m 448 1058 l 285 1058 l 285 1139 l 448 1139 l 448 1058 z "},"ӧ":{"ha":1058,"x_min":41,"x_max":1017,"o":"m 529 0 q 184 143 327 0 q 41 488 41 286 q 184 833 41 690 q 529 977 327 977 q 874 833 731 977 q 1017 488 1017 690 q 874 143 1017 286 q 529 0 731 0 m 529 163 q 759 258 664 163 q 854 488 854 353 q 759 719 854 623 q 529 814 664 814 q 299 719 394 814 q 203 488 203 623 q 299 258 203 353 q 529 163 394 163 m 773 1058 l 610 1058 l 610 1139 l 773 1139 l 773 1058 m 448 1058 l 285 1058 l 285 1139 l 448 1139 l 448 1058 z "},"Ӫ":{"ha":1058,"x_min":41,"x_max":1017,"o":"m 213 407 q 299 258 233 323 q 529 163 394 163 q 760 258 664 163 q 845 407 825 323 l 213 407 m 845 570 q 760 719 825 653 q 529 814 664 814 q 299 719 394 814 q 213 570 233 653 l 845 570 m 529 0 q 184 143 327 0 q 41 488 41 286 q 184 833 41 690 q 529 977 327 977 q 874 833 731 977 q 1017 488 1017 690 q 874 143 1017 286 q 529 0 731 0 m 448 1058 l 285 1058 l 285 1139 l 448 1139 l 448 1058 m 773 1058 l 610 1058 l 610 1139 l 773 1139 l 773 1058 z "},"ӫ":{"ha":1058,"x_min":41,"x_max":1017,"o":"m 213 407 q 299 258 233 323 q 529 163 394 163 q 760 258 664 163 q 845 407 825 323 l 213 407 m 845 570 q 760 719 825 653 q 529 814 664 814 q 299 719 394 814 q 213 570 233 653 l 845 570 m 529 0 q 184 143 327 0 q 41 488 41 286 q 184 833 41 690 q 529 977 327 977 q 874 833 731 977 q 1017 488 1017 690 q 874 143 1017 286 q 529 0 731 0 m 448 1058 l 285 1058 l 285 1139 l 448 1139 l 448 1058 m 773 1058 l 610 1058 l 610 1139 l 773 1139 l 773 1058 z "},"Ѐ":{"ha":1058,"x_min":41,"x_max":1017,"o":"m 1017 977 l 1017 814 l 203 814 l 203 570 l 854 570 l 854 407 l 203 407 l 203 163 l 1017 163 l 1017 0 l 41 0 l 41 977 l 1017 977 m 586 1017 l 471 1017 l 366 1180 l 481 1180 l 586 1017 z "},"ѐ":{"ha":1058,"x_min":41,"x_max":1017,"o":"m 1017 977 l 1017 814 l 203 814 l 203 570 l 854 570 l 854 407 l 203 407 l 203 163 l 1017 163 l 1017 0 l 41 0 l 41 977 l 1017 977 m 586 1017 l 471 1017 l 366 1180 l 481 1180 l 586 1017 z "},"Ѓ":{"ha":1058,"x_min":41,"x_max":1017,"o":"m 1017 977 l 1017 814 l 203 814 l 203 0 l 41 0 l 41 977 l 1017 977 m 692 1180 l 586 1017 l 471 1017 l 577 1180 l 692 1180 z "},"ѓ":{"ha":1058,"x_min":41,"x_max":1017,"o":"m 1017 977 l 1017 814 l 203 814 l 203 0 l 41 0 l 41 977 l 1017 977 m 692 1180 l 586 1017 l 471 1017 l 577 1180 l 692 1180 z "},"Ќ":{"ha":732,"x_min":41,"x_max":692,"o":"m 203 357 l 203 0 l 41 0 l 41 977 l 203 977 l 203 619 l 485 977 l 692 977 l 307 488 l 692 0 l 485 0 l 203 357 m 468 1180 l 362 1017 l 248 1017 l 353 1180 l 468 1180 z "},"ќ":{"ha":732,"x_min":41,"x_max":692,"o":"m 203 357 l 203 0 l 41 0 l 41 977 l 203 977 l 203 619 l 485 977 l 692 977 l 307 488 l 692 0 l 485 0 l 203 357 m 468 1180 l 362 1017 l 248 1017 l 353 1180 l 468 1180 z "},"Ѝ":{"ha":1058,"x_min":41,"x_max":1017,"o":"m 1017 977 l 1017 0 l 854 0 l 854 770 l 248 0 l 41 0 l 41 977 l 203 977 l 203 206 l 810 977 l 1017 977 m 586 1017 l 471 1017 l 366 1180 l 481 1180 l 586 1017 z "},"ѝ":{"ha":1058,"x_min":41,"x_max":1017,"o":"m 1017 977 l 1017 0 l 854 0 l 854 770 l 248 0 l 41 0 l 41 977 l 203 977 l 203 206 l 810 977 l 1017 977 m 586 1017 l 471 1017 l 366 1180 l 481 1180 l 586 1017 z "},"Ӥ":{"ha":1058,"x_min":41,"x_max":1017,"o":"m 1017 977 l 1017 0 l 854 0 l 854 770 l 248 0 l 41 0 l 41 977 l 203 977 l 203 206 l 810 977 l 1017 977 m 448 1058 l 285 1058 l 285 1139 l 448 1139 l 448 1058 m 773 1058 l 610 1058 l 610 1139 l 773 1139 l 773 1058 z "},"ӥ":{"ha":1058,"x_min":41,"x_max":1017,"o":"m 1017 977 l 1017 0 l 854 0 l 854 770 l 248 0 l 41 0 l 41 977 l 203 977 l 203 206 l 810 977 l 1017 977 m 448 1058 l 285 1058 l 285 1139 l 448 1139 l 448 1058 m 773 1058 l 610 1058 l 610 1139 l 773 1139 l 773 1058 z "},"Ӣ":{"ha":1058,"x_min":41,"x_max":1017,"o":"m 1017 977 l 1017 0 l 854 0 l 854 770 l 248 0 l 41 0 l 41 977 l 203 977 l 203 206 l 810 977 l 1017 977 m 773 1058 l 285 1058 l 285 1139 l 773 1139 l 773 1058 z "},"ӣ":{"ha":1058,"x_min":41,"x_max":1017,"o":"m 1017 977 l 1017 0 l 854 0 l 854 770 l 248 0 l 41 0 l 41 977 l 203 977 l 203 206 l 810 977 l 1017 977 m 773 1058 l 285 1058 l 285 1139 l 773 1139 l 773 1058 z "},"Һ":{"ha":732,"x_min":41,"x_max":692,"o":"m 203 651 l 203 0 l 41 0 l 41 977 l 203 977 l 203 814 q 549 671 406 814 q 692 326 692 528 l 692 0 l 529 0 l 529 326 q 434 556 529 460 q 203 651 338 651 z "},"һ":{"ha":732,"x_min":41,"x_max":692,"o":"m 203 651 l 203 0 l 41 0 l 41 977 l 203 977 l 203 814 q 549 671 406 814 q 692 326 692 528 l 692 0 l 529 0 l 529 326 q 434 556 529 460 q 203 651 338 651 z "},"Ү":{"ha":732,"x_min":41,"x_max":692,"o":"m 366 503 l 520 977 l 692 977 l 375 0 l 203 0 l 281 238 l 199 488 l 41 977 l 212 977 l 366 503 z "},"ү":{"ha":732,"x_min":41,"x_max":692,"o":"m 366 503 l 520 977 l 692 977 l 375 0 l 203 0 l 281 238 l 199 488 l 41 977 l 212 977 l 366 503 z "},"Ұ":{"ha":732,"x_min":41,"x_max":692,"o":"m 366 503 l 520 977 l 692 977 l 521 448 l 692 448 l 692 366 l 494 366 l 375 0 l 203 0 l 281 238 l 239 366 l 41 366 l 41 448 l 212 448 l 199 488 l 41 977 l 212 977 l 366 503 z "},"ұ":{"ha":732,"x_min":41,"x_max":692,"o":"m 366 503 l 520 977 l 692 977 l 521 448 l 692 448 l 692 366 l 494 366 l 375 0 l 203 0 l 281 238 l 239 366 l 41 366 l 41 448 l 212 448 l 199 488 l 41 977 l 212 977 l 366 503 z "},"Ҹ":{"ha":732,"x_min":41,"x_max":692,"o":"m 41 814 l 41 977 l 203 977 l 203 814 q 299 584 203 679 q 326 559 312 570 l 326 732 l 407 732 l 407 511 q 529 488 463 488 l 529 977 l 692 977 l 692 0 l 529 0 l 529 326 q 407 340 465 326 l 407 244 l 326 244 l 326 368 q 184 469 249 404 q 41 814 41 612 z "},"ҹ":{"ha":732,"x_min":41,"x_max":692,"o":"m 41 814 l 41 977 l 203 977 l 203 814 q 299 584 203 679 q 326 559 312 570 l 326 732 l 407 732 l 407 511 q 529 488 463 488 l 529 977 l 692 977 l 692 0 l 529 0 l 529 326 q 407 340 465 326 l 407 244 l 326 244 l 326 368 q 184 469 249 404 q 41 814 41 612 z "},"Ӱ":{"ha":1058,"x_min":41,"x_max":1017,"o":"m 529 620 l 810 977 l 1017 977 l 248 0 l 41 0 l 426 488 l 41 977 l 248 977 l 529 620 m 448 1058 l 285 1058 l 285 1139 l 448 1139 l 448 1058 m 773 1058 l 610 1058 l 610 1139 l 773 1139 l 773 1058 z "},"ӱ":{"ha":1058,"x_min":41,"x_max":1017,"o":"m 529 620 l 810 977 l 1017 977 l 248 0 l 41 0 l 426 488 l 41 977 l 248 977 l 529 620 m 448 1058 l 285 1058 l 285 1139 l 448 1139 l 448 1058 m 773 1058 l 610 1058 l 610 1139 l 773 1139 l 773 1058 z "},"Ӯ":{"ha":1058,"x_min":41,"x_max":1017,"o":"m 529 620 l 810 977 l 1017 977 l 248 0 l 41 0 l 426 488 l 41 977 l 248 977 l 529 620 m 773 1058 l 285 1058 l 285 1139 l 773 1139 l 773 1058 z "},"ӯ":{"ha":1058,"x_min":41,"x_max":1017,"o":"m 529 620 l 810 977 l 1017 977 l 248 0 l 41 0 l 426 488 l 41 977 l 248 977 l 529 620 m 773 1058 l 285 1058 l 285 1139 l 773 1139 l 773 1058 z "},"Ғ":{"ha":1058,"x_min":41,"x_max":1017,"o":"m 1017 977 l 1017 814 l 285 814 l 285 529 l 529 529 l 529 448 l 285 448 l 285 0 l 122 0 l 122 448 l 41 448 l 41 529 l 122 529 l 122 977 l 1017 977 z "},"ғ":{"ha":1058,"x_min":41,"x_max":1017,"o":"m 1017 977 l 1017 814 l 285 814 l 285 529 l 529 529 l 529 448 l 285 448 l 285 0 l 122 0 l 122 448 l 41 448 l 41 529 l 122 529 l 122 977 l 1017 977 z "},"Ң":{"ha":1058,"x_min":41,"x_max":1017,"o":"m 203 407 l 203 0 l 41 0 l 41 977 l 203 977 l 203 570 l 692 570 l 692 977 l 854 977 l 854 163 l 1017 163 l 1017 -163 l 854 -163 l 854 0 l 692 0 l 692 407 l 203 407 z "},"ң":{"ha":1058,"x_min":41,"x_max":1017,"o":"m 203 407 l 203 0 l 41 0 l 41 977 l 203 977 l 203 570 l 692 570 l 692 977 l 854 977 l 854 163 l 1017 163 l 1017 -163 l 854 -163 l 854 0 l 692 0 l 692 407 l 203 407 z "},"Ҳ":{"ha":1058,"x_min":41,"x_max":1017,"o":"m 426 488 l 41 977 l 248 977 l 529 619 l 810 977 l 1017 977 l 633 488 l 889 163 l 1017 163 l 1017 -163 l 854 -163 l 854 0 l 810 0 l 529 357 l 248 0 l 41 0 l 426 488 z "},"ҳ":{"ha":1058,"x_min":41,"x_max":1017,"o":"m 426 488 l 41 977 l 248 977 l 529 619 l 810 977 l 1017 977 l 633 488 l 889 163 l 1017 163 l 1017 -163 l 854 -163 l 854 0 l 810 0 l 529 357 l 248 0 l 41 0 l 426 488 z "},"Қ":{"ha":732,"x_min":41,"x_max":692,"o":"m 203 357 l 203 0 l 41 0 l 41 977 l 203 977 l 203 619 l 485 977 l 692 977 l 307 488 l 564 163 l 692 163 l 692 -163 l 529 -163 l 529 0 l 485 0 l 203 357 z "},"қ":{"ha":732,"x_min":41,"x_max":692,"o":"m 203 357 l 203 0 l 41 0 l 41 977 l 203 977 l 203 619 l 485 977 l 692 977 l 307 488 l 564 163 l 692 163 l 692 -163 l 529 -163 l 529 0 l 485 0 l 203 357 z "},"Ђ":{"ha":895,"x_min":41,"x_max":854,"o":"m 203 814 l 41 814 l 41 977 l 692 977 l 692 814 l 366 814 l 366 570 l 570 570 q 771 486 688 570 q 854 285 854 403 l 854 122 q 771 -79 854 4 q 570 -163 688 -163 l 570 0 q 656 36 621 0 q 692 122 692 71 l 692 285 q 656 371 692 336 q 570 407 621 407 l 366 407 l 366 0 l 203 0 l 203 814 z "},"ђ":{"ha":895,"x_min":41,"x_max":854,"o":"m 203 814 l 41 814 l 41 977 l 692 977 l 692 814 l 366 814 l 366 570 l 570 570 q 771 486 688 570 q 854 285 854 403 l 854 122 q 771 -79 854 4 q 570 -163 688 -163 l 570 0 q 656 36 621 0 q 692 122 692 71 l 692 285 q 656 371 692 336 q 570 407 621 407 l 366 407 l 366 0 l 203 0 l 203 814 z "},"Ћ":{"ha":1058,"x_min":41,"x_max":1017,"o":"m 203 814 l 41 814 l 41 977 l 854 977 l 854 814 l 366 814 l 366 570 l 529 570 q 874 427 731 570 q 1017 81 1017 283 l 1017 0 l 854 0 l 854 81 q 759 312 854 216 q 529 407 664 407 l 366 407 l 366 0 l 203 0 l 203 814 z "},"ћ":{"ha":1058,"x_min":41,"x_max":1017,"o":"m 203 814 l 41 814 l 41 977 l 854 977 l 854 814 l 366 814 l 366 570 l 529 570 q 874 427 731 570 q 1017 81 1017 283 l 1017 0 l 854 0 l 854 81 q 759 312 854 216 q 529 407 664 407 l 366 407 l 366 0 l 203 0 l 203 814 z "},"Љ":{"ha":1058,"x_min":41,"x_max":1017,"o":"m 732 163 q 819 198 783 163 q 854 285 854 234 l 854 366 q 819 453 854 417 q 732 488 783 488 l 732 163 m 1017 285 q 934 83 1017 167 q 732 0 850 0 l 570 0 l 570 488 l 326 488 l 326 285 q 242 83 326 167 q 41 0 159 0 l 41 163 q 127 198 92 163 q 163 285 163 234 l 163 977 l 326 977 l 326 651 l 570 651 l 570 977 l 732 977 l 732 651 q 934 568 850 651 q 1017 366 1017 484 l 1017 285 z "},"љ":{"ha":1058,"x_min":41,"x_max":1017,"o":"m 732 163 q 819 198 783 163 q 854 285 854 234 l 854 366 q 819 453 854 417 q 732 488 783 488 l 732 163 m 1017 285 q 934 83 1017 167 q 732 0 850 0 l 570 0 l 570 488 l 326 488 l 326 285 q 242 83 326 167 q 41 0 159 0 l 41 163 q 127 198 92 163 q 163 285 163 234 l 163 977 l 326 977 l 326 651 l 570 651 l 570 977 l 732 977 l 732 651 q 934 568 850 651 q 1017 366 1017 484 l 1017 285 z "},"Њ":{"ha":895,"x_min":41,"x_max":854,"o":"m 570 163 q 656 198 621 163 q 692 285 692 234 l 692 366 q 656 453 692 417 q 570 488 621 488 l 570 163 m 854 285 q 771 83 854 167 q 570 0 688 0 l 407 0 l 407 488 l 203 488 l 203 0 l 41 0 l 41 977 l 203 977 l 203 651 l 407 651 l 407 977 l 570 977 l 570 651 q 771 568 688 651 q 854 366 854 484 l 854 285 z "},"њ":{"ha":895,"x_min":41,"x_max":854,"o":"m 570 163 q 656 198 621 163 q 692 285 692 234 l 692 366 q 656 453 692 417 q 570 488 621 488 l 570 163 m 854 285 q 771 83 854 167 q 570 0 688 0 l 407 0 l 407 488 l 203 488 l 203 0 l 41 0 l 41 977 l 203 977 l 203 651 l 407 651 l 407 977 l 570 977 l 570 651 q 771 568 688 651 q 854 366 854 484 l 854 285 z "},"Ҥ":{"ha":1058,"x_min":41,"x_max":1017,"o":"m 203 407 l 203 0 l 41 0 l 41 977 l 203 977 l 203 570 l 692 570 l 692 977 l 1017 977 l 1017 814 l 854 814 l 854 0 l 692 0 l 692 407 l 203 407 z "},"ҥ":{"ha":1058,"x_min":41,"x_max":1017,"o":"m 203 407 l 203 0 l 41 0 l 41 977 l 203 977 l 203 570 l 692 570 l 692 977 l 1017 977 l 1017 814 l 854 814 l 854 0 l 692 0 l 692 407 l 203 407 z "},"Җ":{"ha":1221,"x_min":41,"x_max":1180,"o":"m 610 397 l 610 0 l 448 0 l 448 397 q 299 312 364 377 q 203 81 203 216 l 203 0 l 41 0 l 41 81 q 184 427 41 283 q 340 534 255 498 l 41 770 l 41 977 l 448 656 l 448 977 l 610 977 l 610 656 l 1017 977 l 1017 770 l 718 534 q 874 427 803 498 q 1017 81 1017 283 l 1017 163 l 1180 163 l 1180 -163 l 1017 -163 l 1017 0 l 854 0 l 854 81 q 760 312 854 216 q 610 397 694 377 z "},"җ":{"ha":1221,"x_min":41,"x_max":1180,"o":"m 610 397 l 610 0 l 448 0 l 448 397 q 299 312 364 377 q 203 81 203 216 l 203 0 l 41 0 l 41 81 q 184 427 41 283 q 340 534 255 498 l 41 770 l 41 977 l 448 656 l 448 977 l 610 977 l 610 656 l 1017 977 l 1017 770 l 718 534 q 874 427 803 498 q 1017 81 1017 283 l 1017 163 l 1180 163 l 1180 -163 l 1017 -163 l 1017 0 l 854 0 l 854 81 q 760 312 854 216 q 610 397 694 377 z "},"Ҡ":{"ha":895,"x_min":41,"x_max":854,"o":"m 366 619 l 648 977 l 854 977 l 470 488 l 854 0 l 648 0 l 366 357 l 366 0 l 203 0 l 203 814 l 41 814 l 41 977 l 366 977 l 366 619 z "},"ҡ":{"ha":895,"x_min":41,"x_max":854,"o":"m 366 619 l 648 977 l 854 977 l 470 488 l 854 0 l 648 0 l 366 357 l 366 0 l 203 0 l 203 814 l 41 814 l 41 977 l 366 977 l 366 619 z "},"Ӑ":{"ha":1058,"x_min":41,"x_max":1017,"o":"m 41 488 q 184 833 41 690 q 529 977 327 977 q 874 833 731 977 q 1017 488 1017 690 l 1017 0 l 854 0 l 854 163 l 203 163 l 203 0 l 41 0 l 41 488 m 509 1017 q 408 1059 450 1017 q 366 1160 366 1101 l 366 1180 l 448 1180 l 448 1160 q 466 1116 448 1134 q 509 1099 484 1099 l 549 1099 q 592 1116 574 1099 q 610 1160 610 1134 l 610 1180 l 692 1180 l 692 1160 q 650 1059 692 1101 q 549 1017 608 1017 l 509 1017 m 854 326 l 854 488 q 759 719 854 623 q 529 814 664 814 q 299 719 394 814 q 203 488 203 623 l 203 326 l 854 326 z "},"ӑ":{"ha":1058,"x_min":41,"x_max":1017,"o":"m 41 488 q 184 833 41 690 q 529 977 327 977 q 874 833 731 977 q 1017 488 1017 690 l 1017 0 l 854 0 l 854 163 l 203 163 l 203 0 l 41 0 l 41 488 m 509 1017 q 408 1059 450 1017 q 366 1160 366 1101 l 366 1180 l 448 1180 l 448 1160 q 466 1116 448 1134 q 509 1099 484 1099 l 549 1099 q 592 1116 574 1099 q 610 1160 610 1134 l 610 1180 l 692 1180 l 692 1160 q 650 1059 692 1101 q 549 1017 608 1017 l 509 1017 m 854 326 l 854 488 q 759 719 854 623 q 529 814 664 814 q 299 719 394 814 q 203 488 203 623 l 203 326 l 854 326 z "},"Ӗ":{"ha":1058,"x_min":41,"x_max":1017,"o":"m 1017 977 l 1017 814 l 203 814 l 203 570 l 854 570 l 854 407 l 203 407 l 203 163 l 1017 163 l 1017 0 l 41 0 l 41 977 l 1017 977 m 509 1017 q 408 1059 450 1017 q 366 1160 366 1101 l 366 1180 l 448 1180 l 448 1160 q 466 1116 448 1134 q 509 1099 484 1099 l 549 1099 q 592 1116 574 1099 q 610 1160 610 1134 l 610 1180 l 692 1180 l 692 1160 q 650 1059 692 1101 q 549 1017 608 1017 l 509 1017 z "},"ӗ":{"ha":1058,"x_min":41,"x_max":1017,"o":"m 1017 977 l 1017 814 l 203 814 l 203 570 l 854 570 l 854 407 l 203 407 l 203 163 l 1017 163 l 1017 0 l 41 0 l 41 977 l 1017 977 m 509 1017 q 408 1059 450 1017 q 366 1160 366 1101 l 366 1180 l 448 1180 l 448 1160 q 466 1116 448 1134 q 509 1099 484 1099 l 549 1099 q 592 1116 574 1099 q 610 1160 610 1134 l 610 1180 l 692 1180 l 692 1160 q 650 1059 692 1101 q 549 1017 608 1017 l 509 1017 z "},"Ҙ":{"ha":732,"x_min":41,"x_max":692,"o":"m 203 407 l 203 570 l 326 570 q 412 605 376 570 q 448 692 448 641 q 412 778 448 743 q 326 814 376 814 q 239 778 275 814 q 203 692 203 743 l 41 692 q 124 893 41 810 q 326 977 208 977 q 527 893 444 977 q 610 692 610 810 q 558 527 610 598 q 608 486 585 510 q 692 285 692 403 q 608 83 692 167 q 453 3 542 17 q 468 -61 468 -26 q 426 -162 468 -120 q 326 -203 385 -203 l 244 -203 l 244 -122 l 326 -122 q 369 -104 351 -122 q 387 -61 387 -86 q 369 -18 387 -35 q 326 0 351 0 q 124 83 208 0 q 41 285 41 167 l 203 285 q 239 198 203 234 q 326 163 275 163 l 407 163 q 493 198 458 163 q 529 285 529 234 q 493 371 529 336 q 407 407 458 407 l 203 407 z "},"ҙ":{"ha":732,"x_min":41,"x_max":692,"o":"m 203 407 l 203 570 l 326 570 q 412 605 376 570 q 448 692 448 641 q 412 778 448 743 q 326 814 376 814 q 239 778 275 814 q 203 692 203 743 l 41 692 q 124 893 41 810 q 326 977 208 977 q 527 893 444 977 q 610 692 610 810 q 558 527 610 598 q 608 486 585 510 q 692 285 692 403 q 608 83 692 167 q 453 3 542 17 q 468 -61 468 -26 q 426 -162 468 -120 q 326 -203 385 -203 l 244 -203 l 244 -122 l 326 -122 q 369 -104 351 -122 q 387 -61 387 -86 q 369 -18 387 -35 q 326 0 351 0 q 124 83 208 0 q 41 285 41 167 l 203 285 q 239 198 203 234 q 326 163 275 163 l 407 163 q 493 198 458 163 q 529 285 529 234 q 493 371 529 336 q 407 407 458 407 l 203 407 z "},"Ҫ":{"ha":570,"x_min":41,"x_max":529,"o":"m 366 26 q 184 143 265 62 q 41 488 41 286 q 184 833 41 690 q 529 977 327 977 l 529 814 q 299 719 394 814 q 203 488 203 623 q 299 258 203 353 q 529 163 394 163 l 529 0 q 448 6 487 0 l 448 -61 q 406 -162 448 -120 q 305 -203 364 -203 l 224 -203 l 224 -122 l 305 -122 q 349 -104 331 -122 q 366 -61 366 -86 l 366 26 z "},"ҫ":{"ha":570,"x_min":41,"x_max":529,"o":"m 366 26 q 184 143 265 62 q 41 488 41 286 q 184 833 41 690 q 529 977 327 977 l 529 814 q 299 719 394 814 q 203 488 203 623 q 299 258 203 353 q 529 163 394 163 l 529 0 q 448 6 487 0 l 448 -61 q 406 -162 448 -120 q 305 -203 364 -203 l 224 -203 l 224 -122 l 305 -122 q 349 -104 331 -122 q 366 -61 366 -86 l 366 26 z "},"Ӳ":{"ha":1058,"x_min":41,"x_max":1017,"o":"m 529 620 l 810 977 l 1017 977 l 248 0 l 41 0 l 426 488 l 41 977 l 248 977 l 529 620 m 587 1180 l 481 1017 l 366 1017 l 472 1180 l 587 1180 m 773 1180 l 667 1017 l 553 1017 l 659 1180 l 773 1180 z "},"ӳ":{"ha":1058,"x_min":41,"x_max":1017,"o":"m 529 620 l 810 977 l 1017 977 l 248 0 l 41 0 l 426 488 l 41 977 l 248 977 l 529 620 m 587 1180 l 481 1017 l 366 1017 l 472 1180 l 587 1180 m 773 1180 l 667 1017 l 553 1017 l 659 1180 l 773 1180 z "},"Ә":{"ha":1058,"x_min":41,"x_max":1017,"o":"m 845 407 l 213 407 q 299 258 233 323 q 529 163 394 163 q 760 258 664 163 q 845 407 825 323 m 1017 488 q 874 143 1017 286 q 529 0 731 0 q 184 143 327 0 q 41 488 41 286 l 41 570 l 845 570 q 760 719 825 653 q 529 814 664 814 q 299 719 394 814 q 271 688 284 704 l 169 818 q 184 833 176 826 q 529 977 327 977 q 874 833 731 977 q 1017 488 1017 690 z "},"ә":{"ha":1058,"x_min":41,"x_max":1017,"o":"m 845 407 l 213 407 q 299 258 233 323 q 529 163 394 163 q 760 258 664 163 q 845 407 825 323 m 1017 488 q 874 143 1017 286 q 529 0 731 0 q 184 143 327 0 q 41 488 41 286 l 41 570 l 845 570 q 760 719 825 653 q 529 814 664 814 q 299 719 394 814 q 271 688 284 704 l 169 818 q 184 833 176 826 q 529 977 327 977 q 874 833 731 977 q 1017 488 1017 690 z "},"Ӛ":{"ha":1058,"x_min":41,"x_max":1017,"o":"m 845 407 l 213 407 q 299 258 233 323 q 529 163 394 163 q 760 258 664 163 q 845 407 825 323 m 448 1058 l 285 1058 l 285 1139 l 448 1139 l 448 1058 m 773 1058 l 610 1058 l 610 1139 l 773 1139 l 773 1058 m 1017 488 q 874 143 1017 286 q 529 0 731 0 q 184 143 327 0 q 41 488 41 286 l 41 570 l 845 570 q 760 719 825 653 q 529 814 664 814 q 299 719 394 814 q 271 688 284 704 l 169 818 q 184 833 176 826 q 529 977 327 977 q 874 833 731 977 q 1017 488 1017 690 z "},"ӛ":{"ha":1058,"x_min":41,"x_max":1017,"o":"m 845 407 l 213 407 q 299 258 233 323 q 529 163 394 163 q 760 258 664 163 q 845 407 825 323 m 448 1058 l 285 1058 l 285 1139 l 448 1139 l 448 1058 m 773 1058 l 610 1058 l 610 1139 l 773 1139 l 773 1058 m 1017 488 q 874 143 1017 286 q 529 0 731 0 q 184 143 327 0 q 41 488 41 286 l 41 570 l 845 570 q 760 719 825 653 q 529 814 664 814 q 299 719 394 814 q 271 688 284 704 l 169 818 q 184 833 176 826 q 529 977 327 977 q 874 833 731 977 q 1017 488 1017 690 z "},"Ə":{"ha":1058,"x_min":41,"x_max":1017,"o":"m 845 407 l 213 407 q 299 258 233 323 q 529 163 394 163 q 760 258 664 163 q 845 407 825 323 m 1017 488 q 874 143 1017 286 q 529 0 731 0 q 184 143 327 0 q 41 488 41 286 l 41 570 l 845 570 q 760 719 825 653 q 529 814 664 814 q 299 719 394 814 q 271 688 284 704 l 169 818 q 184 833 176 826 q 529 977 327 977 q 874 833 731 977 q 1017 488 1017 690 z "},"ə":{"ha":1058,"x_min":41,"x_max":1017,"o":"m 845 407 l 213 407 q 299 258 233 323 q 529 163 394 163 q 760 258 664 163 q 845 407 825 323 m 1017 488 q 874 143 1017 286 q 529 0 731 0 q 184 143 327 0 q 41 488 41 286 l 41 570 l 845 570 q 760 719 825 653 q 529 814 664 814 q 299 719 394 814 q 271 688 284 704 l 169 818 q 184 833 176 826 q 529 977 327 977 q 874 833 731 977 q 1017 488 1017 690 z "},"Ő":{"ha":1058,"x_min":41,"x_max":1017,"o":"m 529 0 q 184 143 327 0 q 41 488 41 286 q 184 833 41 690 q 529 977 327 977 q 874 833 731 977 q 1017 488 1017 690 q 874 143 1017 286 q 529 0 731 0 m 529 163 q 759 258 664 163 q 854 488 854 353 q 759 719 854 623 q 529 814 664 814 q 299 719 394 814 q 203 488 203 623 q 299 258 203 353 q 529 163 394 163 m 773 1180 l 667 1017 l 553 1017 l 659 1180 l 773 1180 m 587 1180 l 481 1017 l 366 1017 l 472 1180 l 587 1180 z "},"ő":{"ha":1058,"x_min":41,"x_max":1017,"o":"m 529 0 q 184 143 327 0 q 41 488 41 286 q 184 833 41 690 q 529 977 327 977 q 874 833 731 977 q 1017 488 1017 690 q 874 143 1017 286 q 529 0 731 0 m 529 163 q 759 258 664 163 q 854 488 854 353 q 759 719 854 623 q 529 814 664 814 q 299 719 394 814 q 203 488 203 623 q 299 258 203 353 q 529 163 394 163 m 773 1180 l 667 1017 l 553 1017 l 659 1180 l 773 1180 m 587 1180 l 481 1017 l 366 1017 l 472 1180 l 587 1180 z "},"Ű":{"ha":1058,"x_min":41,"x_max":1017,"o":"m 41 488 l 41 977 l 203 977 l 203 488 q 299 258 203 353 q 529 163 394 163 q 759 258 664 163 q 854 488 854 353 l 854 977 l 1017 977 l 1017 488 q 874 143 1017 286 q 529 0 731 0 q 184 143 327 0 q 41 488 41 286 m 773 1180 l 667 1017 l 553 1017 l 659 1180 l 773 1180 m 587 1180 l 481 1017 l 366 1017 l 472 1180 l 587 1180 z "},"ű":{"ha":1058,"x_min":41,"x_max":1017,"o":"m 41 488 l 41 977 l 203 977 l 203 488 q 299 258 203 353 q 529 163 394 163 q 759 258 664 163 q 854 488 854 353 l 854 977 l 1017 977 l 1017 488 q 874 143 1017 286 q 529 0 731 0 q 184 143 327 0 q 41 488 41 286 m 773 1180 l 667 1017 l 553 1017 l 659 1180 l 773 1180 m 587 1180 l 481 1017 l 366 1017 l 472 1180 l 587 1180 z "},"Ð":{"ha":814,"x_min":41,"x_max":773,"o":"m 285 163 q 515 258 420 163 q 610 488 610 353 q 515 719 610 623 q 285 814 420 814 l 285 529 l 529 529 l 529 448 l 285 448 l 285 163 m 285 977 q 630 833 487 977 q 773 488 773 690 q 630 143 773 286 q 285 0 487 0 l 122 0 l 122 448 l 41 448 l 41 529 l 122 529 l 122 977 l 285 977 z "},"ð":{"ha":814,"x_min":41,"x_max":773,"o":"m 285 163 q 515 258 420 163 q 610 488 610 353 q 515 719 610 623 q 285 814 420 814 l 285 529 l 529 529 l 529 448 l 285 448 l 285 163 m 285 977 q 630 833 487 977 q 773 488 773 690 q 630 143 773 286 q 285 0 487 0 l 122 0 l 122 448 l 41 448 l 41 529 l 122 529 l 122 977 l 285 977 z "},"Đ":{"ha":814,"x_min":41,"x_max":773,"o":"m 285 163 q 515 258 420 163 q 610 488 610 353 q 515 719 610 623 q 285 814 420 814 l 285 529 l 529 529 l 529 448 l 285 448 l 285 163 m 285 977 q 630 833 487 977 q 773 488 773 690 q 630 143 773 286 q 285 0 487 0 l 122 0 l 122 448 l 41 448 l 41 529 l 122 529 l 122 977 l 285 977 z "},"đ":{"ha":814,"x_min":41,"x_max":773,"o":"m 285 163 q 515 258 420 163 q 610 488 610 353 q 515 719 610 623 q 285 814 420 814 l 285 529 l 529 529 l 529 448 l 285 448 l 285 163 m 285 977 q 630 833 487 977 q 773 488 773 690 q 630 143 773 286 q 285 0 487 0 l 122 0 l 122 448 l 41 448 l 41 529 l 122 529 l 122 977 l 285 977 z "},"Ɖ":{"ha":814,"x_min":41,"x_max":773,"o":"m 285 163 q 515 258 420 163 q 610 488 610 353 q 515 719 610 623 q 285 814 420 814 l 285 529 l 529 529 l 529 448 l 285 448 l 285 163 m 285 977 q 630 833 487 977 q 773 488 773 690 q 630 143 773 286 q 285 0 487 0 l 122 0 l 122 448 l 41 448 l 41 529 l 122 529 l 122 977 l 285 977 z "},"ɖ":{"ha":814,"x_min":41,"x_max":773,"o":"m 285 163 q 515 258 420 163 q 610 488 610 353 q 515 719 610 623 q 285 814 420 814 l 285 529 l 529 529 l 529 448 l 285 448 l 285 163 m 285 977 q 630 833 487 977 q 773 488 773 690 q 630 143 773 286 q 285 0 487 0 l 122 0 l 122 448 l 41 448 l 41 529 l 122 529 l 122 977 l 285 977 z "},"˘":{"ha":407,"x_min":41,"x_max":366,"o":"m 183 1017 q 82 1059 124 1017 q 41 1160 41 1101 l 41 1180 l 122 1180 l 122 1160 q 140 1116 122 1134 q 183 1099 158 1099 l 224 1099 q 267 1116 249 1099 q 285 1160 285 1134 l 285 1180 l 366 1180 l 366 1160 q 325 1059 366 1101 q 224 1017 283 1017 l 183 1017 z "},"Ă":{"ha":1058,"x_min":41,"x_max":1017,"o":"m 41 488 q 184 833 41 690 q 529 977 327 977 q 874 833 731 977 q 1017 488 1017 690 l 1017 0 l 854 0 l 854 163 l 203 163 l 203 0 l 41 0 l 41 488 m 509 1017 q 408 1059 450 1017 q 366 1160 366 1101 l 366 1180 l 448 1180 l 448 1160 q 466 1116 448 1134 q 509 1099 484 1099 l 549 1099 q 592 1116 574 1099 q 610 1160 610 1134 l 610 1180 l 692 1180 l 692 1160 q 650 1059 692 1101 q 549 1017 608 1017 l 509 1017 m 854 326 l 854 488 q 759 719 854 623 q 529 814 664 814 q 299 719 394 814 q 203 488 203 623 l 203 326 l 854 326 z "},"ă":{"ha":1058,"x_min":41,"x_max":1017,"o":"m 41 488 q 184 833 41 690 q 529 977 327 977 q 874 833 731 977 q 1017 488 1017 690 l 1017 0 l 854 0 l 854 163 l 203 163 l 203 0 l 41 0 l 41 488 m 509 1017 q 408 1059 450 1017 q 366 1160 366 1101 l 366 1180 l 448 1180 l 448 1160 q 466 1116 448 1134 q 509 1099 484 1099 l 549 1099 q 592 1116 574 1099 q 610 1160 610 1134 l 610 1180 l 692 1180 l 692 1160 q 650 1059 692 1101 q 549 1017 608 1017 l 509 1017 m 854 326 l 854 488 q 759 719 854 623 q 529 814 664 814 q 299 719 394 814 q 203 488 203 623 l 203 326 l 854 326 z "},"Ĕ":{"ha":1058,"x_min":41,"x_max":1017,"o":"m 1017 977 l 1017 814 l 203 814 l 203 570 l 854 570 l 854 407 l 203 407 l 203 163 l 1017 163 l 1017 0 l 41 0 l 41 977 l 1017 977 m 509 1017 q 408 1059 450 1017 q 366 1160 366 1101 l 366 1180 l 448 1180 l 448 1160 q 466 1116 448 1134 q 509 1099 484 1099 l 549 1099 q 592 1116 574 1099 q 610 1160 610 1134 l 610 1180 l 692 1180 l 692 1160 q 650 1059 692 1101 q 549 1017 608 1017 l 509 1017 z "},"ĕ":{"ha":1058,"x_min":41,"x_max":1017,"o":"m 1017 977 l 1017 814 l 203 814 l 203 570 l 854 570 l 854 407 l 203 407 l 203 163 l 1017 163 l 1017 0 l 41 0 l 41 977 l 1017 977 m 509 1017 q 408 1059 450 1017 q 366 1160 366 1101 l 366 1180 l 448 1180 l 448 1160 q 466 1116 448 1134 q 509 1099 484 1099 l 549 1099 q 592 1116 574 1099 q 610 1160 610 1134 l 610 1180 l 692 1180 l 692 1160 q 650 1059 692 1101 q 549 1017 608 1017 l 509 1017 z "},"Ğ":{"ha":724,"x_min":41,"x_max":692,"o":"m 529 0 q 184 143 327 0 q 41 488 41 286 q 184 833 41 690 q 529 977 327 977 l 529 814 q 299 719 394 814 q 203 488 203 623 q 299 258 203 353 q 529 163 394 163 l 529 488 l 692 488 l 692 0 l 529 0 m 448 1017 q 347 1059 389 1017 q 305 1160 305 1101 l 305 1180 l 387 1180 l 387 1160 q 405 1116 387 1134 q 448 1099 422 1099 l 488 1099 q 531 1116 513 1099 q 549 1160 549 1134 l 549 1180 l 631 1180 l 631 1160 q 589 1059 631 1101 q 488 1017 547 1017 l 448 1017 z "},"ğ":{"ha":724,"x_min":41,"x_max":692,"o":"m 529 0 q 184 143 327 0 q 41 488 41 286 q 184 833 41 690 q 529 977 327 977 l 529 814 q 299 719 394 814 q 203 488 203 623 q 299 258 203 353 q 529 163 394 163 l 529 488 l 692 488 l 692 0 l 529 0 m 448 1017 q 347 1059 389 1017 q 305 1160 305 1101 l 305 1180 l 387 1180 l 387 1160 q 405 1116 387 1134 q 448 1099 422 1099 l 488 1099 q 531 1116 513 1099 q 549 1160 549 1134 l 549 1180 l 631 1180 l 631 1160 q 589 1059 631 1101 q 488 1017 547 1017 l 448 1017 z "},"Ĭ":{"ha":244,"x_min":-41,"x_max":285,"o":"m 203 0 l 41 0 l 41 977 l 203 977 l 203 0 m 102 1017 q 1 1059 43 1017 q -41 1160 -41 1101 l -41 1180 l 41 1180 l 41 1160 q 59 1116 41 1134 q 102 1099 77 1099 l 142 1099 q 185 1116 168 1099 q 203 1160 203 1134 l 203 1180 l 285 1180 l 285 1160 q 243 1059 285 1101 q 142 1017 201 1017 l 102 1017 z "},"ĭ":{"ha":244,"x_min":-41,"x_max":285,"o":"m 203 0 l 41 0 l 41 977 l 203 977 l 203 0 m 102 1017 q 1 1059 43 1017 q -41 1160 -41 1101 l -41 1180 l 41 1180 l 41 1160 q 59 1116 41 1134 q 102 1099 77 1099 l 142 1099 q 185 1116 168 1099 q 203 1160 203 1134 l 203 1180 l 285 1180 l 285 1160 q 243 1059 285 1101 q 142 1017 201 1017 l 102 1017 z "},"Ŏ":{"ha":1058,"x_min":41,"x_max":1017,"o":"m 529 0 q 184 143 327 0 q 41 488 41 286 q 184 833 41 690 q 529 977 327 977 q 874 833 731 977 q 1017 488 1017 690 q 874 143 1017 286 q 529 0 731 0 m 529 163 q 759 258 664 163 q 854 488 854 353 q 759 719 854 623 q 529 814 664 814 q 299 719 394 814 q 203 488 203 623 q 299 258 203 353 q 529 163 394 163 m 509 1017 q 408 1059 450 1017 q 366 1160 366 1101 l 366 1180 l 448 1180 l 448 1160 q 466 1116 448 1134 q 509 1099 484 1099 l 549 1099 q 592 1116 574 1099 q 610 1160 610 1134 l 610 1180 l 692 1180 l 692 1160 q 650 1059 692 1101 q 549 1017 608 1017 l 509 1017 z "},"ŏ":{"ha":1058,"x_min":41,"x_max":1017,"o":"m 529 0 q 184 143 327 0 q 41 488 41 286 q 184 833 41 690 q 529 977 327 977 q 874 833 731 977 q 1017 488 1017 690 q 874 143 1017 286 q 529 0 731 0 m 529 163 q 759 258 664 163 q 854 488 854 353 q 759 719 854 623 q 529 814 664 814 q 299 719 394 814 q 203 488 203 623 q 299 258 203 353 q 529 163 394 163 m 509 1017 q 408 1059 450 1017 q 366 1160 366 1101 l 366 1180 l 448 1180 l 448 1160 q 466 1116 448 1134 q 509 1099 484 1099 l 549 1099 q 592 1116 574 1099 q 610 1160 610 1134 l 610 1180 l 692 1180 l 692 1160 q 650 1059 692 1101 q 549 1017 608 1017 l 509 1017 z "},"Ŭ":{"ha":1058,"x_min":41,"x_max":1017,"o":"m 41 488 l 41 977 l 203 977 l 203 488 q 299 258 203 353 q 529 163 394 163 q 759 258 664 163 q 854 488 854 353 l 854 977 l 1017 977 l 1017 488 q 874 143 1017 286 q 529 0 731 0 q 184 143 327 0 q 41 488 41 286 m 509 1017 q 408 1059 450 1017 q 366 1160 366 1101 l 366 1180 l 448 1180 l 448 1160 q 466 1116 448 1134 q 509 1099 484 1099 l 549 1099 q 592 1116 574 1099 q 610 1160 610 1134 l 610 1180 l 692 1180 l 692 1160 q 650 1059 692 1101 q 549 1017 608 1017 l 509 1017 z "},"ŭ":{"ha":1058,"x_min":41,"x_max":1017,"o":"m 41 488 l 41 977 l 203 977 l 203 488 q 299 258 203 353 q 529 163 394 163 q 759 258 664 163 q 854 488 854 353 l 854 977 l 1017 977 l 1017 488 q 874 143 1017 286 q 529 0 731 0 q 184 143 327 0 q 41 488 41 286 m 509 1017 q 408 1059 450 1017 q 366 1160 366 1101 l 366 1180 l 448 1180 l 448 1160 q 466 1116 448 1134 q 509 1099 484 1099 l 549 1099 q 592 1116 574 1099 q 610 1160 610 1134 l 610 1180 l 692 1180 l 692 1160 q 650 1059 692 1101 q 549 1017 608 1017 l 509 1017 z "},"£":{"ha":814,"x_min":41,"x_max":773,"o":"m 285 692 l 285 488 l 529 488 l 529 326 l 285 326 l 285 163 l 773 163 l 773 0 l 41 0 l 41 163 l 122 163 l 122 326 l 41 326 l 41 488 l 122 488 l 122 692 q 205 893 122 810 q 407 977 289 977 q 608 893 525 977 q 692 692 692 810 l 692 610 l 529 610 l 529 692 q 493 778 529 743 q 407 814 458 814 q 320 778 356 814 q 285 692 285 743 z "},"¤":{"ha":814,"x_min":47,"x_max":767,"o":"m 407 366 q 493 402 458 366 q 529 488 529 437 q 493 575 529 539 q 407 610 458 610 q 320 575 356 610 q 285 488 285 539 q 320 402 285 437 q 407 366 356 366 m 301 223 l 254 163 l 47 163 l 174 323 q 122 488 122 395 q 174 653 122 581 l 47 814 l 254 814 l 301 753 q 407 773 350 773 q 513 753 464 773 l 560 814 l 767 814 l 640 653 q 692 488 692 581 q 640 324 692 395 l 767 163 l 560 163 l 513 223 q 407 203 464 203 q 301 223 350 203 z "},"¥":{"ha":732,"x_min":41,"x_max":692,"o":"m 366 502 l 520 977 l 692 977 l 538 502 l 692 502 l 692 420 l 512 420 l 486 339 l 692 339 l 692 258 l 459 258 l 375 0 l 203 0 l 281 238 l 275 258 l 41 258 l 41 339 l 248 339 l 222 420 l 41 420 l 41 502 l 195 502 l 41 977 l 212 977 l 366 502 z "},"§":{"ha":651,"x_min":41,"x_max":610,"o":"m 326 366 q 412 402 376 366 q 448 488 448 437 q 412 575 448 539 q 326 610 376 610 q 239 575 275 610 q 203 488 203 539 q 239 402 203 437 q 326 366 275 366 m 326 1139 l 488 1139 l 488 977 l 326 977 q 239 941 275 977 q 203 854 203 905 q 239 768 203 804 q 245 762 242 765 q 326 773 283 773 q 527 690 444 773 q 610 488 610 606 q 544 305 610 383 q 610 122 610 227 q 527 -79 610 4 q 326 -163 444 -163 l 163 -163 l 163 0 l 326 0 q 412 36 376 0 q 448 122 448 71 q 412 209 448 173 q 406 214 409 212 q 326 203 368 203 q 124 287 208 203 q 41 488 41 370 q 107 671 41 593 q 41 854 41 749 q 124 1056 41 972 q 326 1139 208 1139 z "},"‰":{"ha":1383,"x_min":41,"x_max":1343,"o":"m 285 651 q 342 675 319 651 q 366 732 366 699 q 342 790 366 766 q 285 814 319 814 q 227 790 251 814 q 203 732 203 766 q 227 675 203 699 q 285 651 251 651 m 1099 163 q 1156 186 1133 163 q 1180 244 1180 210 q 1156 302 1180 278 q 1099 326 1133 326 q 1041 302 1065 326 q 1017 244 1017 278 q 1041 186 1017 210 q 1099 163 1065 163 m 773 163 q 831 186 807 163 q 854 244 854 210 q 831 302 854 278 q 773 326 807 326 q 715 302 739 326 q 692 244 692 278 q 715 186 692 210 q 773 163 739 163 m 248 0 l 41 0 l 810 977 l 1017 977 l 248 0 m 936 62 q 773 0 867 0 q 601 72 672 0 q 529 244 529 143 q 601 417 529 345 q 773 488 672 488 q 936 426 867 488 q 1099 488 1004 488 q 1271 417 1200 488 q 1343 244 1343 345 q 1271 72 1343 143 q 1099 0 1200 0 q 936 62 1004 0 m 285 488 q 112 560 184 488 q 41 732 41 631 q 112 905 41 833 q 285 977 184 977 q 457 905 386 977 q 529 732 529 833 q 457 560 529 631 q 285 488 386 488 z "},"℅":{"ha":1058,"x_min":41,"x_max":1017,"o":"m 248 0 l 41 0 l 810 977 l 1017 977 l 248 0 m 773 0 q 601 72 672 0 q 529 244 529 143 q 601 417 529 345 q 773 488 672 488 q 946 417 874 488 q 1017 244 1017 345 q 946 72 1017 143 q 773 0 874 0 m 773 163 q 831 186 807 163 q 854 244 854 210 q 831 302 854 278 q 773 326 807 326 q 715 302 739 326 q 692 244 692 278 q 715 186 692 210 q 773 163 739 163 m 319 658 l 319 490 q 285 488 302 488 q 112 560 184 488 q 41 732 41 631 q 112 905 41 833 q 285 977 184 977 q 319 975 302 977 l 319 807 q 285 814 303 814 q 227 790 251 814 q 203 732 203 766 q 227 675 203 699 q 285 651 251 651 q 319 658 303 651 z "},"№":{"ha":1139,"x_min":41,"x_max":1099,"o":"m 854 651 q 912 675 888 651 q 936 732 936 699 q 912 790 936 766 q 854 814 888 814 q 797 790 821 814 q 773 732 773 766 q 797 675 773 699 q 854 651 821 651 m 203 475 l 203 0 l 41 0 l 41 977 l 212 977 l 366 502 l 366 977 l 529 977 l 529 0 l 357 0 l 203 475 m 1099 244 l 610 244 l 610 407 l 1099 407 l 1099 244 m 854 488 q 682 560 753 488 q 610 732 610 631 q 682 905 610 833 q 854 977 753 977 q 1027 905 956 977 q 1099 732 1099 833 q 1027 560 1099 631 q 854 488 956 488 z "},"₿":{"ha":895,"x_min":41,"x_max":854,"o":"m 659 556 q 771 486 721 536 q 854 285 854 403 q 771 83 854 167 q 570 0 688 0 l 529 0 l 529 -163 l 448 -163 l 448 0 l 366 0 l 366 -163 l 285 -163 l 285 0 l 41 0 l 41 163 l 203 163 l 203 814 l 41 814 l 41 977 l 285 977 l 285 1139 l 366 1139 l 366 977 l 407 977 q 448 974 428 977 l 448 1139 l 529 1139 l 529 950 q 608 893 572 930 q 692 692 692 810 q 659 556 692 617 m 366 570 l 407 570 q 493 605 458 570 q 529 692 529 641 q 493 778 529 743 q 407 814 458 814 l 366 814 l 366 570 m 570 163 q 656 198 621 163 q 692 285 692 234 q 656 371 692 336 q 570 407 621 407 l 366 407 l 366 163 l 570 163 z "},"₴":{"ha":814,"x_min":41,"x_max":773,"o":"m 641 529 q 608 490 627 509 q 555 448 583 465 l 773 448 l 773 366 l 315 366 q 285 285 285 332 q 320 198 285 234 q 407 163 356 163 l 692 163 l 692 0 l 407 0 q 205 83 289 0 q 122 285 122 167 q 133 366 122 328 l 41 366 l 41 448 l 173 448 q 205 486 187 468 q 259 529 231 511 l 41 529 l 41 610 l 498 610 q 529 692 529 644 q 493 778 529 743 q 407 814 458 814 l 244 814 l 244 977 l 407 977 q 608 893 525 977 q 692 692 692 810 q 681 610 692 649 l 773 610 l 773 529 l 641 529 z "},"₩":{"ha":1221,"x_min":41,"x_max":1180,"o":"m 837 448 l 718 448 l 778 264 l 837 448 m 863 529 l 890 610 l 727 610 l 701 529 l 863 529 m 384 448 l 444 264 l 503 448 l 384 448 m 331 610 l 357 529 l 520 529 l 494 610 l 331 610 m 186 529 l 159 610 l 41 610 l 41 692 l 133 692 l 41 977 l 212 977 l 304 692 l 467 692 l 375 977 l 547 977 l 610 780 l 674 977 l 846 977 l 753 692 l 916 692 l 1008 977 l 1180 977 l 1088 692 l 1180 692 l 1180 610 l 1061 610 l 1035 529 l 1180 529 l 1180 448 l 1008 448 l 863 0 l 692 0 l 610 251 l 529 0 l 357 0 l 212 448 l 41 448 l 41 529 l 186 529 z "},"₱":{"ha":773,"x_min":41,"x_max":732,"o":"m 326 977 q 527 893 444 977 q 600 773 580 840 l 732 773 l 732 692 l 610 692 l 610 610 l 732 610 l 732 529 l 600 529 q 527 409 580 462 q 326 326 444 326 l 285 326 l 285 0 l 122 0 l 122 529 l 41 529 l 41 610 l 122 610 l 122 692 l 41 692 l 41 773 l 122 773 l 122 977 l 326 977 m 285 529 l 285 488 l 326 488 q 412 524 376 488 l 417 529 l 285 529 m 448 692 l 285 692 l 285 610 l 448 610 l 448 692 m 417 773 q 412 779 414 776 q 326 814 376 814 l 285 814 l 285 773 l 417 773 z "},"℮":{"ha":1058,"x_min":41,"x_max":1017,"o":"m 692 771 q 529 814 619 814 q 366 771 439 814 l 366 570 l 692 570 l 692 771 m 41 488 q 184 833 41 690 q 529 977 327 977 q 874 833 731 977 q 1017 488 1017 690 l 1017 407 l 366 407 l 366 205 q 529 163 439 163 q 760 258 664 163 q 787 288 774 273 l 889 159 q 874 143 882 151 q 529 0 731 0 q 184 143 327 0 q 41 488 41 286 z "},"≠":{"ha":570,"x_min":41,"x_max":529,"o":"m 433 732 l 529 732 l 529 570 l 369 570 l 304 407 l 529 407 l 529 244 l 241 244 l 176 81 l 73 81 l 137 244 l 41 244 l 41 407 l 201 407 l 265 570 l 41 570 l 41 732 l 330 732 l 394 895 l 497 895 l 433 732 z "},"≤":{"ha":732,"x_min":41,"x_max":692,"o":"m 692 191 l 41 402 l 41 574 l 692 785 l 692 614 l 305 488 l 692 363 l 692 191 m 692 0 l 41 0 l 41 163 l 692 163 l 692 0 z "},"≥":{"ha":732,"x_min":41,"x_max":692,"o":"m 41 191 l 41 363 l 427 488 l 41 614 l 41 785 l 692 574 l 692 402 l 41 191 m 692 0 l 41 0 l 41 163 l 692 163 l 692 0 z "},"√":{"ha":895,"x_min":41,"x_max":854,"o":"m 448 251 l 683 977 l 854 977 l 538 0 l 357 0 l 226 407 l 41 407 l 41 570 l 345 570 l 448 251 z "},"İ":{"ha":244,"x_min":41,"x_max":203,"o":"m 203 0 l 41 0 l 41 977 l 203 977 l 203 0 m 203 1058 l 41 1058 l 41 1139 l 203 1139 l 203 1058 z "},"ı":{"ha":244,"x_min":41,"x_max":203,"o":"m 203 0 l 41 0 l 41 977 l 203 977 l 203 0 m 203 1058 l 41 1058 l 41 1139 l 203 1139 l 203 1058 z "},"Ș":{"ha":651,"x_min":41,"x_max":610,"o":"m 326 977 l 488 977 l 488 814 l 326 814 q 239 778 275 814 q 203 692 203 743 q 239 605 203 641 q 326 570 275 570 q 527 486 444 570 q 610 285 610 403 q 527 83 610 167 q 326 0 444 0 l 41 0 l 41 163 l 326 163 q 412 198 376 163 q 448 285 448 234 q 412 371 448 336 q 326 407 376 407 q 124 490 208 407 q 41 692 41 574 q 124 893 41 810 q 326 977 208 977 m 245 -138 l 163 -138 l 163 -41 l 326 -41 l 326 -106 l 277 -203 l 212 -203 l 245 -138 z "},"ș":{"ha":651,"x_min":41,"x_max":610,"o":"m 326 977 l 488 977 l 488 814 l 326 814 q 239 778 275 814 q 203 692 203 743 q 239 605 203 641 q 326 570 275 570 q 527 486 444 570 q 610 285 610 403 q 527 83 610 167 q 326 0 444 0 l 41 0 l 41 163 l 326 163 q 412 198 376 163 q 448 285 448 234 q 412 371 448 336 q 326 407 376 407 q 124 490 208 407 q 41 692 41 574 q 124 893 41 810 q 326 977 208 977 m 245 -138 l 163 -138 l 163 -41 l 326 -41 l 326 -106 l 277 -203 l 212 -203 l 245 -138 z "},"Ț":{"ha":1058,"x_min":41,"x_max":1017,"o":"m 1017 977 l 1017 814 l 610 814 l 610 0 l 448 0 l 448 814 l 41 814 l 41 977 l 1017 977 m 530 -138 l 448 -138 l 448 -41 l 610 -41 l 610 -106 l 562 -203 l 497 -203 l 530 -138 z "},"ț":{"ha":1058,"x_min":41,"x_max":1017,"o":"m 1017 977 l 1017 814 l 610 814 l 610 0 l 448 0 l 448 814 l 41 814 l 41 977 l 1017 977 m 530 -138 l 448 -138 l 448 -41 l 610 -41 l 610 -106 l 562 -203 l 497 -203 l 530 -138 z "},"円":{"ha":1058,"x_min":41,"x_max":1017,"o":"m 854 407 l 203 407 l 203 0 l 41 0 l 41 977 l 1017 977 l 1017 285 q 934 83 1017 167 q 732 0 850 0 l 570 0 l 570 163 l 732 163 q 819 198 783 163 q 854 285 854 234 l 854 407 m 203 570 l 448 570 l 448 814 l 203 814 l 203 570 m 610 570 l 854 570 l 854 814 l 610 814 l 610 570 z "},"Ɔ":{"ha":570,"x_min":41,"x_max":529,"o":"m 41 163 q 271 258 176 163 q 366 488 366 353 q 271 719 366 623 q 41 814 176 814 l 41 977 q 386 833 243 977 q 529 488 529 690 q 386 143 529 286 q 41 0 243 0 l 41 163 z "},"ɔ":{"ha":570,"x_min":41,"x_max":529,"o":"m 41 163 q 271 258 176 163 q 366 488 366 353 q 271 719 366 623 q 41 814 176 814 l 41 977 q 386 833 243 977 q 529 488 529 690 q 386 143 529 286 q 41 0 243 0 l 41 163 z "},"Ɛ":{"ha":732,"x_min":41,"x_max":692,"o":"m 407 163 q 493 198 458 163 q 529 285 529 234 l 692 285 q 608 83 692 167 q 407 0 525 0 l 326 0 q 124 83 208 0 q 41 285 41 167 q 124 486 41 403 q 174 527 148 510 q 122 692 122 598 q 205 893 122 810 q 407 977 289 977 q 608 893 525 977 q 692 692 692 810 l 529 692 q 493 778 529 743 q 407 814 458 814 q 320 778 356 814 q 285 692 285 743 q 320 605 285 641 q 407 570 356 570 l 529 570 l 529 407 l 326 407 q 239 371 275 407 q 203 285 203 336 q 239 198 203 234 q 326 163 275 163 l 407 163 z "},"ɛ":{"ha":732,"x_min":41,"x_max":692,"o":"m 407 163 q 493 198 458 163 q 529 285 529 234 l 692 285 q 608 83 692 167 q 407 0 525 0 l 326 0 q 124 83 208 0 q 41 285 41 167 q 124 486 41 403 q 174 527 148 510 q 122 692 122 598 q 205 893 122 810 q 407 977 289 977 q 608 893 525 977 q 692 692 692 810 l 529 692 q 493 778 529 743 q 407 814 458 814 q 320 778 356 814 q 285 692 285 743 q 320 605 285 641 q 407 570 356 570 l 529 570 l 529 407 l 326 407 q 239 371 275 407 q 203 285 203 336 q 239 198 203 234 q 326 163 275 163 l 407 163 z "},"Ɣ":{"ha":895,"x_min":41,"x_max":854,"o":"m 448 0 q 505 24 481 0 q 529 81 529 47 q 505 139 529 115 q 448 163 481 163 q 390 139 414 163 q 366 81 366 115 q 390 24 366 47 q 448 0 414 0 m 620 254 l 621 254 q 692 81 692 182 q 620 -91 692 -20 q 448 -163 549 -163 q 275 -91 347 -163 q 203 81 203 -20 q 275 254 203 182 l 41 977 l 212 977 l 424 325 q 448 326 435 326 q 471 324 460 326 l 683 977 l 854 977 l 620 254 z "},"ɣ":{"ha":895,"x_min":41,"x_max":854,"o":"m 448 0 q 505 24 481 0 q 529 81 529 47 q 505 139 529 115 q 448 163 481 163 q 390 139 414 163 q 366 81 366 115 q 390 24 366 47 q 448 0 414 0 m 620 254 l 621 254 q 692 81 692 182 q 620 -91 692 -20 q 448 -163 549 -163 q 275 -91 347 -163 q 203 81 203 -20 q 275 254 203 182 l 41 977 l 212 977 l 424 325 q 448 326 435 326 q 471 324 460 326 l 683 977 l 854 977 l 620 254 z "},"Ꞌ":{"ha":244,"x_min":41,"x_max":203,"o":"m 203 285 l 41 285 l 41 977 l 203 977 l 203 285 z "},"ꞌ":{"ha":244,"x_min":41,"x_max":203,"o":"m 203 285 l 41 285 l 41 977 l 203 977 l 203 285 z "},"Ŋ":{"ha":732,"x_min":41,"x_max":692,"o":"m 203 814 l 203 0 l 41 0 l 41 977 l 407 977 q 608 893 525 977 q 692 692 692 810 l 692 122 q 608 -79 692 4 q 407 -163 525 -163 l 366 -163 l 366 0 l 407 0 q 493 36 458 0 q 529 122 529 71 l 529 692 q 493 778 529 743 q 407 814 458 814 l 203 814 z "},"ŋ":{"ha":732,"x_min":41,"x_max":692,"o":"m 203 814 l 203 0 l 41 0 l 41 977 l 407 977 q 608 893 525 977 q 692 692 692 810 l 692 122 q 608 -79 692 4 q 407 -163 525 -163 l 366 -163 l 366 0 l 407 0 q 493 36 458 0 q 529 122 529 71 l 529 692 q 493 778 529 743 q 407 814 458 814 l 203 814 z "},"ſ":{"ha":407,"x_min":41,"x_max":366,"o":"m 203 692 l 203 -163 l 41 -163 l 41 692 q 124 893 41 810 q 326 977 208 977 l 366 977 l 366 814 l 326 814 q 239 778 275 814 q 203 692 203 743 z "},"ẛ":{"ha":407,"x_min":41,"x_max":366,"o":"m 326 1058 l 163 1058 l 163 1139 l 326 1139 l 326 1058 m 203 692 l 203 -163 l 41 -163 l 41 692 q 124 893 41 810 q 326 977 208 977 l 366 977 l 366 814 l 326 814 q 239 778 275 814 q 203 692 203 743 z "},"ẜ":{"ha":488,"x_min":41,"x_max":448,"o":"m 285 407 l 448 407 l 448 326 l 285 326 l 285 -163 l 122 -163 l 122 326 l 41 326 l 41 407 l 122 407 l 122 692 q 205 893 122 810 q 407 977 289 977 l 448 977 l 448 814 l 407 814 q 320 778 356 814 q 285 692 285 743 l 285 407 z "},"ẝ":{"ha":488,"x_min":41,"x_max":448,"o":"m 292 732 l 448 732 l 448 651 l 285 651 l 285 -163 l 122 -163 l 122 651 l 41 651 l 41 732 l 125 732 q 205 893 137 825 q 407 977 289 977 l 448 977 l 448 814 l 407 814 q 321 779 356 814 q 292 732 300 758 z "},"ː":{"ha":326,"x_min":41,"x_max":285,"o":"m 285 0 l 41 0 l 163 244 l 285 0 m 163 488 l 41 732 l 285 732 l 163 488 z "},"ˑ":{"ha":326,"x_min":41,"x_max":285,"o":"m 163 488 l 41 732 l 285 732 l 163 488 z "},"ꜛ":{"ha":326,"x_min":41,"x_max":285,"o":"m 122 732 l 41 732 l 163 977 l 285 732 l 203 732 l 203 488 l 122 488 l 122 732 z "},"ꜜ":{"ha":326,"x_min":41,"x_max":285,"o":"m 203 732 l 285 732 l 163 488 l 41 732 l 122 732 l 122 977 l 203 977 l 203 732 z "},"Ħ":{"ha":1058,"x_min":41,"x_max":1017,"o":"m 692 407 l 366 407 l 366 0 l 203 0 l 203 407 l 41 407 l 41 570 l 203 570 l 203 692 l 41 692 l 41 773 l 203 773 l 203 977 l 366 977 l 366 773 l 692 773 l 692 977 l 854 977 l 854 773 l 1017 773 l 1017 692 l 854 692 l 854 570 l 1017 570 l 1017 407 l 854 407 l 854 0 l 692 0 l 692 407 m 366 570 l 692 570 l 692 692 l 366 692 l 366 570 z "},"ħ":{"ha":1058,"x_min":41,"x_max":1017,"o":"m 692 407 l 366 407 l 366 0 l 203 0 l 203 407 l 41 407 l 41 570 l 203 570 l 203 692 l 41 692 l 41 773 l 203 773 l 203 977 l 366 977 l 366 773 l 692 773 l 692 977 l 854 977 l 854 773 l 1017 773 l 1017 692 l 854 692 l 854 570 l 1017 570 l 1017 407 l 854 407 l 854 0 l 692 0 l 692 407 m 366 570 l 692 570 l 692 692 l 366 692 l 366 570 z "},"Ŧ":{"ha":1058,"x_min":41,"x_max":1017,"o":"m 1017 977 l 1017 814 l 610 814 l 610 407 l 936 407 l 936 326 l 610 326 l 610 0 l 448 0 l 448 326 l 122 326 l 122 407 l 448 407 l 448 814 l 41 814 l 41 977 l 1017 977 z "},"ŧ":{"ha":1058,"x_min":41,"x_max":1017,"o":"m 1017 977 l 1017 814 l 610 814 l 610 407 l 936 407 l 936 326 l 610 326 l 610 0 l 448 0 l 448 326 l 122 326 l 122 407 l 448 407 l 448 814 l 41 814 l 41 977 l 1017 977 z "},"Ḍ":{"ha":732,"x_min":41,"x_max":692,"o":"m 203 977 q 549 833 406 977 q 692 488 692 690 q 549 143 692 286 q 203 0 406 0 l 41 0 l 41 977 l 203 977 m 366 -81 l 366 -163 l 203 -163 l 203 -81 l 366 -81 m 203 163 q 434 258 338 163 q 529 488 529 353 q 434 719 529 623 q 203 814 338 814 l 203 163 z "},"ḍ":{"ha":732,"x_min":41,"x_max":692,"o":"m 203 977 q 549 833 406 977 q 692 488 692 690 q 549 143 692 286 q 203 0 406 0 l 41 0 l 41 977 l 203 977 m 366 -81 l 366 -163 l 203 -163 l 203 -81 l 366 -81 m 203 163 q 434 258 338 163 q 529 488 529 353 q 434 719 529 623 q 203 814 338 814 l 203 163 z "},"Ḥ":{"ha":1058,"x_min":41,"x_max":1017,"o":"m 203 407 l 203 0 l 41 0 l 41 977 l 203 977 l 203 570 l 854 570 l 854 977 l 1017 977 l 1017 0 l 854 0 l 854 407 l 203 407 m 610 -81 l 610 -163 l 448 -163 l 448 -81 l 610 -81 z "},"ḥ":{"ha":1058,"x_min":41,"x_max":1017,"o":"m 203 407 l 203 0 l 41 0 l 41 977 l 203 977 l 203 570 l 854 570 l 854 977 l 1017 977 l 1017 0 l 854 0 l 854 407 l 203 407 m 610 -81 l 610 -163 l 448 -163 l 448 -81 l 610 -81 z "},"Ṛ":{"ha":732,"x_min":41,"x_max":692,"o":"m 407 977 q 608 893 525 977 q 692 692 692 810 l 692 610 q 608 409 692 492 q 434 327 534 335 l 692 0 l 485 0 l 228 326 l 203 326 l 203 0 l 41 0 l 41 977 l 407 977 m 407 -81 l 407 -163 l 244 -163 l 244 -81 l 407 -81 m 529 692 q 493 778 529 743 q 407 814 458 814 l 203 814 l 203 488 l 407 488 q 493 524 458 488 q 529 610 529 559 l 529 692 z "},"ṛ":{"ha":732,"x_min":41,"x_max":692,"o":"m 407 977 q 608 893 525 977 q 692 692 692 810 l 692 610 q 608 409 692 492 q 434 327 534 335 l 692 0 l 485 0 l 228 326 l 203 326 l 203 0 l 41 0 l 41 977 l 407 977 m 407 -81 l 407 -163 l 244 -163 l 244 -81 l 407 -81 m 529 692 q 493 778 529 743 q 407 814 458 814 l 203 814 l 203 488 l 407 488 q 493 524 458 488 q 529 610 529 559 l 529 692 z "},"Ṣ":{"ha":651,"x_min":41,"x_max":610,"o":"m 326 977 l 488 977 l 488 814 l 326 814 q 239 778 275 814 q 203 692 203 743 q 239 605 203 641 q 326 570 275 570 q 527 486 444 570 q 610 285 610 403 q 527 83 610 167 q 326 0 444 0 l 41 0 l 41 163 l 326 163 q 412 198 376 163 q 448 285 448 234 q 412 371 448 336 q 326 407 376 407 q 124 490 208 407 q 41 692 41 574 q 124 893 41 810 q 326 977 208 977 m 366 -81 l 366 -163 l 203 -163 l 203 -81 l 366 -81 z "},"ṣ":{"ha":651,"x_min":41,"x_max":610,"o":"m 326 977 l 488 977 l 488 814 l 326 814 q 239 778 275 814 q 203 692 203 743 q 239 605 203 641 q 326 570 275 570 q 527 486 444 570 q 610 285 610 403 q 527 83 610 167 q 326 0 444 0 l 41 0 l 41 163 l 326 163 q 412 198 376 163 q 448 285 448 234 q 412 371 448 336 q 326 407 376 407 q 124 490 208 407 q 41 692 41 574 q 124 893 41 810 q 326 977 208 977 m 366 -81 l 366 -163 l 203 -163 l 203 -81 l 366 -81 z "},"Ṭ":{"ha":1058,"x_min":41,"x_max":1017,"o":"m 1017 977 l 1017 814 l 610 814 l 610 0 l 448 0 l 448 814 l 41 814 l 41 977 l 1017 977 m 610 -81 l 610 -163 l 448 -163 l 448 -81 l 610 -81 z "},"ṭ":{"ha":1058,"x_min":41,"x_max":1017,"o":"m 1017 977 l 1017 814 l 610 814 l 610 0 l 448 0 l 448 814 l 41 814 l 41 977 l 1017 977 m 610 -81 l 610 -163 l 448 -163 l 448 -81 l 610 -81 z "},"Ẓ":{"ha":1058,"x_min":41,"x_max":1017,"o":"m 682 814 l 41 814 l 41 977 l 1017 977 l 376 163 l 1017 163 l 1017 0 l 41 0 l 682 814 m 610 -81 l 610 -163 l 448 -163 l 448 -81 l 610 -81 z "},"ẓ":{"ha":1058,"x_min":41,"x_max":1017,"o":"m 682 814 l 41 814 l 41 977 l 1017 977 l 376 163 l 1017 163 l 1017 0 l 41 0 l 682 814 m 610 -81 l 610 -163 l 448 -163 l 448 -81 l 610 -81 z "},"Ẹ":{"ha":1058,"x_min":41,"x_max":1017,"o":"m 1017 977 l 1017 814 l 203 814 l 203 570 l 854 570 l 854 407 l 203 407 l 203 163 l 1017 163 l 1017 0 l 41 0 l 41 977 l 1017 977 m 610 -81 l 610 -163 l 448 -163 l 448 -81 l 610 -81 z "},"ẹ":{"ha":1058,"x_min":41,"x_max":1017,"o":"m 1017 977 l 1017 814 l 203 814 l 203 570 l 854 570 l 854 407 l 203 407 l 203 163 l 1017 163 l 1017 0 l 41 0 l 41 977 l 1017 977 m 610 -81 l 610 -163 l 448 -163 l 448 -81 l 610 -81 z "},"Ọ":{"ha":1058,"x_min":41,"x_max":1017,"o":"m 529 0 q 184 143 327 0 q 41 488 41 286 q 184 833 41 690 q 529 977 327 977 q 874 833 731 977 q 1017 488 1017 690 q 874 143 1017 286 q 529 0 731 0 m 529 163 q 759 258 664 163 q 854 488 854 353 q 759 719 854 623 q 529 814 664 814 q 299 719 394 814 q 203 488 203 623 q 299 258 203 353 q 529 163 394 163 m 610 -81 l 610 -163 l 448 -163 l 448 -81 l 610 -81 z "},"ọ":{"ha":1058,"x_min":41,"x_max":1017,"o":"m 529 0 q 184 143 327 0 q 41 488 41 286 q 184 833 41 690 q 529 977 327 977 q 874 833 731 977 q 1017 488 1017 690 q 874 143 1017 286 q 529 0 731 0 m 529 163 q 759 258 664 163 q 854 488 854 353 q 759 719 854 623 q 529 814 664 814 q 299 719 394 814 q 203 488 203 623 q 299 258 203 353 q 529 163 394 163 m 610 -81 l 610 -163 l 448 -163 l 448 -81 l 610 -81 z "},"⁒":{"ha":1058,"x_min":41,"x_max":1017,"o":"m 285 570 q 170 617 218 570 q 122 732 122 665 q 170 847 122 800 q 285 895 218 895 q 400 847 352 895 q 448 732 448 800 q 400 617 448 665 q 285 570 352 570 m 773 81 q 658 129 706 81 q 610 244 610 177 q 658 359 610 311 q 773 407 706 407 q 888 359 840 407 q 936 244 936 311 q 888 129 936 177 q 773 81 840 81 m 248 0 l 41 0 l 810 977 l 1017 977 l 248 0 z "},"Ḻ":{"ha":1058,"x_min":41,"x_max":1017,"o":"m 41 977 l 203 977 l 203 163 l 1017 163 l 1017 0 l 41 0 l 41 977 m 285 -81 l 773 -81 l 773 -163 l 285 -163 l 285 -81 z "},"ḻ":{"ha":1058,"x_min":41,"x_max":1017,"o":"m 41 977 l 203 977 l 203 163 l 1017 163 l 1017 0 l 41 0 l 41 977 m 285 -81 l 773 -81 l 773 -163 l 285 -163 l 285 -81 z "},"Ṉ":{"ha":1058,"x_min":41,"x_max":1017,"o":"m 203 770 l 203 0 l 41 0 l 41 977 l 248 977 l 854 206 l 854 977 l 1017 977 l 1017 0 l 810 0 l 203 770 m 285 -81 l 773 -81 l 773 -163 l 285 -163 l 285 -81 z "},"ṉ":{"ha":1058,"x_min":41,"x_max":1017,"o":"m 203 770 l 203 0 l 41 0 l 41 977 l 248 977 l 854 206 l 854 977 l 1017 977 l 1017 0 l 810 0 l 203 770 m 285 -81 l 773 -81 l 773 -163 l 285 -163 l 285 -81 z "},"ǀ":{"ha":244,"x_min":41,"x_max":203,"o":"m 203 0 l 41 0 l 41 977 l 203 977 l 203 0 z "},"ǁ":{"ha":570,"x_min":41,"x_max":529,"o":"m 203 0 l 41 0 l 41 977 l 203 977 l 203 0 m 529 0 l 366 0 l 366 977 l 529 977 l 529 0 z "},"ǂ":{"ha":570,"x_min":41,"x_max":529,"o":"m 203 732 l 203 977 l 366 977 l 366 732 l 529 732 l 529 570 l 366 570 l 366 407 l 529 407 l 529 244 l 366 244 l 366 0 l 203 0 l 203 244 l 41 244 l 41 407 l 203 407 l 203 570 l 41 570 l 41 732 l 203 732 z "},"ǃ":{"ha":244,"x_min":41,"x_max":203,"o":"m 203 0 l 41 0 l 41 163 l 203 163 l 203 0 m 203 285 l 41 285 l 41 977 l 203 977 l 203 285 z "},"Ƣ":{"ha":895,"x_min":41,"x_max":854,"o":"m 448 172 l 448 804 q 299 719 364 784 q 203 488 203 623 q 299 258 203 353 q 448 172 364 193 m 529 0 q 184 143 327 0 q 41 488 41 286 q 184 833 41 690 q 529 977 327 977 l 854 977 l 854 -163 l 692 -163 l 692 814 l 610 814 l 610 0 l 529 0 z "},"ƣ":{"ha":895,"x_min":41,"x_max":854,"o":"m 448 172 l 448 804 q 299 719 364 784 q 203 488 203 623 q 299 258 203 353 q 448 172 364 193 m 529 0 q 184 143 327 0 q 41 488 41 286 q 184 833 41 690 q 529 977 327 977 l 854 977 l 854 -163 l 692 -163 l 692 814 l 610 814 l 610 0 l 529 0 z "},"Ý":{"ha":732,"x_min":41,"x_max":692,"o":"m 366 503 l 520 977 l 692 977 l 375 0 l 203 0 l 281 238 l 199 488 l 41 977 l 212 977 l 366 503 m 529 1180 l 423 1017 l 309 1017 l 414 1180 l 529 1180 z "},"ý":{"ha":732,"x_min":41,"x_max":692,"o":"m 366 503 l 520 977 l 692 977 l 375 0 l 203 0 l 281 238 l 199 488 l 41 977 l 212 977 l 366 503 m 529 1180 l 423 1017 l 309 1017 l 414 1180 l 529 1180 z "},"Ÿ":{"ha":732,"x_min":41,"x_max":692,"o":"m 366 503 l 520 977 l 692 977 l 375 0 l 203 0 l 281 238 l 199 488 l 41 977 l 212 977 l 366 503 m 285 1058 l 122 1058 l 122 1139 l 285 1139 l 285 1058 m 610 1058 l 448 1058 l 448 1139 l 610 1139 l 610 1058 z "},"ÿ":{"ha":732,"x_min":41,"x_max":692,"o":"m 366 503 l 520 977 l 692 977 l 375 0 l 203 0 l 281 238 l 199 488 l 41 977 l 212 977 l 366 503 m 285 1058 l 122 1058 l 122 1139 l 285 1139 l 285 1058 m 610 1058 l 448 1058 l 448 1139 l 610 1139 l 610 1058 z "},"Ĺ":{"ha":1058,"x_min":41,"x_max":1017,"o":"m 41 977 l 203 977 l 203 163 l 1017 163 l 1017 0 l 41 0 l 41 977 m 285 1180 l 179 1017 l 64 1017 l 170 1180 l 285 1180 z "},"ĺ":{"ha":1058,"x_min":41,"x_max":1017,"o":"m 41 977 l 203 977 l 203 163 l 1017 163 l 1017 0 l 41 0 l 41 977 m 285 1180 l 179 1017 l 64 1017 l 170 1180 l 285 1180 z "},"Ĵ":{"ha":570,"x_min":41,"x_max":610,"o":"m 529 488 q 386 143 529 286 q 41 0 243 0 l 41 163 q 271 258 176 163 q 366 488 366 353 l 366 977 l 529 977 l 529 488 m 610 1017 l 496 1017 l 448 1092 l 399 1017 l 285 1017 l 390 1180 l 505 1180 l 610 1017 z "},"ĵ":{"ha":570,"x_min":41,"x_max":610,"o":"m 529 488 q 386 143 529 286 q 41 0 243 0 l 41 163 q 271 258 176 163 q 366 488 366 353 l 366 977 l 529 977 l 529 488 m 610 1017 l 496 1017 l 448 1092 l 399 1017 l 285 1017 l 390 1180 l 505 1180 l 610 1017 z "},"Ŷ":{"ha":732,"x_min":41,"x_max":692,"o":"m 366 503 l 520 977 l 692 977 l 375 0 l 203 0 l 281 238 l 199 488 l 41 977 l 212 977 l 366 503 m 529 1017 l 414 1017 l 366 1092 l 318 1017 l 203 1017 l 309 1180 l 423 1180 l 529 1017 z "},"ŷ":{"ha":732,"x_min":41,"x_max":692,"o":"m 366 503 l 520 977 l 692 977 l 375 0 l 203 0 l 281 238 l 199 488 l 41 977 l 212 977 l 366 503 m 529 1017 l 414 1017 l 366 1092 l 318 1017 l 203 1017 l 309 1180 l 423 1180 l 529 1017 z "},"Ŵ":{"ha":1221,"x_min":41,"x_max":1180,"o":"m 357 0 l 41 977 l 212 977 l 444 264 l 525 515 l 375 977 l 547 977 l 610 780 l 674 977 l 846 977 l 696 515 l 778 264 l 1008 977 l 1180 977 l 863 0 l 692 0 l 610 251 l 529 0 l 357 0 m 773 1017 l 659 1017 l 610 1092 l 562 1017 l 448 1017 l 553 1180 l 667 1180 l 773 1017 z "},"ŵ":{"ha":1221,"x_min":41,"x_max":1180,"o":"m 357 0 l 41 977 l 212 977 l 444 264 l 525 515 l 375 977 l 547 977 l 610 780 l 674 977 l 846 977 l 696 515 l 778 264 l 1008 977 l 1180 977 l 863 0 l 692 0 l 610 251 l 529 0 l 357 0 m 773 1017 l 659 1017 l 610 1092 l 562 1017 l 448 1017 l 553 1180 l 667 1180 l 773 1017 z "},"Ŀ":{"ha":1058,"x_min":41,"x_max":1017,"o":"m 610 407 l 448 407 l 448 570 l 610 570 l 610 407 m 41 977 l 203 977 l 203 163 l 1017 163 l 1017 0 l 41 0 l 41 977 z "},"ŀ":{"ha":1058,"x_min":41,"x_max":1017,"o":"m 610 407 l 448 407 l 448 570 l 610 570 l 610 407 m 41 977 l 203 977 l 203 163 l 1017 163 l 1017 0 l 41 0 l 41 977 z "},"ʭ":{"ha":570,"x_min":41,"x_max":529,"o":"m 203 163 l 203 0 l 41 0 l 41 326 l 529 326 l 529 0 l 366 0 l 366 163 l 203 163 m 203 814 l 203 651 l 41 651 l 41 977 l 529 977 l 529 651 l 366 651 l 366 814 l 203 814 z "},"ʔ":{"ha":651,"x_min":41,"x_max":610,"o":"m 326 814 q 239 778 275 814 q 203 692 203 743 l 41 692 q 124 893 41 810 q 326 977 208 977 q 527 893 444 977 q 610 692 610 810 q 527 490 610 574 q 326 407 444 407 q 239 371 275 407 q 203 285 203 336 l 203 0 l 41 0 l 41 285 q 124 486 41 403 q 326 570 208 570 q 412 605 376 570 q 448 692 448 641 q 412 778 448 743 q 326 814 376 814 z "},"ʕ":{"ha":651,"x_min":41,"x_max":610,"o":"m 326 977 q 527 893 444 977 q 610 692 610 810 l 448 692 q 412 778 448 743 q 326 814 376 814 q 239 778 275 814 q 203 692 203 743 q 239 605 203 641 q 326 570 275 570 q 527 486 444 570 q 610 285 610 403 l 610 0 l 448 0 l 448 285 q 412 371 448 336 q 326 407 376 407 q 124 490 208 407 q 41 692 41 574 q 124 893 41 810 q 326 977 208 977 z "},"ʖ":{"ha":651,"x_min":41,"x_max":610,"o":"m 326 0 q 124 83 208 0 q 41 285 41 167 l 203 285 q 239 198 203 234 q 326 163 275 163 q 412 198 376 163 q 448 285 448 234 q 412 371 448 336 q 326 407 376 407 q 124 490 208 407 q 41 692 41 574 l 41 977 l 203 977 l 203 692 q 239 605 203 641 q 326 570 275 570 q 527 486 444 570 q 610 285 610 403 q 527 83 610 167 q 326 0 444 0 z "},"Ɂ":{"ha":651,"x_min":41,"x_max":610,"o":"m 326 814 q 239 778 275 814 q 203 692 203 743 l 41 692 q 124 893 41 810 q 326 977 208 977 q 527 893 444 977 q 610 692 610 810 q 527 490 610 574 q 326 407 444 407 q 239 371 275 407 q 203 285 203 336 l 203 0 l 41 0 l 41 285 q 124 486 41 403 q 326 570 208 570 q 412 605 376 570 q 448 692 448 641 q 412 778 448 743 q 326 814 376 814 z "},"ɂ":{"ha":651,"x_min":41,"x_max":610,"o":"m 326 814 q 239 778 275 814 q 203 692 203 743 l 41 692 q 124 893 41 810 q 326 977 208 977 q 527 893 444 977 q 610 692 610 810 q 527 490 610 574 q 326 407 444 407 q 239 371 275 407 q 203 285 203 336 l 203 0 l 41 0 l 41 285 q 124 486 41 403 q 326 570 208 570 q 412 605 376 570 q 448 692 448 641 q 412 778 448 743 q 326 814 376 814 z "},"Ḿ":{"ha":1058,"x_min":41,"x_max":1017,"o":"m 203 770 l 203 0 l 41 0 l 41 977 l 248 977 l 529 619 l 810 977 l 1017 977 l 1017 0 l 854 0 l 854 770 l 633 488 l 529 357 l 426 488 l 203 770 m 692 1180 l 586 1017 l 471 1017 l 577 1180 l 692 1180 z "},"ḿ":{"ha":1058,"x_min":41,"x_max":1017,"o":"m 203 770 l 203 0 l 41 0 l 41 977 l 248 977 l 529 619 l 810 977 l 1017 977 l 1017 0 l 854 0 l 854 770 l 633 488 l 529 357 l 426 488 l 203 770 m 692 1180 l 586 1017 l 471 1017 l 577 1180 l 692 1180 z "},"Ƀ":{"ha":814,"x_min":41,"x_max":773,"o":"m 285 814 l 285 570 l 326 570 q 412 605 376 570 q 448 692 448 641 q 412 778 448 743 q 326 814 376 814 l 285 814 m 488 163 q 575 198 539 163 q 610 285 610 234 q 575 371 610 336 q 488 407 539 407 l 285 407 l 285 326 l 529 326 l 529 244 l 285 244 l 285 163 l 488 163 m 577 556 q 690 486 640 536 q 773 285 773 403 q 690 83 773 167 q 488 0 606 0 l 122 0 l 122 244 l 41 244 l 41 326 l 122 326 l 122 977 l 326 977 q 527 893 444 977 q 610 692 610 810 q 577 556 610 617 z "},"ƀ":{"ha":814,"x_min":41,"x_max":773,"o":"m 285 814 l 285 570 l 326 570 q 412 605 376 570 q 448 692 448 641 q 412 778 448 743 q 326 814 376 814 l 285 814 m 488 163 q 575 198 539 163 q 610 285 610 234 q 575 371 610 336 q 488 407 539 407 l 285 407 l 285 326 l 529 326 l 529 244 l 285 244 l 285 163 l 488 163 m 577 556 q 690 486 640 536 q 773 285 773 403 q 690 83 773 167 q 488 0 606 0 l 122 0 l 122 244 l 41 244 l 41 326 l 122 326 l 122 977 l 326 977 q 527 893 444 977 q 610 692 610 810 q 577 556 610 617 z "},"Ƶ":{"ha":1058,"x_min":41,"x_max":1017,"o":"m 665 529 l 936 529 l 936 448 l 600 448 l 376 163 l 1017 163 l 1017 0 l 41 0 l 393 448 l 122 448 l 122 529 l 458 529 l 682 814 l 41 814 l 41 977 l 1017 977 l 665 529 z "},"ƶ":{"ha":1058,"x_min":41,"x_max":1017,"o":"m 665 529 l 936 529 l 936 448 l 600 448 l 376 163 l 1017 163 l 1017 0 l 41 0 l 393 448 l 122 448 l 122 529 l 458 529 l 682 814 l 41 814 l 41 977 l 1017 977 l 665 529 z "},"Ɨ":{"ha":570,"x_min":41,"x_max":529,"o":"m 366 488 l 529 488 l 529 407 l 366 407 l 366 0 l 203 0 l 203 407 l 41 407 l 41 488 l 203 488 l 203 977 l 366 977 l 366 488 z "},"ɨ":{"ha":570,"x_min":41,"x_max":529,"o":"m 366 488 l 529 488 l 529 407 l 366 407 l 366 0 l 203 0 l 203 407 l 41 407 l 41 488 l 203 488 l 203 977 l 366 977 l 366 488 z "},"Ʉ":{"ha":1139,"x_min":41,"x_max":1099,"o":"m 1052 407 q 915 143 1028 256 q 570 0 772 0 q 224 143 368 0 q 87 407 111 256 l 41 407 l 41 488 l 81 488 l 81 977 l 244 977 l 244 488 l 895 488 l 895 977 l 1058 977 l 1058 488 l 1099 488 l 1099 407 l 1052 407 m 254 407 q 340 258 274 323 q 570 163 435 163 q 800 258 705 163 q 886 407 865 323 l 254 407 z "},"ʉ":{"ha":1139,"x_min":41,"x_max":1099,"o":"m 1052 407 q 915 143 1028 256 q 570 0 772 0 q 224 143 368 0 q 87 407 111 256 l 41 407 l 41 488 l 81 488 l 81 977 l 244 977 l 244 488 l 895 488 l 895 977 l 1058 977 l 1058 488 l 1099 488 l 1099 407 l 1052 407 m 254 407 q 340 258 274 323 q 570 163 435 163 q 800 258 705 163 q 886 407 865 323 l 254 407 z "},"Ǥ":{"ha":814,"x_min":41,"x_max":773,"o":"m 610 163 l 610 488 l 773 488 l 773 0 l 610 0 q 265 143 408 0 q 123 448 137 271 l 41 448 l 41 529 l 123 529 q 265 833 137 705 q 610 977 408 977 l 610 814 q 380 719 475 814 q 287 529 300 638 l 529 529 l 529 448 l 287 448 q 380 258 300 338 q 610 163 475 163 z "},"ǥ":{"ha":814,"x_min":41,"x_max":773,"o":"m 610 163 l 610 488 l 773 488 l 773 0 l 610 0 q 265 143 408 0 q 123 448 137 271 l 41 448 l 41 529 l 123 529 q 265 833 137 705 q 610 977 408 977 l 610 814 q 380 719 475 814 q 287 529 300 638 l 529 529 l 529 448 l 287 448 q 380 258 300 338 q 610 163 475 163 z "},"Ʋ":{"ha":1058,"x_min":41,"x_max":1017,"o":"m 1017 488 q 874 143 1017 286 q 529 0 731 0 q 184 143 327 0 q 41 488 41 286 l 41 977 l 203 977 l 203 488 q 299 258 203 353 q 529 163 394 163 q 759 258 664 163 q 854 488 854 353 q 759 719 854 623 q 529 814 664 814 l 529 977 q 874 833 731 977 q 1017 488 1017 690 z "},"ʋ":{"ha":1058,"x_min":41,"x_max":1017,"o":"m 1017 488 q 874 143 1017 286 q 529 0 731 0 q 184 143 327 0 q 41 488 41 286 l 41 977 l 203 977 l 203 488 q 299 258 203 353 q 529 163 394 163 q 759 258 664 163 q 854 488 854 353 q 759 719 854 623 q 529 814 664 814 l 529 977 q 874 833 731 977 q 1017 488 1017 690 z "},"Ĳ":{"ha":895,"x_min":41,"x_max":854,"o":"m 203 0 l 41 0 l 41 977 l 203 977 l 203 0 m 854 488 q 711 143 854 286 q 366 0 568 0 l 366 163 q 596 258 501 163 q 692 488 692 353 l 692 977 l 854 977 l 854 488 z "},"ĳ":{"ha":895,"x_min":41,"x_max":854,"o":"m 203 0 l 41 0 l 41 977 l 203 977 l 203 0 m 854 488 q 711 143 854 286 q 366 0 568 0 l 366 163 q 596 258 501 163 q 692 488 692 353 l 692 977 l 854 977 l 854 488 z "},"‖":{"ha":570,"x_min":41,"x_max":529,"o":"m 203 0 l 41 0 l 41 977 l 203 977 l 203 0 m 529 0 l 366 0 l 366 977 l 529 977 l 529 0 z "},"‗":{"ha":570,"x_min":41,"x_max":529,"o":"m 529 -81 l 41 -81 l 41 0 l 529 0 l 529 -81 m 529 -203 l 41 -203 l 41 -122 l 529 -122 l 529 -203 z "},"‼":{"ha":570,"x_min":41,"x_max":529,"o":"m 203 0 l 41 0 l 41 163 l 203 163 l 203 0 m 203 285 l 41 285 l 41 977 l 203 977 l 203 285 m 529 0 l 366 0 l 366 163 l 529 163 l 529 0 m 529 285 l 366 285 l 366 977 l 529 977 l 529 285 z "},"≡":{"ha":570,"x_min":41,"x_max":529,"o":"m 529 407 l 41 407 l 41 570 l 529 570 l 529 407 m 529 81 l 41 81 l 41 244 l 529 244 l 529 81 m 529 732 l 41 732 l 41 895 l 529 895 l 529 732 z "},"½":{"ha":732,"x_min":41,"x_max":692,"o":"m 226 0 l 122 0 l 507 977 l 610 977 l 226 0 m 549 407 q 506 389 524 407 q 488 346 488 372 l 407 346 q 449 447 407 405 q 549 488 490 488 q 650 447 608 488 q 692 346 692 405 l 692 305 q 650 204 692 246 q 549 163 608 163 q 506 145 524 163 q 488 102 488 127 l 488 81 l 671 81 l 671 0 l 407 0 l 407 102 q 449 202 407 161 q 549 244 490 244 q 593 262 575 244 q 610 305 610 280 l 610 346 q 593 389 610 372 q 549 407 575 407 m 203 977 l 203 488 l 122 488 l 122 895 l 41 895 l 41 977 l 203 977 z "},"⅓":{"ha":732,"x_min":41,"x_max":692,"o":"m 226 0 l 122 0 l 507 977 l 610 977 l 226 0 m 203 977 l 203 488 l 122 488 l 122 895 l 41 895 l 41 977 l 203 977 m 549 0 l 366 0 l 366 81 l 549 81 q 593 99 575 81 q 610 142 610 117 q 593 186 610 168 q 549 203 575 203 l 448 203 l 448 285 l 468 285 q 511 303 494 285 q 529 346 529 321 q 511 389 529 372 q 468 407 494 407 l 448 407 l 448 488 l 468 488 q 569 447 527 488 q 610 346 610 405 q 593 278 610 309 q 650 243 625 268 q 692 142 692 201 q 650 42 692 83 q 549 0 608 0 z "},"⅔":{"ha":732,"x_min":41,"x_max":692,"o":"m 226 0 l 122 0 l 507 977 l 610 977 l 226 0 m 549 0 l 366 0 l 366 81 l 549 81 q 593 99 575 81 q 610 142 610 117 q 593 186 610 168 q 549 203 575 203 l 448 203 l 448 285 l 468 285 q 511 303 494 285 q 529 346 529 321 q 511 389 529 372 q 468 407 494 407 l 448 407 l 448 488 l 468 488 q 569 447 527 488 q 610 346 610 405 q 593 278 610 309 q 650 243 625 268 q 692 142 692 201 q 650 42 692 83 q 549 0 608 0 m 183 895 q 140 878 158 895 q 122 834 122 860 l 41 834 q 82 935 41 893 q 183 977 124 977 q 284 935 242 977 q 326 834 326 893 l 326 793 q 284 693 326 734 q 183 651 242 651 q 140 633 158 651 q 122 590 122 616 l 122 570 l 264 570 l 264 488 l 41 488 l 41 590 q 82 691 41 649 q 183 732 124 732 q 227 750 209 732 q 244 793 244 768 l 244 834 q 227 878 244 860 q 183 895 209 895 z "},"⅛":{"ha":732,"x_min":41,"x_max":692,"o":"m 226 0 l 122 0 l 507 977 l 610 977 l 226 0 m 203 977 l 203 488 l 122 488 l 122 895 l 41 895 l 41 977 l 203 977 m 549 81 q 593 99 575 81 q 610 142 610 117 q 593 186 610 168 q 549 203 575 203 q 506 186 524 203 q 488 142 488 168 q 506 99 488 117 q 549 81 524 81 m 549 285 q 593 303 575 285 q 610 346 610 321 q 593 389 610 372 q 549 407 575 407 q 506 389 524 407 q 488 346 488 372 q 506 303 488 321 q 549 285 524 285 m 649 244 l 650 243 q 692 142 692 201 q 650 42 692 83 q 549 0 608 0 q 449 42 490 0 q 407 142 407 83 q 449 243 407 201 l 450 244 l 449 245 q 407 346 407 287 q 449 447 407 405 q 549 488 490 488 q 650 447 608 488 q 692 346 692 405 q 650 245 692 287 l 649 244 z "},"⅝":{"ha":732,"x_min":41,"x_max":692,"o":"m 226 0 l 122 0 l 507 977 l 610 977 l 226 0 m 549 81 q 593 99 575 81 q 610 142 610 117 q 593 186 610 168 q 549 203 575 203 q 506 186 524 203 q 488 142 488 168 q 506 99 488 117 q 549 81 524 81 m 549 285 q 593 303 575 285 q 610 346 610 321 q 593 389 610 372 q 549 407 575 407 q 506 389 524 407 q 488 346 488 372 q 506 303 488 321 q 549 285 524 285 m 649 244 l 650 243 q 692 142 692 201 q 650 42 692 83 q 549 0 608 0 q 449 42 490 0 q 407 142 407 83 q 449 243 407 201 l 450 244 l 449 245 q 407 346 407 287 q 449 447 407 405 q 549 488 490 488 q 650 447 608 488 q 692 346 692 405 q 650 245 692 287 l 649 244 m 326 631 q 284 530 326 572 q 183 488 242 488 q 82 530 124 488 q 41 631 41 572 l 122 631 q 140 588 122 606 q 183 570 158 570 q 227 588 209 570 q 244 631 244 606 l 244 671 q 227 715 244 697 q 183 732 209 732 l 41 732 l 120 977 l 326 977 l 326 895 l 180 895 l 153 814 l 183 814 q 284 772 242 814 q 326 671 326 730 l 326 631 z "},"⁰":{"ha":570,"x_min":41,"x_max":529,"o":"m 285 488 q 112 560 184 488 q 41 732 41 631 q 112 905 41 833 q 285 977 184 977 q 457 905 386 977 q 529 732 529 833 q 457 560 529 631 q 285 488 386 488 m 285 570 q 400 617 352 570 q 448 732 448 665 q 400 847 448 800 q 285 895 352 895 q 170 847 218 895 q 122 732 122 800 q 170 617 122 665 q 285 570 218 570 z "},"¹":{"ha":244,"x_min":41,"x_max":203,"o":"m 203 977 l 203 488 l 122 488 l 122 895 l 41 895 l 41 977 l 203 977 z "},"²":{"ha":366,"x_min":41,"x_max":326,"o":"m 183 895 q 140 878 158 895 q 122 834 122 860 l 41 834 q 82 935 41 893 q 183 977 124 977 q 284 935 242 977 q 326 834 326 893 l 326 793 q 284 693 326 734 q 183 651 242 651 q 140 633 158 651 q 122 590 122 616 l 122 570 l 305 570 l 305 488 l 41 488 l 41 590 q 82 691 41 649 q 183 732 124 732 q 227 750 209 732 q 244 793 244 768 l 244 834 q 227 878 244 860 q 183 895 209 895 z "},"³":{"ha":407,"x_min":41,"x_max":366,"o":"m 224 488 l 41 488 l 41 570 l 224 570 q 267 588 250 570 q 285 631 285 606 q 267 674 285 656 q 224 692 250 692 l 122 692 l 122 773 l 142 773 q 186 791 168 773 q 203 834 203 809 q 186 878 203 860 q 142 895 168 895 l 61 895 l 61 977 l 142 977 q 243 935 201 977 q 285 834 285 893 q 268 766 285 797 q 325 732 300 756 q 366 631 366 690 q 325 530 366 572 q 224 488 283 488 z "},"⁴":{"ha":570,"x_min":41,"x_max":529,"o":"m 448 651 l 529 651 l 529 570 l 448 570 l 448 488 l 366 488 l 366 570 l 41 570 l 361 977 l 465 977 l 208 651 l 366 651 l 366 732 l 448 732 l 448 651 z "},"⁵":{"ha":366,"x_min":41,"x_max":326,"o":"m 326 631 q 284 530 326 572 q 183 488 242 488 q 82 530 124 488 q 41 631 41 572 l 122 631 q 140 588 122 606 q 183 570 158 570 q 227 588 209 570 q 244 631 244 606 l 244 671 q 227 715 244 697 q 183 732 209 732 l 41 732 l 120 977 l 326 977 l 326 895 l 180 895 l 153 814 l 183 814 q 284 772 242 814 q 326 671 326 730 l 326 631 z "},"⁶":{"ha":407,"x_min":41,"x_max":366,"o":"m 203 732 q 146 709 170 732 q 122 651 122 685 q 146 594 122 618 q 203 570 170 570 q 261 594 237 570 q 285 651 285 618 q 261 709 285 685 q 203 732 237 732 m 227 812 q 319 766 279 806 q 366 651 366 719 q 319 536 366 584 q 203 488 271 488 q 89 536 136 488 q 41 651 41 584 q 79 756 41 711 l 253 977 l 356 977 l 227 812 z "},"⁷":{"ha":570,"x_min":41,"x_max":529,"o":"m 361 895 l 41 895 l 41 977 l 529 977 l 144 488 l 41 488 l 361 895 z "},"⁸":{"ha":366,"x_min":41,"x_max":326,"o":"m 183 570 q 227 588 209 570 q 244 631 244 606 q 227 674 244 656 q 183 692 209 692 q 140 674 158 692 q 122 631 122 656 q 140 588 122 606 q 183 570 158 570 m 183 773 q 227 791 209 773 q 244 834 244 809 q 227 878 244 860 q 183 895 209 895 q 140 878 158 895 q 122 834 122 860 q 140 791 122 809 q 183 773 158 773 m 283 732 l 284 732 q 326 631 326 690 q 284 530 326 572 q 183 488 242 488 q 82 530 124 488 q 41 631 41 572 q 83 732 41 690 l 83 732 l 83 734 q 41 834 41 775 q 82 935 41 893 q 183 977 124 977 q 284 935 242 977 q 326 834 326 893 q 284 734 326 775 l 283 732 z "},"⁹":{"ha":407,"x_min":41,"x_max":366,"o":"m 203 732 q 261 756 237 732 q 285 814 285 781 q 261 871 285 848 q 203 895 237 895 q 146 871 170 895 q 122 814 122 848 q 146 756 122 781 q 203 732 170 732 m 180 652 q 88 699 127 659 q 41 814 41 747 q 89 929 41 882 q 203 977 136 977 q 319 929 271 977 q 366 814 366 882 q 328 709 366 753 l 155 488 l 51 488 l 180 652 z "},"⁎":{"ha":570,"x_min":41,"x_max":529,"o":"m 383 203 l 486 100 l 429 43 l 326 146 l 326 0 l 244 0 l 244 146 l 141 43 l 83 100 l 186 203 l 41 203 l 41 285 l 186 285 l 83 388 l 141 446 l 244 342 l 244 488 l 326 488 l 326 342 l 429 446 l 486 388 l 383 285 l 529 285 l 529 203 l 383 203 z "},"․":{"ha":326,"x_min":41,"x_max":285,"o":"m 285 0 l 41 0 l 41 244 l 285 244 l 285 0 z "},"‥":{"ha":651,"x_min":41,"x_max":610,"o":"m 285 0 l 41 0 l 41 244 l 285 244 l 285 0 m 610 0 l 366 0 l 366 244 l 610 244 l 610 0 z "},"℃":{"ha":1058,"x_min":41,"x_max":1017,"o":"m 285 488 q 112 560 184 488 q 41 732 41 631 q 112 905 41 833 q 285 977 184 977 q 457 905 386 977 q 529 732 529 833 q 457 560 529 631 q 285 488 386 488 m 285 651 q 342 675 319 651 q 366 732 366 699 q 342 790 366 766 q 285 814 319 814 q 227 790 251 814 q 203 732 203 766 q 227 675 203 699 q 285 651 251 651 m 1017 163 l 1017 0 q 672 143 815 0 q 529 488 529 286 q 672 833 529 690 q 1017 977 815 977 l 1017 814 q 787 719 882 814 q 692 488 692 623 q 787 258 692 353 q 1017 163 882 163 z "},"⁏":{"ha":326,"x_min":41,"x_max":285,"o":"m 285 488 l 41 488 l 41 732 l 285 732 l 285 488 m 41 81 l 41 244 l 285 244 l 285 0 l 203 0 l 285 -163 l 163 -163 l 41 81 z "},"‐":{"ha":570,"x_min":41,"x_max":529,"o":"m 529 407 l 41 407 l 41 570 l 529 570 l 529 407 z "},"‑":{"ha":570,"x_min":0,"x_max":570,"o":"m 570 407 l 0 407 l 0 570 l 570 570 l 570 407 z "},"‣":{"ha":407,"x_min":41,"x_max":366,"o":"m 41 326 l 41 651 l 366 488 l 41 326 z "}," ":{"ha":244,"x_min":0,"x_max":0,"o":""},"Α":{"ha":1058,"x_min":41,"x_max":1017,"o":"m 41 488 q 184 833 41 690 q 529 977 327 977 q 874 833 731 977 q 1017 488 1017 690 l 1017 0 l 854 0 l 854 163 l 203 163 l 203 0 l 41 0 l 41 488 m 854 326 l 854 488 q 759 719 854 623 q 529 814 664 814 q 299 719 394 814 q 203 488 203 623 l 203 326 l 854 326 z "},"α":{"ha":1058,"x_min":41,"x_max":1017,"o":"m 41 488 q 184 833 41 690 q 529 977 327 977 q 874 833 731 977 q 1017 488 1017 690 l 1017 0 l 854 0 l 854 163 l 203 163 l 203 0 l 41 0 l 41 488 m 854 326 l 854 488 q 759 719 854 623 q 529 814 664 814 q 299 719 394 814 q 203 488 203 623 l 203 326 l 854 326 z "},"Β":{"ha":732,"x_min":41,"x_max":692,"o":"m 203 570 l 244 570 q 331 605 295 570 q 366 692 366 641 q 331 778 366 743 q 244 814 295 814 l 203 814 l 203 570 m 407 163 q 493 198 458 163 q 529 285 529 234 q 493 371 529 336 q 407 407 458 407 l 203 407 l 203 163 l 407 163 m 496 556 q 608 486 558 536 q 692 285 692 403 q 608 83 692 167 q 407 0 525 0 l 41 0 l 41 977 l 244 977 q 446 893 362 977 q 529 692 529 810 q 496 556 529 617 z "},"β":{"ha":732,"x_min":41,"x_max":692,"o":"m 203 570 l 244 570 q 331 605 295 570 q 366 692 366 641 q 331 778 366 743 q 244 814 295 814 l 203 814 l 203 570 m 407 163 q 493 198 458 163 q 529 285 529 234 q 493 371 529 336 q 407 407 458 407 l 203 407 l 203 163 l 407 163 m 496 556 q 608 486 558 536 q 692 285 692 403 q 608 83 692 167 q 407 0 525 0 l 41 0 l 41 977 l 244 977 q 446 893 362 977 q 529 692 529 810 q 496 556 529 617 z "},"Γ":{"ha":570,"x_min":41,"x_max":529,"o":"m 529 977 l 529 814 l 203 814 l 203 0 l 41 0 l 41 977 l 529 977 z "},"γ":{"ha":570,"x_min":41,"x_max":529,"o":"m 529 977 l 529 814 l 203 814 l 203 0 l 41 0 l 41 977 l 529 977 z "},"Δ":{"ha":895,"x_min":41,"x_max":854,"o":"m 630 163 l 448 726 l 265 163 l 630 163 m 41 0 l 357 977 l 538 977 l 854 0 l 41 0 z "},"δ":{"ha":895,"x_min":41,"x_max":854,"o":"m 630 163 l 448 726 l 265 163 l 630 163 m 41 0 l 357 977 l 538 977 l 854 0 l 41 0 z "},"Ε":{"ha":1058,"x_min":41,"x_max":1017,"o":"m 1017 977 l 1017 814 l 203 814 l 203 570 l 854 570 l 854 407 l 203 407 l 203 163 l 1017 163 l 1017 0 l 41 0 l 41 977 l 1017 977 z "},"ε":{"ha":1058,"x_min":41,"x_max":1017,"o":"m 1017 977 l 1017 814 l 203 814 l 203 570 l 854 570 l 854 407 l 203 407 l 203 163 l 1017 163 l 1017 0 l 41 0 l 41 977 l 1017 977 z "},"Ζ":{"ha":1058,"x_min":41,"x_max":1017,"o":"m 682 814 l 41 814 l 41 977 l 1017 977 l 376 163 l 1017 163 l 1017 0 l 41 0 l 682 814 z "},"ζ":{"ha":1058,"x_min":41,"x_max":1017,"o":"m 682 814 l 41 814 l 41 977 l 1017 977 l 376 163 l 1017 163 l 1017 0 l 41 0 l 682 814 z "},"Η":{"ha":1058,"x_min":41,"x_max":1017,"o":"m 203 407 l 203 0 l 41 0 l 41 977 l 203 977 l 203 570 l 854 570 l 854 977 l 1017 977 l 1017 0 l 854 0 l 854 407 l 203 407 z "},"η":{"ha":1058,"x_min":41,"x_max":1017,"o":"m 203 407 l 203 0 l 41 0 l 41 977 l 203 977 l 203 570 l 854 570 l 854 977 l 1017 977 l 1017 0 l 854 0 l 854 407 l 203 407 z "},"Θ":{"ha":1058,"x_min":41,"x_max":1017,"o":"m 529 0 q 184 143 327 0 q 41 488 41 286 q 184 833 41 690 q 529 977 327 977 q 874 833 731 977 q 1017 488 1017 690 q 874 143 1017 286 q 529 0 731 0 m 529 163 q 759 258 664 163 q 854 488 854 353 q 759 719 854 623 q 529 814 664 814 q 299 719 394 814 q 203 488 203 623 q 299 258 203 353 q 529 163 394 163 m 773 407 l 285 407 l 285 570 l 773 570 l 773 407 z "},"θ":{"ha":1058,"x_min":41,"x_max":1017,"o":"m 529 0 q 184 143 327 0 q 41 488 41 286 q 184 833 41 690 q 529 977 327 977 q 874 833 731 977 q 1017 488 1017 690 q 874 143 1017 286 q 529 0 731 0 m 529 163 q 759 258 664 163 q 854 488 854 353 q 759 719 854 623 q 529 814 664 814 q 299 719 394 814 q 203 488 203 623 q 299 258 203 353 q 529 163 394 163 m 773 407 l 285 407 l 285 570 l 773 570 l 773 407 z "},"Ι":{"ha":244,"x_min":41,"x_max":203,"o":"m 203 0 l 41 0 l 41 977 l 203 977 l 203 0 z "},"ι":{"ha":244,"x_min":41,"x_max":203,"o":"m 203 0 l 41 0 l 41 977 l 203 977 l 203 0 z "},"Κ":{"ha":732,"x_min":41,"x_max":692,"o":"m 203 357 l 203 0 l 41 0 l 41 977 l 203 977 l 203 619 l 485 977 l 692 977 l 307 488 l 692 0 l 485 0 l 203 357 z "},"κ":{"ha":732,"x_min":41,"x_max":692,"o":"m 203 357 l 203 0 l 41 0 l 41 977 l 203 977 l 203 619 l 485 977 l 692 977 l 307 488 l 692 0 l 485 0 l 203 357 z "},"Λ":{"ha":895,"x_min":41,"x_max":854,"o":"m 538 977 l 854 0 l 683 0 l 448 726 l 212 0 l 41 0 l 357 977 l 538 977 z "},"λ":{"ha":895,"x_min":41,"x_max":854,"o":"m 538 977 l 854 0 l 683 0 l 448 726 l 212 0 l 41 0 l 357 977 l 538 977 z "},"Μ":{"ha":1058,"x_min":41,"x_max":1017,"o":"m 203 770 l 203 0 l 41 0 l 41 977 l 248 977 l 529 619 l 810 977 l 1017 977 l 1017 0 l 854 0 l 854 770 l 633 488 l 529 357 l 426 488 l 203 770 z "},"μ":{"ha":1058,"x_min":41,"x_max":1017,"o":"m 203 770 l 203 0 l 41 0 l 41 977 l 248 977 l 529 619 l 810 977 l 1017 977 l 1017 0 l 854 0 l 854 770 l 633 488 l 529 357 l 426 488 l 203 770 z "},"Ν":{"ha":1058,"x_min":41,"x_max":1017,"o":"m 203 770 l 203 0 l 41 0 l 41 977 l 248 977 l 854 206 l 854 977 l 1017 977 l 1017 0 l 810 0 l 203 770 z "},"ν":{"ha":1058,"x_min":41,"x_max":1017,"o":"m 203 770 l 203 0 l 41 0 l 41 977 l 248 977 l 854 206 l 854 977 l 1017 977 l 1017 0 l 810 0 l 203 770 z "},"Ξ":{"ha":570,"x_min":41,"x_max":529,"o":"m 41 814 l 41 977 l 529 977 l 529 814 l 41 814 m 41 0 l 41 163 l 529 163 l 529 0 l 41 0 m 81 407 l 81 570 l 488 570 l 488 407 l 81 407 z "},"ξ":{"ha":570,"x_min":41,"x_max":529,"o":"m 41 814 l 41 977 l 529 977 l 529 814 l 41 814 m 41 0 l 41 163 l 529 163 l 529 0 l 41 0 m 81 407 l 81 570 l 488 570 l 488 407 l 81 407 z "},"Ο":{"ha":1058,"x_min":41,"x_max":1017,"o":"m 529 0 q 184 143 327 0 q 41 488 41 286 q 184 833 41 690 q 529 977 327 977 q 874 833 731 977 q 1017 488 1017 690 q 874 143 1017 286 q 529 0 731 0 m 529 163 q 759 258 664 163 q 854 488 854 353 q 759 719 854 623 q 529 814 664 814 q 299 719 394 814 q 203 488 203 623 q 299 258 203 353 q 529 163 394 163 z "},"ο":{"ha":1058,"x_min":41,"x_max":1017,"o":"m 529 0 q 184 143 327 0 q 41 488 41 286 q 184 833 41 690 q 529 977 327 977 q 874 833 731 977 q 1017 488 1017 690 q 874 143 1017 286 q 529 0 731 0 m 529 163 q 759 258 664 163 q 854 488 854 353 q 759 719 854 623 q 529 814 664 814 q 299 719 394 814 q 203 488 203 623 q 299 258 203 353 q 529 163 394 163 z "},"Π":{"ha":732,"x_min":41,"x_max":692,"o":"m 692 0 l 529 0 l 529 814 l 203 814 l 203 0 l 41 0 l 41 977 l 692 977 l 692 0 z "},"π":{"ha":732,"x_min":41,"x_max":692,"o":"m 692 0 l 529 0 l 529 814 l 203 814 l 203 0 l 41 0 l 41 977 l 692 977 l 692 0 z "},"Ρ":{"ha":732,"x_min":41,"x_max":692,"o":"m 407 977 q 608 893 525 977 q 692 692 692 810 l 692 610 q 608 409 692 492 q 407 326 525 326 l 203 326 l 203 0 l 41 0 l 41 977 l 407 977 m 529 692 q 493 778 529 743 q 407 814 458 814 l 203 814 l 203 488 l 407 488 q 493 524 458 488 q 529 610 529 559 l 529 692 z "},"ρ":{"ha":732,"x_min":41,"x_max":692,"o":"m 407 977 q 608 893 525 977 q 692 692 692 810 l 692 610 q 608 409 692 492 q 407 326 525 326 l 203 326 l 203 0 l 41 0 l 41 977 l 407 977 m 529 692 q 493 778 529 743 q 407 814 458 814 l 203 814 l 203 488 l 407 488 q 493 524 458 488 q 529 610 529 559 l 529 692 z "},"Σ":{"ha":570,"x_min":41,"x_max":529,"o":"m 248 163 l 529 163 l 529 0 l 41 0 l 41 207 l 398 488 l 41 770 l 41 977 l 529 977 l 529 814 l 247 814 l 529 591 l 529 385 l 248 163 z "},"σ":{"ha":570,"x_min":41,"x_max":529,"o":"m 248 163 l 529 163 l 529 0 l 41 0 l 41 207 l 398 488 l 41 770 l 41 977 l 529 977 l 529 814 l 247 814 l 529 591 l 529 385 l 248 163 z "},"Τ":{"ha":1058,"x_min":41,"x_max":1017,"o":"m 1017 977 l 1017 814 l 610 814 l 610 0 l 448 0 l 448 814 l 41 814 l 41 977 l 1017 977 z "},"τ":{"ha":1058,"x_min":41,"x_max":1017,"o":"m 1017 977 l 1017 814 l 610 814 l 610 0 l 448 0 l 448 814 l 41 814 l 41 977 l 1017 977 z "},"Υ":{"ha":732,"x_min":41,"x_max":692,"o":"m 366 503 l 520 977 l 692 977 l 375 0 l 203 0 l 281 238 l 199 488 l 41 977 l 212 977 l 366 503 z "},"υ":{"ha":732,"x_min":41,"x_max":692,"o":"m 366 503 l 520 977 l 692 977 l 375 0 l 203 0 l 281 238 l 199 488 l 41 977 l 212 977 l 366 503 z "},"Φ":{"ha":1058,"x_min":41,"x_max":1017,"o":"m 610 225 q 760 296 694 242 q 854 488 854 376 q 760 680 854 601 q 610 751 694 734 l 610 225 m 448 225 l 448 751 q 299 680 364 734 q 203 488 203 601 q 299 296 203 376 q 448 225 364 242 m 610 87 l 610 0 l 448 0 l 448 87 q 184 201 297 106 q 41 488 41 319 q 184 777 41 657 q 448 890 297 871 l 448 977 l 610 977 l 610 890 q 874 777 761 871 q 1017 488 1017 657 q 874 201 1017 319 q 610 87 761 106 z "},"φ":{"ha":1058,"x_min":41,"x_max":1017,"o":"m 610 225 q 760 296 694 242 q 854 488 854 376 q 760 680 854 601 q 610 751 694 734 l 610 225 m 448 225 l 448 751 q 299 680 364 734 q 203 488 203 601 q 299 296 203 376 q 448 225 364 242 m 610 87 l 610 0 l 448 0 l 448 87 q 184 201 297 106 q 41 488 41 319 q 184 777 41 657 q 448 890 297 871 l 448 977 l 610 977 l 610 890 q 874 777 761 871 q 1017 488 1017 657 q 874 201 1017 319 q 610 87 761 106 z "},"Χ":{"ha":1058,"x_min":41,"x_max":1017,"o":"m 633 488 l 1017 0 l 810 0 l 529 357 l 248 0 l 41 0 l 426 488 l 41 977 l 248 977 l 529 619 l 810 977 l 1017 977 l 633 488 z "},"χ":{"ha":1058,"x_min":41,"x_max":1017,"o":"m 633 488 l 1017 0 l 810 0 l 529 357 l 248 0 l 41 0 l 426 488 l 41 977 l 248 977 l 529 619 l 810 977 l 1017 977 l 633 488 z "},"Ψ":{"ha":1058,"x_min":41,"x_max":1017,"o":"m 448 169 q 184 306 297 193 q 41 651 41 449 l 41 977 l 203 977 l 203 651 q 299 421 203 516 q 448 335 364 355 l 448 977 l 610 977 l 610 335 q 760 421 694 355 q 854 651 854 516 l 854 977 l 1017 977 l 1017 651 q 874 306 1017 449 q 610 169 761 193 l 610 0 l 448 0 l 448 169 z "},"ψ":{"ha":1058,"x_min":41,"x_max":1017,"o":"m 448 169 q 184 306 297 193 q 41 651 41 449 l 41 977 l 203 977 l 203 651 q 299 421 203 516 q 448 335 364 355 l 448 977 l 610 977 l 610 335 q 760 421 694 355 q 854 651 854 516 l 854 977 l 1017 977 l 1017 651 q 874 306 1017 449 q 610 169 761 193 l 610 0 l 448 0 l 448 169 z "},"Ω":{"ha":1058,"x_min":41,"x_max":1017,"o":"m 893 163 l 1017 163 l 1017 0 l 692 0 l 692 205 q 760 258 728 227 q 854 488 854 353 q 759 719 854 623 q 529 814 664 814 q 299 719 394 814 q 203 488 203 623 q 299 258 203 353 q 366 205 330 227 l 366 0 l 41 0 l 41 163 l 165 163 q 41 488 41 300 q 184 833 41 690 q 529 977 327 977 q 874 833 731 977 q 1017 488 1017 690 q 893 163 1017 300 z "},"ω":{"ha":1058,"x_min":41,"x_max":1017,"o":"m 893 163 l 1017 163 l 1017 0 l 692 0 l 692 205 q 760 258 728 227 q 854 488 854 353 q 759 719 854 623 q 529 814 664 814 q 299 719 394 814 q 203 488 203 623 q 299 258 203 353 q 366 205 330 227 l 366 0 l 41 0 l 41 163 l 165 163 q 41 488 41 300 q 184 833 41 690 q 529 977 327 977 q 874 833 731 977 q 1017 488 1017 690 q 893 163 1017 300 z "},"ς":{"ha":570,"x_min":41,"x_max":529,"o":"m 248 163 l 529 163 l 529 0 l 41 0 l 41 207 l 398 488 l 41 770 l 41 977 l 529 977 l 529 814 l 247 814 l 529 591 l 529 385 l 248 163 z "},"Ά":{"ha":1058,"x_min":0,"x_max":1017,"o":"m 41 488 q 184 833 41 690 q 529 977 327 977 q 874 833 731 977 q 1017 488 1017 690 l 1017 0 l 854 0 l 854 163 l 203 163 l 203 0 l 41 0 l 41 488 m 220 1058 l 115 895 l 0 895 l 106 1058 l 220 1058 m 854 326 l 854 488 q 759 719 854 623 q 529 814 664 814 q 299 719 394 814 q 203 488 203 623 l 203 326 l 854 326 z "},"ά":{"ha":1058,"x_min":0,"x_max":1017,"o":"m 41 488 q 184 833 41 690 q 529 977 327 977 q 874 833 731 977 q 1017 488 1017 690 l 1017 0 l 854 0 l 854 163 l 203 163 l 203 0 l 41 0 l 41 488 m 220 1058 l 115 895 l 0 895 l 106 1058 l 220 1058 m 854 326 l 854 488 q 759 719 854 623 q 529 814 664 814 q 299 719 394 814 q 203 488 203 623 l 203 326 l 854 326 z "},"Έ":{"ha":1058,"x_min":0,"x_max":1017,"o":"m 1017 977 l 1017 814 l 366 814 l 366 570 l 854 570 l 854 407 l 366 407 l 366 163 l 1017 163 l 1017 0 l 203 0 l 203 977 l 1017 977 m 220 1058 l 115 895 l 0 895 l 106 1058 l 220 1058 z "},"έ":{"ha":1058,"x_min":0,"x_max":1017,"o":"m 1017 977 l 1017 814 l 366 814 l 366 570 l 854 570 l 854 407 l 366 407 l 366 163 l 1017 163 l 1017 0 l 203 0 l 203 977 l 1017 977 m 220 1058 l 115 895 l 0 895 l 106 1058 l 220 1058 z "},"Ή":{"ha":1058,"x_min":0,"x_max":1017,"o":"m 366 407 l 366 0 l 203 0 l 203 977 l 366 977 l 366 570 l 854 570 l 854 977 l 1017 977 l 1017 0 l 854 0 l 854 407 l 366 407 m 220 1058 l 115 895 l 0 895 l 106 1058 l 220 1058 z "},"ή":{"ha":1058,"x_min":0,"x_max":1017,"o":"m 366 407 l 366 0 l 203 0 l 203 977 l 366 977 l 366 570 l 854 570 l 854 977 l 1017 977 l 1017 0 l 854 0 l 854 407 l 366 407 m 220 1058 l 115 895 l 0 895 l 106 1058 l 220 1058 z "},"Ί":{"ha":244,"x_min":-122,"x_max":203,"o":"m 45 977 l 203 977 l 203 0 l 41 0 l 41 969 l -7 895 l -122 895 l -16 1058 l 98 1058 l 45 977 z "}}}
